<svg xmlns="http://www.w3.org/2000/svg" xmlns:xlink="http://www.w3.org/1999/xlink" width="500" zoomAndPan="magnify" viewBox="0 0 375 374.999991" height="500" preserveAspectRatio="xMidYMid meet" version="1.0"><defs><clipPath id="96d882de41"><path d="M 147.320312 184.664062 L 195 184.664062 L 195 190.335938 L 147.320312 190.335938 Z M 147.320312 184.664062 " clip-rule="nonzero"/></clipPath></defs><path fill="#66b2b2" d="M 133.066406 320.566406 L 133.066406 332.660156 L 163.304688 332.660156 C 163.703125 332.660156 164.097656 332.621094 164.488281 332.546875 C 164.875 332.46875 165.253906 332.351562 165.621094 332.199219 C 165.988281 332.050781 166.335938 331.863281 166.667969 331.640625 C 166.996094 331.421875 167.300781 331.171875 167.582031 330.890625 C 167.863281 330.609375 168.113281 330.304688 168.335938 329.972656 C 168.554688 329.644531 168.742188 329.292969 168.894531 328.925781 C 169.046875 328.558594 169.160156 328.183594 169.238281 327.792969 C 169.316406 327.402344 169.355469 327.011719 169.355469 326.613281 L 169.355469 193.546875 L 205.644531 193.546875 L 205.644531 181.453125 L 169.355469 181.453125 L 169.355469 48.386719 C 169.355469 47.988281 169.316406 47.597656 169.238281 47.207031 C 169.160156 46.816406 169.046875 46.4375 168.894531 46.074219 C 168.742188 45.707031 168.554688 45.355469 168.335938 45.027344 C 168.113281 44.695312 167.863281 44.390625 167.582031 44.109375 C 167.300781 43.828125 166.996094 43.578125 166.667969 43.359375 C 166.335938 43.136719 165.988281 42.949219 165.621094 42.800781 C 165.253906 42.648438 164.875 42.53125 164.488281 42.453125 C 164.097656 42.378906 163.703125 42.339844 163.304688 42.339844 L 133.066406 42.339844 L 133.066406 54.433594 L 157.257812 54.433594 L 157.257812 181.453125 L 133.066406 181.453125 L 133.066406 193.546875 L 157.257812 193.546875 L 157.257812 320.566406 Z M 133.066406 320.566406 " fill-opacity="1" fill-rule="nonzero"/><path fill="#66b2b2" d="M 108.871094 181.453125 L 120.96875 181.453125 L 120.96875 193.546875 L 108.871094 193.546875 Z M 108.871094 181.453125 " fill-opacity="1" fill-rule="nonzero"/><path fill="#66b2b2" d="M 108.871094 42.339844 L 120.96875 42.339844 L 120.96875 54.433594 L 108.871094 54.433594 Z M 108.871094 42.339844 " fill-opacity="1" fill-rule="nonzero"/><path fill="#66b2b2" d="M 108.871094 320.566406 L 120.96875 320.566406 L 120.96875 332.660156 L 108.871094 332.660156 Z M 108.871094 320.566406 " fill-opacity="1" fill-rule="nonzero"/><path fill="#66b2b2" d="M 48.386719 96.773438 C 49.972656 96.773438 51.554688 96.695312 53.128906 96.542969 C 54.707031 96.386719 56.273438 96.152344 57.828125 95.84375 C 59.382812 95.535156 60.917969 95.152344 62.433594 94.691406 C 63.949219 94.230469 65.441406 93.699219 66.902344 93.089844 C 68.367188 92.484375 69.800781 91.808594 71.195312 91.0625 C 72.59375 90.3125 73.953125 89.5 75.269531 88.621094 C 76.585938 87.738281 77.859375 86.796875 79.082031 85.789062 C 80.308594 84.785156 81.480469 83.722656 82.601562 82.601562 C 83.722656 81.480469 84.785156 80.308594 85.789062 79.082031 C 86.796875 77.859375 87.738281 76.585938 88.621094 75.269531 C 89.5 73.953125 90.3125 72.59375 91.0625 71.195312 C 91.808594 69.800781 92.484375 68.367188 93.089844 66.902344 C 93.699219 65.441406 94.230469 63.949219 94.691406 62.433594 C 95.152344 60.917969 95.535156 59.382812 95.84375 57.828125 C 96.152344 56.273438 96.386719 54.707031 96.542969 53.128906 C 96.695312 51.554688 96.773438 49.972656 96.773438 48.386719 C 96.773438 46.800781 96.695312 45.222656 96.542969 43.644531 C 96.386719 42.066406 96.152344 40.5 95.84375 38.945312 C 95.535156 37.394531 95.152344 35.859375 94.691406 34.339844 C 94.230469 32.824219 93.699219 31.335938 93.089844 29.871094 C 92.484375 28.40625 91.808594 26.976562 91.0625 25.578125 C 90.3125 24.179688 89.5 22.824219 88.621094 21.503906 C 87.738281 20.1875 86.796875 18.914062 85.789062 17.691406 C 84.785156 16.464844 83.722656 15.292969 82.601562 14.171875 C 81.480469 13.050781 80.308594 11.988281 79.082031 10.984375 C 77.859375 9.976562 76.585938 9.035156 75.269531 8.15625 C 73.953125 7.273438 72.59375 6.460938 71.195312 5.714844 C 69.800781 4.964844 68.367188 4.289062 66.902344 3.683594 C 65.441406 3.078125 63.949219 2.542969 62.433594 2.082031 C 60.917969 1.625 59.382812 1.238281 57.828125 0.929688 C 56.273438 0.621094 54.707031 0.386719 53.128906 0.234375 C 51.554688 0.078125 49.972656 0 48.386719 0 C 46.800781 0 45.222656 0.078125 43.644531 0.234375 C 42.066406 0.386719 40.5 0.621094 38.945312 0.929688 C 37.394531 1.238281 35.859375 1.625 34.339844 2.082031 C 32.824219 2.542969 31.335938 3.078125 29.871094 3.683594 C 28.40625 4.289062 26.976562 4.964844 25.578125 5.714844 C 24.179688 6.460938 22.824219 7.273438 21.503906 8.15625 C 20.1875 9.035156 18.914062 9.976562 17.691406 10.984375 C 16.464844 11.988281 15.292969 13.050781 14.171875 14.171875 C 13.050781 15.292969 11.988281 16.464844 10.984375 17.691406 C 9.976562 18.914062 9.035156 20.1875 8.15625 21.503906 C 7.273438 22.824219 6.460938 24.179688 5.714844 25.578125 C 4.964844 26.976562 4.289062 28.40625 3.683594 29.871094 C 3.078125 31.335938 2.542969 32.824219 2.082031 34.339844 C 1.625 35.859375 1.238281 37.394531 0.929688 38.945312 C 0.621094 40.5 0.386719 42.066406 0.234375 43.644531 C 0.078125 45.222656 0 46.800781 0 48.386719 C 0 49.972656 0.0820312 51.550781 0.238281 53.128906 C 0.394531 54.703125 0.628906 56.269531 0.9375 57.824219 C 1.25 59.375 1.636719 60.910156 2.097656 62.425781 C 2.558594 63.941406 3.089844 65.433594 3.699219 66.894531 C 4.304688 68.359375 4.980469 69.789062 5.730469 71.1875 C 6.476562 72.582031 7.289062 73.941406 8.171875 75.257812 C 9.050781 76.574219 9.996094 77.84375 11 79.070312 C 12.003906 80.292969 13.066406 81.464844 14.1875 82.585938 C 15.308594 83.707031 16.480469 84.769531 17.707031 85.773438 C 18.929688 86.78125 20.199219 87.722656 21.515625 88.601562 C 22.835938 89.484375 24.191406 90.296875 25.589844 91.042969 C 26.984375 91.792969 28.414062 92.46875 29.878906 93.078125 C 31.34375 93.683594 32.832031 94.21875 34.347656 94.679688 C 35.863281 95.140625 37.398438 95.523438 38.949219 95.835938 C 40.503906 96.144531 42.070312 96.378906 43.644531 96.535156 C 45.222656 96.691406 46.804688 96.773438 48.386719 96.773438 Z M 26.855469 55.765625 C 26.855469 55.058594 26.925781 54.359375 27.066406 53.667969 C 27.203125 52.976562 27.410156 52.300781 27.679688 51.648438 C 27.953125 50.996094 28.285156 50.378906 28.675781 49.789062 C 29.070312 49.203125 29.515625 48.660156 30.015625 48.160156 C 30.515625 47.660156 31.058594 47.214844 31.644531 46.820312 C 32.234375 46.429688 32.851562 46.097656 33.503906 45.824219 C 34.15625 45.554688 34.828125 45.351562 35.523438 45.210938 C 36.214844 45.070312 36.914062 45 37.621094 45 L 48.121094 45 C 47.539062 44.988281 46.957031 44.9375 46.378906 44.851562 C 45.804688 44.765625 45.234375 44.640625 44.671875 44.480469 C 44.113281 44.316406 43.566406 44.121094 43.03125 43.886719 C 42.496094 43.65625 41.976562 43.390625 41.476562 43.089844 C 40.976562 42.789062 40.496094 42.457031 40.039062 42.097656 C 39.582031 41.734375 39.148438 41.34375 38.742188 40.925781 C 38.335938 40.503906 37.960938 40.0625 37.609375 39.59375 C 37.261719 39.125 36.945312 38.636719 36.660156 38.128906 C 36.375 37.621094 36.125 37.09375 35.90625 36.550781 C 35.691406 36.011719 35.511719 35.457031 35.367188 34.890625 C 35.222656 34.324219 35.113281 33.753906 35.042969 33.175781 C 34.972656 32.59375 34.941406 32.011719 34.949219 31.429688 C 34.953125 30.847656 34.996094 30.265625 35.078125 29.6875 C 35.160156 29.109375 35.277344 28.539062 35.433594 27.976562 C 35.589844 27.414062 35.78125 26.867188 36.007812 26.328125 C 36.238281 25.789062 36.496094 25.269531 36.792969 24.765625 C 37.085938 24.261719 37.414062 23.78125 37.773438 23.320312 C 38.128906 22.859375 38.515625 22.421875 38.929688 22.011719 C 39.347656 21.601562 39.785156 21.21875 40.25 20.867188 C 40.714844 20.515625 41.199219 20.191406 41.707031 19.902344 C 42.210938 19.613281 42.734375 19.355469 43.273438 19.132812 C 43.8125 18.910156 44.367188 18.726562 44.929688 18.574219 C 45.492188 18.425781 46.066406 18.3125 46.644531 18.238281 C 47.222656 18.160156 47.804688 18.125 48.386719 18.125 C 48.96875 18.125 49.550781 18.160156 50.128906 18.238281 C 50.707031 18.3125 51.28125 18.425781 51.84375 18.574219 C 52.40625 18.726562 52.960938 18.910156 53.5 19.132812 C 54.039062 19.355469 54.5625 19.613281 55.070312 19.902344 C 55.574219 20.191406 56.058594 20.515625 56.523438 20.867188 C 56.988281 21.21875 57.429688 21.601562 57.84375 22.011719 C 58.257812 22.421875 58.644531 22.859375 59.003906 23.320312 C 59.359375 23.78125 59.6875 24.261719 59.980469 24.765625 C 60.277344 25.269531 60.539062 25.789062 60.765625 26.328125 C 60.992188 26.867188 61.183594 27.414062 61.339844 27.976562 C 61.496094 28.539062 61.613281 29.109375 61.695312 29.6875 C 61.777344 30.265625 61.820312 30.847656 61.824219 31.429688 C 61.832031 32.011719 61.800781 32.59375 61.730469 33.175781 C 61.660156 33.753906 61.550781 34.324219 61.40625 34.890625 C 61.261719 35.457031 61.082031 36.011719 60.867188 36.550781 C 60.648438 37.09375 60.398438 37.621094 60.113281 38.128906 C 59.828125 38.636719 59.511719 39.125 59.164062 39.59375 C 58.8125 40.0625 58.4375 40.503906 58.03125 40.925781 C 57.625 41.34375 57.191406 41.734375 56.734375 42.097656 C 56.277344 42.457031 55.796875 42.789062 55.296875 43.089844 C 54.796875 43.390625 54.28125 43.65625 53.746094 43.886719 C 53.210938 44.121094 52.660156 44.316406 52.101562 44.480469 C 51.539062 44.640625 50.972656 44.765625 50.394531 44.851562 C 49.816406 44.9375 49.238281 44.988281 48.652344 45 L 59.152344 45 C 59.859375 45 60.558594 45.070312 61.25 45.210938 C 61.945312 45.351562 62.617188 45.554688 63.269531 45.824219 C 63.921875 46.097656 64.542969 46.429688 65.128906 46.820312 C 65.714844 47.214844 66.257812 47.660156 66.757812 48.160156 C 67.257812 48.660156 67.703125 49.203125 68.097656 49.789062 C 68.492188 50.378906 68.824219 50.996094 69.09375 51.648438 C 69.363281 52.300781 69.570312 52.976562 69.707031 53.667969 C 69.847656 54.359375 69.917969 55.058594 69.917969 55.765625 L 69.917969 77.539062 C 68.375 78.691406 66.746094 79.710938 65.035156 80.601562 C 63.328125 81.492188 61.558594 82.242188 59.730469 82.847656 C 57.898438 83.453125 56.035156 83.910156 54.132812 84.21875 C 52.230469 84.523438 50.3125 84.675781 48.386719 84.675781 C 46.460938 84.675781 44.546875 84.523438 42.644531 84.21875 C 40.738281 83.910156 38.875 83.453125 37.042969 82.847656 C 35.214844 82.242188 33.445312 81.492188 31.738281 80.601562 C 30.027344 79.710938 28.402344 78.691406 26.855469 77.539062 Z M 26.855469 55.765625 " fill-opacity="1" fill-rule="nonzero"/><path fill="#66b2b2" d="M 48.386719 235.886719 C 49.972656 235.886719 51.554688 235.808594 53.128906 235.652344 C 54.707031 235.5 56.273438 235.265625 57.828125 234.957031 C 59.382812 234.648438 60.917969 234.261719 62.433594 233.804688 C 63.949219 233.34375 65.441406 232.808594 66.902344 232.203125 C 68.367188 231.597656 69.800781 230.921875 71.195312 230.171875 C 72.59375 229.425781 73.953125 228.613281 75.269531 227.730469 C 76.585938 226.851562 77.859375 225.910156 79.082031 224.902344 C 80.308594 223.898438 81.480469 222.835938 82.601562 221.714844 C 83.722656 220.59375 84.785156 219.421875 85.789062 218.195312 C 86.796875 216.972656 87.738281 215.699219 88.621094 214.382812 C 89.5 213.066406 90.3125 211.707031 91.0625 210.308594 C 91.808594 208.910156 92.484375 207.480469 93.089844 206.015625 C 93.699219 204.554688 94.230469 203.0625 94.691406 201.546875 C 95.152344 200.03125 95.535156 198.492188 95.84375 196.941406 C 96.152344 195.386719 96.386719 193.820312 96.542969 192.242188 C 96.695312 190.664062 96.773438 189.085938 96.773438 187.5 C 96.773438 185.914062 96.695312 184.335938 96.542969 182.757812 C 96.386719 181.179688 96.152344 179.613281 95.84375 178.058594 C 95.535156 176.503906 95.152344 174.96875 94.691406 173.453125 C 94.230469 171.9375 93.699219 170.445312 93.089844 168.984375 C 92.484375 167.519531 91.808594 166.089844 91.0625 164.691406 C 90.3125 163.292969 89.5 161.933594 88.621094 160.617188 C 87.738281 159.300781 86.796875 158.027344 85.789062 156.804688 C 84.785156 155.578125 83.722656 154.40625 82.601562 153.285156 C 81.480469 152.164062 80.308594 151.101562 79.082031 150.097656 C 77.859375 149.089844 76.585938 148.148438 75.269531 147.265625 C 73.953125 146.386719 72.59375 145.574219 71.195312 144.828125 C 69.800781 144.078125 68.367188 143.402344 66.902344 142.796875 C 65.441406 142.191406 63.949219 141.65625 62.433594 141.195312 C 60.917969 140.738281 59.382812 140.351562 57.828125 140.042969 C 56.273438 139.734375 54.707031 139.5 53.128906 139.347656 C 51.554688 139.191406 49.972656 139.113281 48.386719 139.113281 C 46.800781 139.113281 45.222656 139.191406 43.644531 139.347656 C 42.066406 139.5 40.5 139.734375 38.945312 140.042969 C 37.394531 140.351562 35.859375 140.738281 34.339844 141.195312 C 32.824219 141.65625 31.335938 142.191406 29.871094 142.796875 C 28.40625 143.402344 26.976562 144.078125 25.578125 144.828125 C 24.179688 145.574219 22.824219 146.386719 21.503906 147.265625 C 20.1875 148.148438 18.914062 149.089844 17.691406 150.097656 C 16.464844 151.101562 15.292969 152.164062 14.171875 153.285156 C 13.050781 154.40625 11.988281 155.578125 10.984375 156.804688 C 9.976562 158.027344 9.035156 159.300781 8.15625 160.617188 C 7.273438 161.933594 6.460938 163.292969 5.714844 164.691406 C 4.964844 166.089844 4.289062 167.519531 3.683594 168.984375 C 3.078125 170.445312 2.542969 171.9375 2.082031 173.453125 C 1.625 174.96875 1.238281 176.503906 0.929688 178.058594 C 0.621094 179.613281 0.386719 181.179688 0.234375 182.757812 C 0.078125 184.335938 0 185.914062 0 187.5 C 0 189.085938 0.0820312 190.664062 0.238281 192.242188 C 0.394531 193.816406 0.628906 195.382812 0.9375 196.9375 C 1.25 198.488281 1.636719 200.023438 2.097656 201.539062 C 2.558594 203.054688 3.089844 204.546875 3.699219 206.007812 C 4.304688 207.472656 4.980469 208.902344 5.730469 210.296875 C 6.476562 211.695312 7.289062 213.050781 8.171875 214.371094 C 9.050781 215.6875 9.996094 216.957031 11 218.183594 C 12.003906 219.40625 13.066406 220.578125 14.1875 221.699219 C 15.308594 222.820312 16.480469 223.882812 17.707031 224.886719 C 18.929688 225.890625 20.199219 226.835938 21.515625 227.714844 C 22.835938 228.597656 24.191406 229.410156 25.589844 230.15625 C 26.984375 230.90625 28.414062 231.582031 29.878906 232.1875 C 31.34375 232.796875 32.832031 233.332031 34.347656 233.792969 C 35.863281 234.253906 37.398438 234.636719 38.949219 234.949219 C 40.503906 235.257812 42.070312 235.492188 43.644531 235.648438 C 45.222656 235.804688 46.804688 235.886719 48.386719 235.886719 Z M 26.855469 194.878906 C 26.855469 194.171875 26.925781 193.472656 27.066406 192.78125 C 27.203125 192.085938 27.410156 191.414062 27.679688 190.761719 C 27.953125 190.109375 28.285156 189.492188 28.675781 188.902344 C 29.070312 188.316406 29.515625 187.773438 30.015625 187.273438 C 30.515625 186.773438 31.058594 186.328125 31.644531 185.933594 C 32.234375 185.542969 32.851562 185.210938 33.503906 184.9375 C 34.15625 184.667969 34.828125 184.460938 35.523438 184.324219 C 36.214844 184.183594 36.914062 184.113281 37.621094 184.113281 L 48.121094 184.113281 C 47.539062 184.101562 46.957031 184.050781 46.378906 183.964844 C 45.804688 183.878906 45.234375 183.753906 44.671875 183.59375 C 44.113281 183.429688 43.566406 183.234375 43.03125 183 C 42.496094 182.769531 41.976562 182.503906 41.476562 182.203125 C 40.976562 181.902344 40.496094 181.570312 40.039062 181.207031 C 39.582031 180.847656 39.148438 180.457031 38.742188 180.035156 C 38.335938 179.617188 37.960938 179.175781 37.609375 178.707031 C 37.261719 178.238281 36.945312 177.75 36.660156 177.242188 C 36.375 176.730469 36.125 176.207031 35.90625 175.664062 C 35.691406 175.125 35.511719 174.570312 35.367188 174.003906 C 35.222656 173.4375 35.113281 172.867188 35.042969 172.289062 C 34.972656 171.707031 34.941406 171.125 34.949219 170.542969 C 34.953125 169.960938 34.996094 169.378906 35.078125 168.800781 C 35.160156 168.222656 35.277344 167.652344 35.433594 167.089844 C 35.589844 166.527344 35.78125 165.976562 36.007812 165.441406 C 36.238281 164.902344 36.496094 164.382812 36.792969 163.878906 C 37.085938 163.375 37.414062 162.894531 37.773438 162.433594 C 38.128906 161.972656 38.515625 161.535156 38.929688 161.125 C 39.347656 160.714844 39.785156 160.332031 40.25 159.980469 C 40.714844 159.625 41.199219 159.304688 41.707031 159.015625 C 42.210938 158.726562 42.734375 158.46875 43.273438 158.246094 C 43.8125 158.023438 44.367188 157.839844 44.929688 157.6875 C 45.492188 157.539062 46.066406 157.425781 46.644531 157.351562 C 47.222656 157.273438 47.804688 157.238281 48.386719 157.238281 C 48.96875 157.238281 49.550781 157.273438 50.128906 157.351562 C 50.707031 157.425781 51.28125 157.539062 51.84375 157.6875 C 52.40625 157.839844 52.960938 158.023438 53.5 158.246094 C 54.039062 158.46875 54.5625 158.726562 55.070312 159.015625 C 55.574219 159.304688 56.058594 159.625 56.523438 159.980469 C 56.988281 160.332031 57.429688 160.714844 57.84375 161.125 C 58.257812 161.535156 58.644531 161.972656 59.003906 162.433594 C 59.359375 162.894531 59.6875 163.375 59.980469 163.878906 C 60.277344 164.382812 60.539062 164.902344 60.765625 165.441406 C 60.992188 165.976562 61.183594 166.527344 61.339844 167.089844 C 61.496094 167.652344 61.613281 168.222656 61.695312 168.800781 C 61.777344 169.378906 61.820312 169.960938 61.824219 170.542969 C 61.832031 171.125 61.800781 171.707031 61.730469 172.289062 C 61.660156 172.867188 61.550781 173.4375 61.40625 174.003906 C 61.261719 174.570312 61.082031 175.125 60.867188 175.664062 C 60.648438 176.207031 60.398438 176.730469 60.113281 177.242188 C 59.828125 177.75 59.511719 178.238281 59.164062 178.707031 C 58.8125 179.175781 58.4375 179.617188 58.03125 180.035156 C 57.625 180.457031 57.191406 180.847656 56.734375 181.207031 C 56.277344 181.570312 55.796875 181.902344 55.296875 182.203125 C 54.796875 182.503906 54.28125 182.769531 53.746094 183 C 53.210938 183.234375 52.660156 183.429688 52.101562 183.59375 C 51.539062 183.753906 50.972656 183.878906 50.394531 183.964844 C 49.816406 184.050781 49.238281 184.101562 48.652344 184.113281 L 59.152344 184.113281 C 59.859375 184.113281 60.558594 184.183594 61.25 184.324219 C 61.945312 184.460938 62.617188 184.667969 63.269531 184.9375 C 63.921875 185.210938 64.542969 185.542969 65.128906 185.933594 C 65.714844 186.328125 66.257812 186.773438 66.757812 187.273438 C 67.257812 187.773438 67.703125 188.316406 68.097656 188.902344 C 68.492188 189.492188 68.824219 190.109375 69.09375 190.761719 C 69.363281 191.414062 69.570312 192.085938 69.707031 192.78125 C 69.847656 193.472656 69.917969 194.171875 69.917969 194.878906 L 69.917969 216.652344 C 68.375 217.804688 66.746094 218.824219 65.035156 219.714844 C 63.328125 220.605469 61.558594 221.351562 59.730469 221.960938 C 57.898438 222.566406 56.035156 223.023438 54.132812 223.328125 C 52.230469 223.636719 50.3125 223.789062 48.386719 223.789062 C 46.460938 223.789062 44.546875 223.636719 42.644531 223.328125 C 40.738281 223.023438 38.875 222.566406 37.042969 221.960938 C 35.214844 221.351562 33.445312 220.605469 31.738281 219.714844 C 30.027344 218.824219 28.402344 217.804688 26.855469 216.652344 Z M 26.855469 194.878906 " fill-opacity="1" fill-rule="nonzero"/><path fill="#66b2b2" d="M 48.386719 375 C 49.972656 375 51.554688 374.921875 53.128906 374.765625 C 54.707031 374.613281 56.273438 374.378906 57.828125 374.070312 C 59.382812 373.761719 60.917969 373.375 62.433594 372.917969 C 63.949219 372.457031 65.441406 371.921875 66.902344 371.316406 C 68.367188 370.710938 69.800781 370.035156 71.195312 369.285156 C 72.59375 368.539062 73.953125 367.726562 75.269531 366.84375 C 76.585938 365.964844 77.859375 365.023438 79.082031 364.015625 C 80.308594 363.011719 81.480469 361.949219 82.601562 360.828125 C 83.722656 359.707031 84.785156 358.535156 85.789062 357.308594 C 86.796875 356.085938 87.738281 354.8125 88.621094 353.496094 C 89.5 352.175781 90.3125 350.820312 91.0625 349.421875 C 91.808594 348.023438 92.484375 346.59375 93.089844 345.128906 C 93.699219 343.664062 94.230469 342.175781 94.691406 340.660156 C 95.152344 339.140625 95.535156 337.605469 95.84375 336.050781 C 96.152344 334.5 96.386719 332.933594 96.542969 331.355469 C 96.695312 329.777344 96.773438 328.199219 96.773438 326.613281 C 96.773438 325.027344 96.695312 323.445312 96.542969 321.871094 C 96.386719 320.292969 96.152344 318.726562 95.84375 317.171875 C 95.535156 315.617188 95.152344 314.082031 94.691406 312.566406 C 94.230469 311.050781 93.699219 309.558594 93.089844 308.097656 C 92.484375 306.632812 91.808594 305.199219 91.0625 303.804688 C 90.3125 302.40625 89.5 301.046875 88.621094 299.730469 C 87.738281 298.414062 86.796875 297.140625 85.789062 295.917969 C 84.785156 294.691406 83.722656 293.519531 82.601562 292.398438 C 81.480469 291.277344 80.308594 290.214844 79.082031 289.210938 C 77.859375 288.203125 76.585938 287.261719 75.269531 286.378906 C 73.953125 285.5 72.59375 284.6875 71.195312 283.9375 C 69.800781 283.191406 68.367188 282.515625 66.902344 281.910156 C 65.441406 281.300781 63.949219 280.769531 62.433594 280.308594 C 60.917969 279.847656 59.382812 279.464844 57.828125 279.15625 C 56.273438 278.847656 54.707031 278.613281 53.128906 278.457031 C 51.554688 278.304688 49.972656 278.226562 48.386719 278.226562 C 46.800781 278.226562 45.222656 278.304688 43.644531 278.457031 C 42.066406 278.613281 40.5 278.847656 38.945312 279.15625 C 37.394531 279.464844 35.859375 279.847656 34.339844 280.308594 C 32.824219 280.769531 31.335938 281.300781 29.871094 281.910156 C 28.40625 282.515625 26.976562 283.191406 25.578125 283.9375 C 24.179688 284.6875 22.824219 285.5 21.503906 286.378906 C 20.1875 287.261719 18.914062 288.203125 17.691406 289.210938 C 16.464844 290.214844 15.292969 291.277344 14.171875 292.398438 C 13.050781 293.519531 11.988281 294.691406 10.984375 295.917969 C 9.976562 297.140625 9.035156 298.414062 8.15625 299.730469 C 7.273438 301.046875 6.460938 302.40625 5.714844 303.804688 C 4.964844 305.199219 4.289062 306.632812 3.683594 308.097656 C 3.078125 309.558594 2.542969 311.050781 2.082031 312.566406 C 1.625 314.082031 1.238281 315.617188 0.929688 317.171875 C 0.621094 318.726562 0.386719 320.292969 0.234375 321.871094 C 0.078125 323.445312 0 325.027344 0 326.613281 C 0 328.195312 0.0820312 329.777344 0.238281 331.355469 C 0.394531 332.929688 0.628906 334.496094 0.9375 336.050781 C 1.25 337.601562 1.636719 339.136719 2.097656 340.652344 C 2.558594 342.167969 3.089844 343.65625 3.699219 345.121094 C 4.304688 346.585938 4.980469 348.015625 5.730469 349.410156 C 6.476562 350.808594 7.289062 352.164062 8.171875 353.484375 C 9.050781 354.800781 9.996094 356.070312 11 357.292969 C 12.003906 358.519531 13.066406 359.691406 14.1875 360.8125 C 15.308594 361.933594 16.480469 362.996094 17.707031 364 C 18.929688 365.003906 20.199219 365.949219 21.515625 366.828125 C 22.835938 367.710938 24.191406 368.523438 25.589844 369.269531 C 26.984375 370.019531 28.414062 370.695312 29.878906 371.300781 C 31.34375 371.910156 32.832031 372.441406 34.347656 372.902344 C 35.863281 373.363281 37.398438 373.75 38.949219 374.0625 C 40.503906 374.371094 42.070312 374.605469 43.644531 374.761719 C 45.222656 374.917969 46.804688 375 48.386719 375 Z M 26.855469 333.992188 C 26.855469 333.285156 26.925781 332.585938 27.066406 331.894531 C 27.203125 331.199219 27.410156 330.527344 27.679688 329.875 C 27.953125 329.222656 28.285156 328.601562 28.675781 328.015625 C 29.070312 327.429688 29.515625 326.886719 30.015625 326.386719 C 30.515625 325.886719 31.058594 325.441406 31.644531 325.046875 C 32.234375 324.65625 32.851562 324.324219 33.503906 324.050781 C 34.15625 323.78125 34.828125 323.574219 35.523438 323.4375 C 36.214844 323.296875 36.914062 323.226562 37.621094 323.226562 L 48.121094 323.226562 C 47.539062 323.214844 46.957031 323.164062 46.378906 323.078125 C 45.804688 322.992188 45.234375 322.867188 44.671875 322.707031 C 44.113281 322.542969 43.566406 322.347656 43.03125 322.113281 C 42.496094 321.882812 41.976562 321.617188 41.476562 321.316406 C 40.976562 321.015625 40.496094 320.683594 40.039062 320.320312 C 39.582031 319.960938 39.148438 319.570312 38.742188 319.148438 C 38.335938 318.730469 37.960938 318.289062 37.609375 317.820312 C 37.261719 317.351562 36.945312 316.863281 36.660156 316.355469 C 36.375 315.84375 36.125 315.320312 35.90625 314.777344 C 35.691406 314.234375 35.511719 313.683594 35.367188 313.117188 C 35.222656 312.550781 35.113281 311.980469 35.042969 311.398438 C 34.972656 310.820312 34.941406 310.238281 34.949219 309.65625 C 34.953125 309.074219 34.996094 308.492188 35.078125 307.914062 C 35.160156 307.335938 35.277344 306.765625 35.433594 306.203125 C 35.589844 305.640625 35.78125 305.089844 36.007812 304.554688 C 36.238281 304.015625 36.496094 303.496094 36.792969 302.992188 C 37.085938 302.488281 37.414062 302.007812 37.773438 301.546875 C 38.128906 301.085938 38.515625 300.648438 38.929688 300.238281 C 39.347656 299.828125 39.785156 299.445312 40.25 299.09375 C 40.714844 298.738281 41.199219 298.417969 41.707031 298.128906 C 42.210938 297.835938 42.734375 297.582031 43.273438 297.359375 C 43.8125 297.136719 44.367188 296.953125 44.929688 296.800781 C 45.492188 296.652344 46.066406 296.539062 46.644531 296.464844 C 47.222656 296.386719 47.804688 296.347656 48.386719 296.347656 C 48.96875 296.347656 49.550781 296.386719 50.128906 296.464844 C 50.707031 296.539062 51.28125 296.652344 51.84375 296.800781 C 52.40625 296.953125 52.960938 297.136719 53.5 297.359375 C 54.039062 297.582031 54.5625 297.835938 55.070312 298.128906 C 55.574219 298.417969 56.058594 298.738281 56.523438 299.09375 C 56.988281 299.445312 57.429688 299.828125 57.84375 300.238281 C 58.257812 300.648438 58.644531 301.085938 59.003906 301.546875 C 59.359375 302.007812 59.6875 302.488281 59.980469 302.992188 C 60.277344 303.496094 60.539062 304.015625 60.765625 304.554688 C 60.992188 305.089844 61.183594 305.640625 61.339844 306.203125 C 61.496094 306.765625 61.613281 307.335938 61.695312 307.914062 C 61.777344 308.492188 61.820312 309.074219 61.824219 309.65625 C 61.832031 310.238281 61.800781 310.820312 61.730469 311.398438 C 61.660156 311.980469 61.550781 312.550781 61.40625 313.117188 C 61.261719 313.683594 61.082031 314.234375 60.867188 314.777344 C 60.648438 315.320312 60.398438 315.84375 60.113281 316.355469 C 59.828125 316.863281 59.511719 317.351562 59.164062 317.820312 C 58.8125 318.289062 58.4375 318.730469 58.03125 319.148438 C 57.625 319.570312 57.191406 319.960938 56.734375 320.320312 C 56.277344 320.683594 55.796875 321.015625 55.296875 321.316406 C 54.796875 321.617188 54.28125 321.882812 53.746094 322.113281 C 53.210938 322.347656 52.660156 322.542969 52.101562 322.707031 C 51.539062 322.867188 50.972656 322.992188 50.394531 323.078125 C 49.816406 323.164062 49.238281 323.214844 48.652344 323.226562 L 59.152344 323.226562 C 59.859375 323.226562 60.558594 323.296875 61.25 323.4375 C 61.945312 323.574219 62.617188 323.78125 63.269531 324.050781 C 63.921875 324.324219 64.542969 324.65625 65.128906 325.046875 C 65.714844 325.441406 66.257812 325.886719 66.757812 326.386719 C 67.257812 326.886719 67.703125 327.429688 68.097656 328.015625 C 68.492188 328.601562 68.824219 329.222656 69.09375 329.875 C 69.363281 330.527344 69.570312 331.199219 69.707031 331.894531 C 69.847656 332.585938 69.917969 333.285156 69.917969 333.992188 L 69.917969 355.765625 C 68.375 356.917969 66.746094 357.9375 65.035156 358.828125 C 63.328125 359.71875 61.558594 360.464844 59.730469 361.074219 C 57.898438 361.679688 56.035156 362.136719 54.132812 362.441406 C 52.230469 362.75 50.3125 362.902344 48.386719 362.902344 C 46.460938 362.902344 44.546875 362.75 42.644531 362.441406 C 40.738281 362.136719 38.875 361.679688 37.042969 361.074219 C 35.214844 360.464844 33.445312 359.71875 31.738281 358.828125 C 30.027344 357.9375 28.402344 356.917969 26.855469 355.765625 Z M 26.855469 333.992188 " fill-opacity="1" fill-rule="nonzero"/><path fill="#66b2b2" d="M 362.902344 121.289062 L 229.839844 121.289062 C 229.042969 121.289062 228.257812 121.367188 227.480469 121.519531 C 226.699219 121.675781 225.941406 121.90625 225.210938 122.210938 C 224.476562 122.511719 223.777344 122.886719 223.117188 123.328125 C 222.457031 123.769531 221.847656 124.269531 221.285156 124.832031 C 220.722656 125.394531 220.222656 126.003906 219.78125 126.664062 C 219.339844 127.324219 218.964844 128.023438 218.664062 128.753906 C 218.359375 129.488281 218.128906 130.246094 217.972656 131.023438 C 217.820312 131.804688 217.742188 132.589844 217.742188 133.386719 L 217.742188 242.257812 C 217.742188 243.050781 217.820312 243.835938 217.972656 244.617188 C 218.128906 245.394531 218.359375 246.152344 218.664062 246.886719 C 218.964844 247.617188 219.339844 248.316406 219.78125 248.976562 C 220.222656 249.636719 220.722656 250.25 221.285156 250.808594 C 221.847656 251.371094 222.457031 251.871094 223.117188 252.3125 C 223.777344 252.753906 224.476562 253.128906 225.210938 253.433594 C 225.941406 253.734375 226.699219 253.964844 227.480469 254.121094 C 228.257812 254.273438 229.042969 254.351562 229.839844 254.351562 L 362.902344 254.351562 C 363.699219 254.351562 364.484375 254.273438 365.261719 254.121094 C 366.042969 253.964844 366.796875 253.734375 367.53125 253.433594 C 368.265625 253.128906 368.964844 252.753906 369.625 252.3125 C 370.285156 251.871094 370.894531 251.371094 371.457031 250.808594 C 372.019531 250.25 372.519531 249.636719 372.960938 248.976562 C 373.402344 248.316406 373.773438 247.617188 374.078125 246.886719 C 374.382812 246.152344 374.613281 245.394531 374.765625 244.617188 C 374.921875 243.835938 375 243.050781 375 242.257812 L 375 133.386719 C 375 132.589844 374.921875 131.804688 374.765625 131.023438 C 374.613281 130.246094 374.382812 129.488281 374.078125 128.753906 C 373.773438 128.023438 373.402344 127.324219 372.960938 126.664062 C 372.519531 126.003906 372.019531 125.394531 371.457031 124.832031 C 370.894531 124.269531 370.285156 123.769531 369.625 123.328125 C 368.964844 122.886719 368.265625 122.511719 367.53125 122.210938 C 366.796875 121.90625 366.042969 121.675781 365.261719 121.519531 C 364.484375 121.367188 363.699219 121.289062 362.902344 121.289062 Z M 308.46875 241.933594 L 247.984375 241.933594 L 247.984375 193.546875 C 247.984375 192.753906 248.0625 191.96875 248.214844 191.1875 C 248.371094 190.410156 248.601562 189.652344 248.90625 188.917969 C 249.207031 188.183594 249.582031 187.488281 250.023438 186.828125 C 250.464844 186.167969 250.964844 185.554688 251.527344 184.996094 C 252.089844 184.433594 252.699219 183.929688 253.359375 183.492188 C 254.019531 183.050781 254.71875 182.675781 255.453125 182.371094 C 256.183594 182.070312 256.941406 181.839844 257.71875 181.683594 C 258.5 181.527344 259.285156 181.453125 260.082031 181.453125 L 278.226562 181.453125 C 277.632812 181.453125 277.039062 181.421875 276.449219 181.363281 C 275.855469 181.304688 275.269531 181.21875 274.6875 181.101562 C 274.101562 180.988281 273.527344 180.84375 272.957031 180.671875 C 272.390625 180.496094 271.832031 180.296875 271.28125 180.070312 C 270.734375 179.84375 270.195312 179.589844 269.671875 179.308594 C 269.148438 179.027344 268.640625 178.722656 268.144531 178.394531 C 267.652344 178.0625 267.175781 177.710938 266.714844 177.332031 C 266.253906 176.957031 265.816406 176.558594 265.394531 176.136719 C 264.976562 175.714844 264.578125 175.277344 264.199219 174.816406 C 263.824219 174.359375 263.46875 173.882812 263.136719 173.386719 C 262.808594 172.894531 262.503906 172.382812 262.222656 171.859375 C 261.941406 171.335938 261.6875 170.800781 261.460938 170.25 C 261.234375 169.703125 261.035156 169.140625 260.863281 168.574219 C 260.6875 168.003906 260.546875 167.429688 260.429688 166.847656 C 260.3125 166.261719 260.226562 165.675781 260.167969 165.085938 C 260.109375 164.492188 260.082031 163.902344 260.082031 163.304688 C 260.082031 162.710938 260.109375 162.121094 260.167969 161.527344 C 260.226562 160.9375 260.3125 160.347656 260.429688 159.765625 C 260.546875 159.183594 260.6875 158.609375 260.863281 158.039062 C 261.035156 157.46875 261.234375 156.910156 261.460938 156.363281 C 261.6875 155.8125 261.941406 155.277344 262.222656 154.753906 C 262.503906 154.230469 262.808594 153.71875 263.136719 153.226562 C 263.46875 152.730469 263.824219 152.253906 264.199219 151.796875 C 264.578125 151.335938 264.976562 150.894531 265.394531 150.476562 C 265.816406 150.054688 266.253906 149.65625 266.714844 149.28125 C 267.175781 148.902344 267.652344 148.550781 268.144531 148.21875 C 268.640625 147.890625 269.148438 147.582031 269.671875 147.304688 C 270.195312 147.023438 270.734375 146.769531 271.28125 146.542969 C 271.832031 146.316406 272.390625 146.113281 272.957031 145.941406 C 273.527344 145.769531 274.101562 145.625 274.6875 145.511719 C 275.269531 145.394531 275.855469 145.308594 276.449219 145.25 C 277.039062 145.191406 277.632812 145.160156 278.226562 145.160156 C 278.820312 145.160156 279.414062 145.191406 280.003906 145.25 C 280.597656 145.308594 281.183594 145.394531 281.765625 145.511719 C 282.347656 145.625 282.925781 145.769531 283.492188 145.941406 C 284.0625 146.113281 284.621094 146.316406 285.167969 146.542969 C 285.71875 146.769531 286.253906 147.023438 286.78125 147.304688 C 287.304688 147.582031 287.8125 147.890625 288.308594 148.21875 C 288.800781 148.550781 289.277344 148.902344 289.738281 149.28125 C 290.195312 149.65625 290.636719 150.054688 291.054688 150.476562 C 291.476562 150.894531 291.875 151.335938 292.253906 151.796875 C 292.628906 152.253906 292.984375 152.730469 293.3125 153.226562 C 293.644531 153.71875 293.949219 154.230469 294.226562 154.753906 C 294.507812 155.277344 294.761719 155.8125 294.988281 156.363281 C 295.21875 156.910156 295.417969 157.46875 295.589844 158.039062 C 295.761719 158.609375 295.90625 159.183594 296.023438 159.765625 C 296.136719 160.347656 296.226562 160.9375 296.285156 161.527344 C 296.34375 162.121094 296.371094 162.710938 296.371094 163.304688 C 296.371094 163.902344 296.34375 164.492188 296.285156 165.085938 C 296.226562 165.675781 296.136719 166.261719 296.023438 166.847656 C 295.90625 167.429688 295.761719 168.003906 295.589844 168.574219 C 295.417969 169.140625 295.21875 169.703125 294.988281 170.25 C 294.761719 170.800781 294.507812 171.335938 294.226562 171.859375 C 293.949219 172.382812 293.644531 172.894531 293.3125 173.386719 C 292.984375 173.882812 292.628906 174.359375 292.253906 174.816406 C 291.875 175.277344 291.476562 175.714844 291.054688 176.136719 C 290.636719 176.558594 290.195312 176.957031 289.738281 177.332031 C 289.277344 177.710938 288.800781 178.0625 288.308594 178.394531 C 287.8125 178.722656 287.304688 179.027344 286.78125 179.308594 C 286.253906 179.589844 285.71875 179.84375 285.167969 180.070312 C 284.621094 180.296875 284.0625 180.496094 283.492188 180.671875 C 282.925781 180.84375 282.347656 180.988281 281.765625 181.101562 C 281.183594 181.21875 280.597656 181.304688 280.003906 181.363281 C 279.414062 181.421875 278.820312 181.453125 278.226562 181.453125 L 296.371094 181.453125 C 297.164062 181.453125 297.953125 181.527344 298.730469 181.683594 C 299.511719 181.839844 300.265625 182.070312 301 182.371094 C 301.734375 182.675781 302.429688 183.050781 303.089844 183.492188 C 303.75 183.929688 304.363281 184.433594 304.925781 184.996094 C 305.484375 185.554688 305.988281 186.167969 306.429688 186.828125 C 306.871094 187.488281 307.242188 188.183594 307.546875 188.917969 C 307.851562 189.652344 308.082031 190.410156 308.234375 191.1875 C 308.390625 191.96875 308.46875 192.753906 308.46875 193.546875 Z M 335.683594 157.257812 L 341.734375 157.257812 C 342.660156 157.257812 343.582031 157.34375 344.496094 157.515625 C 345.40625 157.683594 346.296875 157.9375 347.164062 158.273438 C 348.027344 158.605469 348.855469 159.015625 349.648438 159.503906 C 350.4375 159.988281 351.175781 160.542969 351.867188 161.167969 C 352.554688 161.789062 353.179688 162.46875 353.742188 163.207031 C 354.304688 163.945312 354.796875 164.730469 355.214844 165.558594 C 355.632812 166.386719 355.972656 167.246094 356.234375 168.136719 C 356.492188 169.027344 356.671875 169.933594 356.765625 170.859375 C 356.855469 171.78125 356.867188 172.707031 356.789062 173.632812 C 356.710938 174.558594 356.550781 175.46875 356.304688 176.363281 C 356.0625 177.257812 355.738281 178.125 355.332031 178.960938 C 354.929688 179.796875 354.453125 180.585938 353.902344 181.335938 C 353.351562 182.082031 352.738281 182.773438 352.0625 183.410156 C 351.386719 184.042969 350.65625 184.613281 349.875 185.113281 C 349.09375 185.613281 348.273438 186.039062 347.410156 186.386719 C 346.550781 186.738281 345.667969 187.003906 344.757812 187.191406 L 344.757812 193.546875 L 332.660156 193.546875 L 332.660156 187.191406 C 331.8125 187.019531 330.988281 186.773438 330.183594 186.460938 C 329.375 186.144531 328.605469 185.765625 327.863281 185.316406 C 327.125 184.871094 326.425781 184.363281 325.773438 183.796875 C 325.121094 183.230469 324.519531 182.609375 323.972656 181.941406 C 323.425781 181.269531 322.941406 180.558594 322.515625 179.804688 C 322.089844 179.054688 321.734375 178.269531 321.441406 177.453125 C 321.152344 176.640625 320.933594 175.804688 320.785156 174.953125 C 320.636719 174.101562 320.566406 173.242188 320.566406 172.378906 L 332.660156 172.378906 C 332.660156 172.78125 332.738281 173.164062 332.890625 173.535156 C 333.042969 173.90625 333.261719 174.234375 333.546875 174.515625 C 333.832031 174.800781 334.15625 175.019531 334.527344 175.171875 C 334.898438 175.328125 335.285156 175.402344 335.683594 175.402344 L 341.734375 175.402344 C 342.136719 175.402344 342.519531 175.328125 342.890625 175.171875 C 343.261719 175.019531 343.589844 174.800781 343.871094 174.515625 C 344.15625 174.234375 344.375 173.90625 344.527344 173.535156 C 344.679688 173.164062 344.757812 172.78125 344.757812 172.378906 C 344.757812 171.976562 344.679688 171.59375 344.527344 171.222656 C 344.375 170.851562 344.15625 170.523438 343.871094 170.242188 C 343.589844 169.957031 343.261719 169.738281 342.890625 169.585938 C 342.519531 169.429688 342.136719 169.355469 341.734375 169.355469 L 335.683594 169.355469 C 334.757812 169.355469 333.835938 169.269531 332.925781 169.097656 C 332.011719 168.925781 331.121094 168.675781 330.257812 168.339844 C 329.390625 168.007812 328.5625 167.597656 327.773438 167.109375 C 326.980469 166.625 326.242188 166.070312 325.554688 165.445312 C 324.867188 164.824219 324.238281 164.140625 323.675781 163.40625 C 323.113281 162.667969 322.625 161.882812 322.203125 161.054688 C 321.785156 160.226562 321.445312 159.367188 321.1875 158.476562 C 320.925781 157.585938 320.75 156.675781 320.65625 155.753906 C 320.5625 154.832031 320.554688 153.90625 320.632812 152.980469 C 320.707031 152.054688 320.867188 151.144531 321.113281 150.25 C 321.359375 149.355469 321.683594 148.488281 322.085938 147.652344 C 322.488281 146.816406 322.964844 146.027344 323.515625 145.277344 C 324.066406 144.53125 324.679688 143.839844 325.355469 143.203125 C 326.035156 142.570312 326.761719 142 327.546875 141.5 C 328.328125 141 329.148438 140.574219 330.007812 140.226562 C 330.867188 139.875 331.753906 139.609375 332.660156 139.421875 L 332.660156 133.066406 L 344.757812 133.066406 L 344.757812 139.421875 C 345.605469 139.59375 346.433594 139.839844 347.238281 140.152344 C 348.042969 140.46875 348.816406 140.847656 349.554688 141.296875 C 350.296875 141.742188 350.992188 142.25 351.644531 142.816406 C 352.296875 143.382812 352.898438 144.003906 353.445312 144.671875 C 353.992188 145.34375 354.480469 146.054688 354.902344 146.808594 C 355.328125 147.558594 355.6875 148.34375 355.976562 149.160156 C 356.265625 149.972656 356.484375 150.804688 356.632812 151.660156 C 356.78125 152.511719 356.855469 153.367188 356.855469 154.234375 L 344.757812 154.234375 C 344.757812 153.832031 344.679688 153.445312 344.527344 153.078125 C 344.375 152.707031 344.15625 152.378906 343.871094 152.09375 C 343.589844 151.8125 343.261719 151.59375 342.890625 151.441406 C 342.519531 151.285156 342.136719 151.210938 341.734375 151.210938 L 335.683594 151.210938 C 335.285156 151.210938 334.898438 151.285156 334.527344 151.441406 C 334.15625 151.59375 333.832031 151.8125 333.546875 152.09375 C 333.261719 152.378906 333.042969 152.707031 332.890625 153.078125 C 332.738281 153.445312 332.660156 153.832031 332.660156 154.234375 C 332.660156 154.636719 332.738281 155.019531 332.890625 155.390625 C 333.042969 155.761719 333.261719 156.089844 333.546875 156.371094 C 333.832031 156.65625 334.15625 156.875 334.527344 157.027344 C 334.898438 157.179688 335.285156 157.257812 335.683594 157.257812 Z M 335.683594 157.257812 " fill-opacity="1" fill-rule="nonzero"/><path fill="#66b2b2" d="M 277.421875 75.835938 L 294.253906 100.960938 C 294.476562 101.289062 294.726562 101.59375 295.007812 101.875 C 295.289062 102.15625 295.59375 102.40625 295.925781 102.628906 C 296.257812 102.847656 296.605469 103.035156 296.972656 103.183594 C 297.339844 103.335938 297.71875 103.449219 298.109375 103.527344 C 298.496094 103.605469 298.890625 103.644531 299.289062 103.640625 C 299.6875 103.640625 300.078125 103.601562 300.46875 103.523438 C 300.859375 103.445312 301.238281 103.332031 301.605469 103.179688 C 301.972656 103.023438 302.320312 102.839844 302.648438 102.617188 L 346.507812 73.222656 L 354.929688 85.6875 L 372.300781 48.386719 L 331.214844 50.605469 L 339.726562 63.199219 L 300.9375 89.207031 L 284.097656 64.082031 C 283.878906 63.753906 283.625 63.449219 283.34375 63.167969 C 283.0625 62.886719 282.757812 62.636719 282.429688 62.417969 C 282.097656 62.195312 281.75 62.011719 281.382812 61.859375 C 281.015625 61.707031 280.636719 61.59375 280.246094 61.515625 C 279.859375 61.441406 279.464844 61.402344 279.066406 61.402344 C 278.671875 61.402344 278.277344 61.441406 277.886719 61.519531 C 277.5 61.597656 277.121094 61.714844 276.753906 61.867188 C 276.386719 62.019531 276.039062 62.203125 275.710938 62.425781 L 220.441406 99.464844 L 227.175781 109.519531 Z M 277.421875 75.835938 " fill-opacity="1" fill-rule="nonzero"/><g clip-path="url(#96d882de41)"><path fill="#66b2b2" d="M 147.320312 184.664062 L 194.996094 184.664062 L 194.996094 190.335938 L 147.320312 190.335938 Z M 147.320312 184.664062 " fill-opacity="1" fill-rule="nonzero"/></g></svg>