<svg xmlns="http://www.w3.org/2000/svg" xmlns:xlink="http://www.w3.org/1999/xlink" width="600" zoomAndPan="magnify" viewBox="0 0 450 404.99999" height="540" preserveAspectRatio="xMidYMid meet" version="1.0"><defs><g/><clipPath id="d40fa03a01"><path d="M 31.921875 63 L 360 63 L 360 375.507812 L 31.921875 375.507812 Z M 31.921875 63 " clip-rule="nonzero"/></clipPath><clipPath id="44372334ea"><path d="M 332.355469 50.792969 L 418.058594 50.792969 L 418.058594 203.578125 L 332.355469 203.578125 Z M 332.355469 50.792969 " clip-rule="nonzero"/></clipPath><clipPath id="2aea338008"><path d="M 0 359.882812 L 45 359.882812 L 45 404.882812 L 0 404.882812 Z M 0 359.882812 " clip-rule="nonzero"/></clipPath><clipPath id="87c5c5e576"><path d="M 404.882812 359.992188 L 449.882812 359.992188 L 449.882812 404.992188 L 404.882812 404.992188 Z M 404.882812 359.992188 " clip-rule="nonzero"/></clipPath><clipPath id="0e1efdb0f7"><path d="M 404.914062 0.464844 L 449.914062 0.464844 L 449.914062 45.464844 L 404.914062 45.464844 Z M 404.914062 0.464844 " clip-rule="nonzero"/></clipPath><clipPath id="e71f429fcb"><path d="M 50.820312 261 L 79.28125 261 L 79.28125 290.652344 L 50.820312 290.652344 Z M 50.820312 261 " clip-rule="nonzero"/></clipPath><clipPath id="ad55011ee0"><path d="M 57 196.519531 L 75 196.519531 L 75 214 L 57 214 Z M 57 196.519531 " clip-rule="nonzero"/></clipPath><clipPath id="bade76c99d"><path d="M 61.449219 200.3125 L 70 200.3125 L 70 209 L 61.449219 209 Z M 61.449219 200.3125 " clip-rule="nonzero"/></clipPath><clipPath id="0a89ea1f13"><path d="M 0.519531 0.0507812 L 45.519531 0.0507812 L 45.519531 45.050781 L 0.519531 45.050781 Z M 0.519531 0.0507812 " clip-rule="nonzero"/></clipPath><clipPath id="f2f727d668"><path d="M 33.742188 11.21875 L 41 11.21875 L 41 18.71875 L 33.742188 18.71875 Z M 33.742188 11.21875 " clip-rule="nonzero"/></clipPath></defs><g clip-path="url(#d40fa03a01)"><path fill="#66b2b2" d="M 217.914062 375.707031 C 203.800781 375.707031 189.046875 370.230469 172.863281 358.976562 C 159.03125 349.363281 146.734375 337.355469 135.507812 325.808594 C 106.398438 295.871094 79.742188 236.054688 71.667969 212.441406 C 68.828125 213.984375 65.464844 214.09375 62.113281 212.734375 C 57.1875 210.738281 52.46875 205.789062 48.09375 198.027344 C 42.808594 188.652344 38.160156 175.34375 34.292969 158.46875 C 28.136719 131.65625 35.511719 125.96875 38.96875 124.769531 C 42.085938 123.6875 45.894531 124.640625 49.695312 127.460938 C 53.453125 130.246094 56.875 134.632812 59.328125 139.808594 C 60.800781 143.238281 62.746094 144.734375 63.832031 144.402344 C 65.320312 143.953125 66.449219 140.167969 64.753906 130.988281 C 63.988281 126.835938 64.074219 124.332031 65.03125 123.109375 C 65.449219 122.578125 66.011719 122.292969 66.703125 122.246094 C 68.425781 122.144531 70.203125 123.921875 72.890625 126.617188 C 78.304688 132.035156 86.480469 140.230469 101.148438 140.074219 L 103.820312 140.042969 L 101.445312 141.269531 C 101.386719 141.300781 97.082031 143.542969 93.808594 146.554688 C 97.195312 144.109375 100.558594 142.714844 104.453125 142.992188 L 106.46875 143.132812 L 104.734375 144.164062 C 104.542969 144.28125 104.34375 144.402344 104.132812 144.519531 C 101.636719 145.992188 98.660156 147.746094 97.433594 150.855469 C 100.355469 147.457031 104.445312 145.300781 108.121094 145.398438 L 110.65625 145.460938 L 108.386719 146.597656 C 106.074219 147.753906 104.367188 150.289062 103.703125 152.65625 C 106.683594 148.527344 111.351562 146.226562 114.976562 146.042969 L 119.042969 145.84375 L 115.234375 147.273438 C 112.890625 148.148438 111.257812 151.128906 110.730469 154.113281 C 113.148438 150.257812 115.519531 147.863281 120.492188 147.183594 L 123.484375 146.777344 L 120.910156 148.355469 C 119.601562 149.152344 118.027344 151.984375 117.292969 154.691406 C 119.296875 151.269531 122.25 148.601562 125.28125 147.636719 L 127.53125 146.925781 L 125.941406 148.667969 C 125.0625 149.636719 124.195312 151.90625 123.804688 154.097656 C 125.238281 150.957031 127.589844 148.085938 130.859375 147.457031 L 133.027344 147.039062 L 131.40625 148.542969 C 129.753906 150.082031 129.007812 153.019531 129.441406 155.785156 C 131.292969 151.417969 132.917969 148.046875 136.148438 147.144531 L 137.6875 146.714844 L 136.859375 148.085938 C 135.546875 150.246094 134.335938 153.226562 135.246094 155.96875 C 136.535156 151.351562 138.375 146.894531 141.796875 145.855469 L 143.652344 145.289062 L 142.488281 146.839844 C 140.726562 149.191406 140.542969 150.726562 141.210938 152.140625 C 141.988281 148.054688 143.867188 145.8125 147.4375 144.570312 L 149.21875 143.949219 L 148.171875 145.519531 C 147.335938 146.777344 147.121094 148.605469 147.535156 150.546875 C 147.550781 150.503906 147.5625 150.464844 147.582031 150.425781 C 148.628906 147.425781 149.824219 144.023438 154.003906 143.246094 L 155.328125 143.003906 L 154.675781 144.179688 C 153.628906 146.0625 152.863281 147.660156 153.050781 149.566406 C 153.066406 149.519531 153.078125 149.472656 153.097656 149.425781 C 154.328125 145.40625 155.007812 143.1875 160.636719 142.117188 L 163.074219 141.652344 L 161.160156 143.226562 C 159.792969 144.347656 159.1875 145.449219 158.964844 146.78125 C 161.1875 144.019531 164.757812 141.835938 168.621094 140.988281 C 171.882812 140.265625 174.964844 140.566406 177.5 141.824219 C 174.667969 135.9375 170.332031 132.523438 163.992188 131.15625 C 157.527344 129.757812 149.675781 130.511719 140.582031 131.378906 C 121.359375 133.21875 97.445312 135.507812 73.867188 117.757812 L 72.09375 116.417969 L 74.308594 116.621094 C 83.441406 117.449219 100.058594 111.746094 111.511719 106.609375 C 120.894531 102.40625 130.363281 100.402344 139.65625 100.652344 C 148.097656 100.882812 156.113281 103.03125 162.835938 106.878906 C 172.519531 112.410156 178.867188 121.011719 180.445312 130.652344 C 182.1875 128.058594 183.792969 123.476562 183.964844 117.894531 C 184.128906 112.707031 183.109375 105 177.316406 97.746094 C 168.21875 86.359375 153.117188 78.851562 135.878906 77.15625 C 125.730469 76.15625 114.945312 77.132812 103.828125 80.058594 C 91.398438 83.335938 78.550781 89.058594 65.652344 97.078125 L 64.429688 97.839844 L 64.695312 96.425781 C 66.632812 86.140625 73.929688 77.914062 86.386719 71.976562 C 96.253906 67.265625 109.316406 64.183594 123.167969 63.292969 C 141.132812 62.132812 157.765625 64.640625 171.265625 70.542969 C 183.640625 75.949219 192.960938 84.117188 197.511719 93.535156 C 204.199219 107.390625 204.402344 140.652344 204.503906 158.523438 C 204.515625 160.433594 204.527344 162.179688 204.546875 163.71875 C 204.855469 191.695312 196.085938 206.277344 190.847656 214.988281 C 190.394531 215.742188 189.964844 216.453125 189.570312 217.125 C 185.15625 224.675781 185.097656 231.3125 189.429688 234.875 C 192.6875 237.558594 194.5 236.277344 196.597656 234.789062 C 198.152344 233.6875 199.914062 232.445312 202.214844 233.332031 C 203.734375 233.917969 205.121094 234.925781 206.585938 235.996094 C 210.695312 238.988281 214.574219 241.816406 221.445312 235.753906 C 224.078125 233.429688 226.152344 232.453125 228.171875 232.578125 C 230.921875 232.761719 233.398438 234.984375 236.273438 238.269531 L 237.015625 239.121094 L 235.902344 239.3125 C 227.609375 240.734375 221.84375 244.324219 218.777344 249.984375 C 215.074219 256.796875 216.246094 264.96875 218.363281 269.894531 L 217.203125 270.394531 C 214.96875 265.207031 213.746094 256.59375 217.664062 249.378906 C 220.78125 243.621094 226.46875 239.886719 234.574219 238.269531 C 231.824219 235.257812 229.910156 233.960938 228.089844 233.84375 C 226.429688 233.738281 224.644531 234.617188 222.28125 236.703125 C 214.648438 243.4375 209.96875 240.03125 205.839844 237.019531 C 204.445312 236 203.125 235.039062 201.757812 234.515625 C 200.089844 233.871094 198.8125 234.773438 197.328125 235.824219 C 195.238281 237.308594 192.628906 239.152344 188.621094 235.851562 C 183.773438 231.863281 183.722656 224.621094 188.480469 216.484375 C 188.875 215.808594 189.304688 215.09375 189.761719 214.335938 C 194.933594 205.738281 203.582031 191.347656 203.28125 163.730469 C 203.261719 162.191406 203.25 160.445312 203.238281 158.53125 C 203.136719 140.761719 202.933594 107.683594 196.371094 94.085938 C 191.953125 84.9375 182.855469 76.988281 170.753906 71.703125 C 157.441406 65.882812 141.011719 63.410156 123.25 64.558594 C 109.558594 65.4375 96.660156 68.480469 86.929688 73.117188 C 75.457031 78.59375 68.5 86.027344 66.25 95.222656 C 78.832031 87.542969 91.355469 82.03125 103.507812 78.835938 C 114.769531 75.867188 125.703125 74.878906 136.003906 75.894531 C 153.582031 77.621094 168.996094 85.300781 178.304688 96.957031 C 184.339844 104.511719 185.402344 112.535156 185.234375 117.933594 C 185.046875 123.960938 183.183594 129.738281 180.488281 132.648438 L 179.546875 133.667969 L 179.390625 132.289062 C 178.296875 122.457031 172.035156 113.589844 162.207031 107.980469 C 155.664062 104.238281 147.851562 102.144531 139.625 101.917969 C 130.519531 101.667969 121.238281 103.636719 112.03125 107.765625 C 108.070312 109.542969 88.640625 117.957031 76.308594 117.972656 C 98.945312 134.09375 121.917969 131.894531 140.460938 130.117188 C 158.671875 128.375 173.054688 126.996094 179.484375 143.199219 L 180.332031 145.335938 L 178.511719 143.9375 C 176.007812 142.019531 172.59375 141.410156 168.894531 142.222656 C 164.507812 143.191406 160.546875 145.976562 158.800781 149.320312 L 157.707031 151.417969 L 157.605469 149.050781 C 157.523438 147.058594 157.726562 145.40625 158.8125 143.871094 C 155.824219 144.847656 155.335938 146.449219 154.308594 149.796875 C 154.101562 150.464844 153.871094 151.226562 153.597656 152.042969 L 153.054688 153.652344 L 152.410156 152.082031 C 151.246094 149.25 151.796875 147.078125 152.855469 144.914062 C 150.488281 145.960938 149.652344 148.34375 148.773438 150.839844 C 148.554688 151.472656 148.324219 152.128906 148.074219 152.753906 L 147.480469 154.203125 L 146.894531 152.753906 C 145.984375 150.492188 145.816406 148.234375 146.375 146.402344 C 143.863281 147.746094 142.65625 149.992188 142.222656 153.941406 L 142.058594 155.453125 L 141.101562 154.269531 C 139.550781 152.351562 139.183594 150.570312 140.039062 148.503906 C 138.109375 150.625 136.910156 154.5 136.039062 157.921875 L 135.6875 159.308594 L 134.898438 158.117188 C 132.949219 155.171875 133.585938 151.886719 134.816406 149.226562 C 132.960938 150.6875 131.738281 153.585938 130.179688 157.289062 L 129.25 159.484375 L 128.699219 157.976562 C 127.660156 155.140625 127.898438 151.839844 129.160156 149.457031 C 126.457031 151.074219 124.546875 154.734375 123.757812 158.160156 L 123.179688 160.648438 L 122.527344 158.179688 C 121.929688 155.929688 122.710938 152.128906 123.871094 149.640625 C 120.917969 151.316406 118.25 154.667969 116.902344 158.535156 L 116.054688 160.972656 L 115.675781 158.421875 C 115.285156 155.792969 116.769531 151.390625 118.632812 148.867188 C 114.691406 150.027344 112.882812 152.839844 110.46875 157.023438 L 109.398438 158.878906 L 109.289062 156.738281 C 109.136719 153.734375 110.21875 150.085938 112.277344 147.839844 C 108.921875 148.921875 105.304688 151.605469 103.371094 155.679688 L 102.441406 157.664062 L 102.171875 155.488281 C 101.859375 152.921875 103.21875 149.261719 105.730469 146.929688 C 102.355469 147.746094 98.902344 150.367188 96.78125 153.910156 L 95.507812 156.027344 L 95.601562 153.558594 C 95.785156 148.761719 99.046875 146.160156 102.015625 144.316406 C 97.960938 144.824219 94.371094 147.390625 90.40625 151.03125 L 88.34375 152.921875 L 89.390625 150.324219 C 90.929688 146.507812 95.972656 143.027344 98.839844 141.296875 C 85.054688 140.601562 76.945312 132.472656 72 127.511719 C 69.726562 125.234375 67.9375 123.441406 66.78125 123.507812 C 66.449219 123.53125 66.222656 123.648438 66.035156 123.886719 C 65.550781 124.503906 65.152344 126.195312 66 130.753906 C 67.59375 139.371094 66.941406 144.785156 64.199219 145.613281 C 62.210938 146.214844 59.785156 144.09375 58.175781 140.328125 C 53.410156 130.28125 45.15625 123.964844 39.386719 125.96875 C 32.859375 128.234375 31.414062 140.28125 35.527344 158.183594 C 39.53125 175.648438 48.375 205.800781 62.589844 211.558594 C 65.828125 212.875 69.050781 212.660156 71.671875 210.960938 L 72.355469 210.519531 L 72.617188 211.296875 C 80.347656 234.285156 107.144531 294.824219 136.417969 324.929688 C 147.601562 336.425781 159.84375 348.382812 173.585938 357.941406 C 189.949219 369.3125 204.789062 374.710938 218.949219 374.429688 C 233.757812 374.140625 248.601562 368.070312 264.332031 355.867188 C 277.828125 345.394531 289.714844 332.105469 299.265625 321.421875 L 299.773438 320.859375 C 311.398438 307.933594 323.144531 291.300781 333.75 272.742188 C 343.386719 255.886719 351.90625 237.832031 358.410156 220.5 C 357.175781 219.078125 351.695312 212.578125 346.589844 203.691406 C 341.25 194.402344 335.226562 180.53125 336.867188 167.183594 L 338.121094 167.335938 C 336.523438 180.328125 342.433594 193.921875 347.675781 203.039062 C 353.378906 212.960938 359.542969 219.875 359.605469 219.941406 L 359.863281 220.226562 L 359.726562 220.585938 C 353.1875 238.089844 344.585938 256.34375 334.851562 273.371094 C 324.203125 292.003906 312.394531 308.714844 300.714844 321.703125 L 300.210938 322.269531 C 290.625 332.988281 278.695312 346.328125 265.109375 356.867188 C 249.152344 369.242188 234.0625 375.402344 218.972656 375.695312 C 218.625 375.703125 218.269531 375.707031 217.914062 375.707031 " fill-opacity="1" fill-rule="nonzero"/></g><path fill="#66b2b2" d="M 195.730469 290.820312 L 196.023438 290.53125 L 196.367188 290.757812 C 206.265625 297.324219 217.167969 299.367188 225.519531 296.226562 C 231.566406 293.953125 236.363281 292.457031 243.023438 293.9375 C 247.117188 294.847656 257.53125 295.949219 264.4375 292.484375 C 261.636719 293.332031 258.625 293.613281 255.902344 293.613281 C 254.980469 293.613281 254.097656 293.582031 253.257812 293.53125 C 247.511719 293.175781 241.046875 291.652344 236.386719 289.546875 C 230.859375 287.054688 225.503906 285.941406 220.621094 285.644531 C 220.265625 287.210938 219.558594 288.527344 218.351562 289.359375 C 211.476562 294.121094 203.328125 292.644531 197.996094 289.671875 L 197.128906 289.1875 L 198.03125 288.769531 C 201.0625 287.375 209.304688 284.15625 219.804688 284.589844 C 220.535156 279.347656 217.707031 271.441406 217.207031 270.09375 C 214.875 270.269531 212.484375 269.132812 209.960938 267.925781 C 206.730469 266.386719 203.390625 264.789062 199.667969 265.660156 C 194.960938 266.761719 189.289062 271.664062 187.066406 273.71875 C 182.359375 278.082031 168.03125 290.523438 163.523438 292.042969 L 162.472656 292.394531 C 165.40625 293.070312 171.9375 293.945312 178.46875 294.101562 C 187.273438 294.3125 193.402344 293.144531 195.730469 290.820312 " fill-opacity="1" fill-rule="nonzero"/><path fill="#66b2b2" d="M 199.410156 289.269531 C 204.460938 291.753906 211.664062 292.761719 217.773438 288.527344 C 218.714844 287.875 219.296875 286.84375 219.613281 285.589844 C 210.355469 285.242188 202.917969 287.777344 199.410156 289.269531 " fill-opacity="1" fill-rule="nonzero"/><path fill="#66b2b2" d="M 220.800781 284.636719 C 225.761719 284.949219 231.191406 286.097656 236.804688 288.628906 C 245.578125 292.585938 261.484375 294.867188 269.03125 289.082031 C 268.625 289.078125 268.703125 289.148438 267.980469 289.035156 C 264.816406 288.59375 260.769531 284.601562 256.089844 279.992188 C 249.207031 273.207031 240.65625 264.78125 231.246094 264.78125 C 231.125 264.78125 231 264.78125 230.878906 264.789062 C 227.339844 264.871094 224.929688 266.394531 222.796875 267.738281 C 221.320312 268.675781 219.90625 269.566406 218.230469 269.941406 C 218.921875 271.808594 221.507812 279.277344 220.800781 284.636719 " fill-opacity="1" fill-rule="nonzero"/><path fill="#66b2b2" d="M 268.917969 290.410156 C 266.011719 293.605469 261.246094 295.417969 254.753906 295.792969 C 249.703125 296.085938 244.867188 295.386719 242.804688 294.925781 C 236.417969 293.511719 231.757812 294.964844 225.878906 297.175781 C 223.1875 298.183594 220.242188 298.679688 217.164062 298.679688 C 210.441406 298.679688 203.054688 296.324219 196.136719 291.824219 C 189.929688 297.222656 168.203125 294.789062 162.136719 293.359375 C 162.480469 293.765625 162.925781 294.269531 163.269531 294.597656 C 166.601562 297.796875 174.410156 305.28125 184.648438 311.9375 C 197.078125 320.011719 208.804688 324.105469 219.515625 324.105469 C 219.871094 324.105469 220.21875 324.101562 220.566406 324.089844 C 234.925781 323.730469 247.097656 314.925781 254.78125 307.601562 C 261.667969 301.039062 267.019531 293.3125 268.941406 290.398438 C 268.9375 290.402344 268.929688 290.40625 268.917969 290.410156 " fill-opacity="1" fill-rule="nonzero"/><path fill="#66b2b2" d="M 311.613281 133.0625 L 312.0625 134.246094 C 298.160156 139.480469 284.554688 149.921875 276.550781 161.492188 L 275.507812 160.769531 C 283.648438 149 297.480469 138.378906 311.613281 133.0625 Z M 292.058594 178.296875 L 290.847656 177.925781 C 294.238281 166.90625 302.902344 149.554688 311.539062 139.585938 L 312.496094 140.414062 C 303.96875 150.257812 295.40625 167.40625 292.058594 178.296875 Z M 264.945312 155.03125 C 265.222656 158.078125 268.207031 166.28125 273.097656 173.769531 C 277.355469 180.285156 284.316406 188.257812 293.296875 189.210938 C 299.765625 189.898438 305.265625 182.925781 308.738281 176.953125 C 312.816406 169.9375 315.90625 161.1875 317.160156 155.628906 C 318.746094 148.59375 320.023438 138.441406 318.863281 131.050781 C 318.164062 126.613281 316.667969 126.65625 312.667969 126.769531 C 312.011719 126.789062 311.265625 126.808594 310.472656 126.808594 C 309.300781 126.808594 304.691406 127.105469 298.511719 127.878906 C 290.261719 130.667969 282.15625 133.640625 276.058594 137.363281 C 267.839844 142.375 264.308594 147.988281 264.945312 155.03125 " fill-opacity="1" fill-rule="nonzero"/><path fill="#66b2b2" d="M 384.027344 160.769531 L 382.984375 161.492188 C 374.988281 149.921875 361.378906 139.480469 347.472656 134.246094 L 347.921875 133.0625 C 362.054688 138.378906 375.886719 149 384.027344 160.769531 Z M 367.476562 178.296875 C 364.128906 167.40625 355.570312 150.257812 347.042969 140.414062 L 348 139.585938 C 356.632812 149.554688 365.300781 166.90625 368.691406 177.925781 Z M 346.933594 126.769531 C 346.351562 126.753906 345.824219 126.738281 345.34375 126.738281 C 342.515625 126.738281 341.332031 127.257812 340.738281 131.050781 C 339.574219 138.441406 340.851562 148.589844 342.4375 155.628906 C 343.691406 161.1875 346.785156 169.9375 350.863281 176.953125 C 354.335938 182.925781 359.832031 189.894531 366.304688 189.210938 C 375.28125 188.257812 382.246094 180.285156 386.503906 173.769531 C 391.394531 166.28125 394.375 158.078125 394.652344 155.03125 C 395.289062 147.988281 391.761719 142.375 383.542969 137.363281 C 377.441406 133.640625 369.339844 130.667969 361.085938 127.878906 C 354.90625 127.105469 350.296875 126.808594 349.128906 126.808594 C 348.335938 126.808594 347.589844 126.789062 346.933594 126.769531 " fill-opacity="1" fill-rule="nonzero"/><path fill="#66b2b2" d="M 329.9375 118.824219 C 329.160156 118.824219 328.4375 118.542969 327.835938 118.0625 C 325.761719 125.648438 324.707031 139.910156 325.144531 154.597656 C 325.582031 169.25 327.351562 180.664062 329.800781 184.785156 C 331.710938 181.566406 333.214844 173.902344 333.988281 163.710938 C 334.117188 162.378906 334.363281 157.703125 334.457031 154.597656 C 334.890625 140.019531 333.855469 125.855469 331.8125 118.230469 C 331.261719 118.605469 330.617188 118.824219 329.9375 118.824219 " fill-opacity="1" fill-rule="nonzero"/><path fill="#66b2b2" d="M 312.289062 108.308594 L 311.386719 109.195312 C 297.613281 95.183594 280.648438 83.855469 271.007812 79.910156 L 271.488281 78.742188 C 279.109375 81.855469 287.398438 87.492188 293.003906 91.664062 C 299.957031 96.84375 306.988281 102.910156 312.289062 108.308594 Z M 311.773438 114.652344 C 293.621094 107.144531 276.519531 107.46875 270.007812 107.957031 C 269.6875 107.980469 269.558594 107.992188 269.472656 107.992188 L 269.472656 106.722656 C 269.53125 106.722656 269.683594 106.710938 269.914062 106.695312 C 276.515625 106.199219 293.851562 105.867188 312.257812 113.484375 Z M 287.617188 75.542969 C 274.226562 65.242188 266.46875 63.980469 263.480469 63.980469 C 263.367188 63.980469 263.261719 63.980469 263.160156 63.984375 C 261.101562 64.050781 259.621094 64.710938 258.871094 65.890625 C 256.777344 69.203125 258.972656 72.988281 261.523438 77.371094 C 262.777344 79.527344 264.070312 81.757812 264.910156 84.074219 C 268.496094 93.960938 265.929688 98.683594 263.449219 103.25 C 262.742188 104.539062 262.019531 105.878906 261.457031 107.308594 C 259.878906 111.316406 260.105469 114.503906 262.121094 116.792969 C 265.78125 120.933594 275.488281 122.46875 290.195312 121.230469 C 301.472656 120.277344 313.753906 117.859375 321.78125 115.84375 C 320.992188 114.132812 318.738281 109.347656 315.308594 103.113281 C 305.863281 91.726562 296.453125 82.347656 287.617188 75.542969 " fill-opacity="1" fill-rule="nonzero"/><path fill="#66b2b2" d="M 366.53125 91.664062 C 372.144531 87.492188 380.425781 81.855469 388.050781 78.742188 L 388.527344 79.910156 C 378.886719 83.855469 361.921875 95.183594 348.152344 109.195312 L 347.246094 108.308594 C 352.546875 102.910156 359.578125 96.84375 366.53125 91.664062 Z M 390.0625 106.722656 L 390.0625 107.992188 C 389.980469 107.992188 389.847656 107.980469 389.527344 107.957031 C 383.015625 107.46875 365.914062 107.144531 347.761719 114.652344 L 347.277344 113.484375 C 365.683594 105.867188 383.023438 106.199219 389.621094 106.695312 C 389.855469 106.710938 390.003906 106.722656 390.0625 106.722656 Z M 369.402344 121.230469 C 384.109375 122.46875 393.820312 120.933594 397.476562 116.792969 C 399.496094 114.503906 399.71875 111.316406 398.140625 107.308594 C 397.582031 105.878906 396.851562 104.539062 396.152344 103.246094 C 393.671875 98.683594 391.105469 93.960938 394.6875 84.074219 C 395.53125 81.757812 396.824219 79.527344 398.078125 77.371094 C 400.625 72.988281 402.824219 69.203125 400.730469 65.890625 C 399.980469 64.710938 398.5 64.050781 396.441406 63.984375 C 393.710938 63.894531 385.882812 64.847656 371.984375 75.542969 C 363.148438 82.347656 353.738281 91.730469 344.289062 103.113281 C 340.859375 109.347656 338.605469 114.132812 337.816406 115.84375 C 345.847656 117.855469 358.128906 120.277344 369.402344 121.230469 " fill-opacity="1" fill-rule="nonzero"/><g clip-path="url(#44372334ea)"><path fill="#66b2b2" d="M 335.722656 154.632812 C 335.628906 157.765625 335.476562 160.738281 335.273438 163.519531 C 337.027344 167.878906 349.925781 199.078125 360.996094 202.902344 C 364.980469 204.28125 370.921875 202.515625 377.726562 197.9375 C 384.273438 193.53125 391.039062 186.847656 396.296875 179.589844 C 401.25 172.746094 404.605469 165.820312 406 159.570312 C 407.582031 152.46875 406.621094 146.542969 403.136719 141.960938 C 399.460938 137.125 389.558594 132.992188 374.503906 130.023438 C 372.140625 129.558594 369.8125 129.148438 367.585938 128.800781 C 373.722656 131.015625 379.519531 133.425781 384.199219 136.28125 C 392.757812 141.5 396.59375 147.671875 395.914062 155.148438 C 395.355469 161.351562 384.132812 188.589844 366.4375 190.472656 C 366.097656 190.507812 365.761719 190.523438 365.425781 190.523438 C 360.09375 190.523438 354.707031 186.082031 349.769531 177.589844 C 345.621094 170.460938 342.480469 161.558594 341.207031 155.90625 C 339.589844 148.753906 338.292969 138.421875 339.488281 130.855469 C 340.359375 125.316406 342.847656 125.386719 346.96875 125.503906 C 347.648438 125.523438 348.355469 125.542969 349.128906 125.542969 C 349.980469 125.542969 352.214844 125.671875 355.339844 125.964844 C 350.902344 124.492188 346.339844 122.976562 342.089844 121.371094 L 336.738281 119.351562 L 342.402344 120.148438 C 348.003906 120.941406 353.113281 121.765625 358.058594 122.566406 C 369.988281 124.5 380.289062 126.164062 390.792969 126.164062 C 401.398438 126.164062 407.882812 123.40625 410.066406 117.964844 C 412.257812 112.511719 410.578125 107.019531 408.957031 101.710938 C 408.335938 99.6875 407.699219 97.597656 407.277344 95.53125 C 405.492188 86.730469 406.914062 80.546875 412.167969 74.179688 C 416.90625 68.441406 418.800781 63.496094 417.796875 59.472656 C 416.726562 55.183594 412.5625 53.273438 411.734375 52.933594 C 402.890625 49.285156 393.511719 50.308594 383.855469 55.984375 C 376.054688 60.566406 368.066406 68.167969 360.09375 78.5625 C 355.292969 84.832031 351.078125 91.386719 347.628906 97.242188 C 355.679688 88.046875 363.652344 80.363281 371.210938 74.542969 C 381.226562 66.832031 390.4375 62.519531 396.480469 62.71875 C 398.980469 62.800781 400.816406 63.664062 401.800781 65.214844 C 404.304688 69.175781 401.8125 73.464844 399.171875 78.007812 C 397.949219 80.113281 396.683594 82.292969 395.878906 84.507812 C 392.492188 93.855469 394.808594 98.125 397.265625 102.644531 C 397.984375 103.96875 398.730469 105.339844 399.324219 106.847656 C 401.085938 111.328125 400.785156 114.957031 398.425781 117.628906 C 394.4375 122.148438 384.636719 123.78125 369.300781 122.492188 C 357.59375 121.507812 344.820312 118.945312 336.769531 116.882812 L 336.046875 116.699219 L 336.347656 116.015625 C 336.382812 115.9375 337.710938 112.941406 340.113281 108.269531 C 337.730469 111.289062 335.34375 114.429688 332.976562 117.679688 C 335.121094 125.472656 336.171875 139.578125 335.722656 154.632812 " fill-opacity="1" fill-rule="nonzero"/></g><path fill="#66b2b2" d="M 329.9375 117.808594 C 331.476562 117.808594 332.726562 116.234375 332.726562 114.304688 C 332.726562 112.371094 331.476562 110.796875 329.9375 110.796875 C 328.398438 110.796875 327.148438 112.371094 327.148438 114.304688 C 327.148438 116.234375 328.398438 117.808594 329.9375 117.808594 " fill-opacity="1" fill-rule="nonzero"/><path fill="#66b2b2" d="M 323.253906 116.015625 L 323.554688 116.699219 L 322.832031 116.882812 C 314.777344 118.945312 302.003906 121.507812 290.300781 122.492188 C 274.964844 123.785156 265.164062 122.148438 261.171875 117.628906 C 258.8125 114.957031 258.515625 111.328125 260.277344 106.847656 C 260.867188 105.339844 261.613281 103.96875 262.335938 102.644531 C 264.789062 98.125 267.109375 93.855469 263.722656 84.507812 C 262.914062 82.292969 261.648438 80.113281 260.425781 78.007812 C 257.785156 73.464844 255.292969 69.175781 257.800781 65.214844 C 258.78125 63.664062 260.621094 62.800781 263.121094 62.71875 C 269.164062 62.523438 278.371094 66.832031 288.390625 74.542969 C 295.949219 80.363281 303.917969 88.046875 311.96875 97.242188 C 308.515625 91.378906 304.300781 84.820312 299.492188 78.546875 C 291.527344 68.152344 283.53125 60.558594 275.738281 55.980469 C 266.085938 50.308594 256.707031 49.285156 247.863281 52.933594 C 247.039062 53.273438 242.871094 55.183594 241.804688 59.472656 C 240.796875 63.496094 242.691406 68.441406 247.429688 74.179688 C 252.691406 80.546875 254.105469 86.730469 252.320312 95.53125 C 251.902344 97.597656 251.261719 99.6875 250.644531 101.710938 C 247.34375 112.511719 248.457031 115.28125 249.535156 117.964844 C 251.714844 123.40625 258.203125 126.164062 268.808594 126.164062 C 279.308594 126.164062 289.613281 124.5 301.539062 122.566406 C 306.484375 121.765625 311.597656 120.941406 317.195312 120.148438 L 322.855469 119.351562 L 317.507812 121.371094 C 313.257812 122.976562 308.699219 124.492188 304.257812 125.964844 C 307.378906 125.671875 309.617188 125.542969 310.472656 125.542969 C 311.246094 125.542969 311.949219 125.523438 312.628906 125.503906 C 316.753906 125.386719 319.242188 125.316406 320.113281 130.855469 C 321.304688 138.421875 320.007812 148.753906 318.394531 155.90625 C 317.121094 161.558594 313.976562 170.460938 309.832031 177.589844 C 304.578125 186.617188 298.816406 191.070312 293.160156 190.472656 C 275.46875 188.589844 264.246094 161.351562 263.683594 155.148438 C 263.007812 147.671875 266.839844 141.5 275.398438 136.28125 C 280.078125 133.425781 285.878906 131.015625 292.015625 128.800781 C 289.789062 129.148438 287.460938 129.558594 285.097656 130.023438 C 270.042969 132.992188 260.140625 137.125 256.464844 141.960938 C 252.871094 146.6875 251.964844 152.855469 253.777344 160.289062 C 255.371094 166.832031 259.011719 174.007812 264.304688 181.050781 C 269.589844 188.074219 276.226562 194.457031 282.515625 198.554688 C 289.074219 202.832031 294.78125 204.378906 298.582031 202.910156 C 307.449219 199.488281 322.027344 170.484375 324.300781 163.191406 C 324.109375 160.503906 323.964844 157.644531 323.878906 154.632812 C 323.429688 139.578125 324.480469 125.472656 326.621094 117.679688 C 324.25 114.429688 321.871094 111.289062 319.488281 108.273438 C 321.886719 112.941406 323.222656 115.9375 323.253906 116.015625 " fill-opacity="1" fill-rule="nonzero"/><path fill="#66b2b2" d="M 326.835938 108.199219 C 325.613281 99.167969 323.007812 85.554688 319.371094 74.441406 C 316.203125 64.777344 311.070312 53.425781 304.550781 54.226562 L 304.394531 52.96875 C 310.308594 52.242188 315.753906 59.335938 320.574219 74.050781 C 324.238281 85.242188 326.863281 98.945312 328.09375 108.03125 L 326.835938 108.199219 " fill-opacity="1" fill-rule="nonzero"/><path fill="#66b2b2" d="M 332.335938 108.199219 L 331.082031 108.03125 C 332.316406 98.945312 334.941406 85.242188 338.601562 74.050781 C 343.421875 59.335938 348.859375 52.242188 354.785156 52.96875 L 354.628906 54.226562 C 348.105469 53.417969 342.972656 64.777344 339.808594 74.441406 C 336.171875 85.554688 333.5625 99.167969 332.335938 108.199219 " fill-opacity="1" fill-rule="nonzero"/><g clip-path="url(#2aea338008)"><path fill="#231f20" d="M 45 404.882812 L 0.398438 404.882812 C 0.179688 404.882812 0 404.707031 0 404.488281 L 0 359.882812 L 0.796875 359.882812 L 0.796875 404.089844 L 45 404.089844 Z M 45 404.882812 " fill-opacity="1" fill-rule="nonzero"/></g><g clip-path="url(#87c5c5e576)"><path fill="#231f20" d="M 449.882812 359.992188 L 449.882812 404.59375 C 449.882812 404.8125 449.707031 404.992188 449.488281 404.992188 L 404.882812 404.992188 L 404.882812 404.195312 L 449.089844 404.195312 L 449.089844 359.992188 Z M 449.882812 359.992188 " fill-opacity="1" fill-rule="nonzero"/></g><g clip-path="url(#0e1efdb0f7)"><path fill="#231f20" d="M 404.914062 0.464844 L 449.515625 0.464844 C 449.738281 0.464844 449.914062 0.644531 449.914062 0.863281 L 449.914062 45.464844 L 449.121094 45.464844 L 449.121094 1.261719 L 404.914062 1.261719 Z M 404.914062 0.464844 " fill-opacity="1" fill-rule="nonzero"/></g><path fill="#66b2b2" d="M 65.273438 252.804688 C 64.378906 252.804688 63.652344 254.425781 63.652344 256.429688 C 63.652344 255.308594 64.058594 254.398438 64.558594 254.398438 C 65.0625 254.398438 65.46875 255.308594 65.46875 256.429688 C 65.46875 257.550781 65.0625 258.457031 64.558594 258.457031 C 64.058594 258.457031 63.652344 257.550781 63.652344 256.429688 C 63.652344 258.429688 64.378906 260.050781 65.273438 260.050781 C 66.167969 260.050781 66.894531 258.429688 66.894531 256.429688 C 66.894531 254.425781 66.167969 252.804688 65.273438 252.804688 " fill-opacity="1" fill-rule="nonzero"/><path fill="#66b2b2" d="M 64.273438 261.777344 C 63.8125 261.421875 63.515625 260.867188 63.515625 260.238281 C 63.515625 259.160156 64.390625 258.289062 65.46875 258.289062 C 66.546875 258.289062 67.421875 259.160156 67.421875 260.238281 C 67.421875 260.902344 67.089844 261.484375 66.585938 261.835938 C 67.214844 261.902344 67.828125 262.011719 68.429688 262.160156 C 68.789062 261.605469 69 260.949219 69 260.238281 C 69 258.289062 67.417969 256.707031 65.46875 256.707031 C 63.519531 256.707031 61.9375 258.289062 61.9375 260.238281 C 61.9375 260.882812 62.113281 261.484375 62.414062 262.007812 C 63.023438 261.890625 63.640625 261.8125 64.273438 261.777344 " fill-opacity="1" fill-rule="nonzero"/><path fill="#66b2b2" d="M 65.46875 254.136719 C 64.390625 254.136719 63.515625 253.265625 63.515625 252.1875 C 63.515625 251.109375 64.390625 250.234375 65.46875 250.234375 C 66.546875 250.234375 67.421875 251.109375 67.421875 252.1875 C 67.421875 253.265625 66.546875 254.136719 65.46875 254.136719 Z M 65.46875 248.65625 C 63.519531 248.65625 61.9375 250.234375 61.9375 252.1875 C 61.9375 254.136719 63.519531 255.71875 65.46875 255.71875 C 67.417969 255.71875 69 254.136719 69 252.1875 C 69 250.234375 67.417969 248.65625 65.46875 248.65625 " fill-opacity="1" fill-rule="nonzero"/><g clip-path="url(#e71f429fcb)"><path fill="#66b2b2" d="M 76.753906 279.152344 C 75.761719 279.152344 74.957031 278.347656 74.957031 277.355469 C 74.957031 276.363281 75.761719 275.558594 76.753906 275.558594 C 77.746094 275.558594 78.550781 276.363281 78.550781 277.355469 C 78.550781 278.347656 77.746094 279.152344 76.753906 279.152344 Z M 75.453125 282.796875 C 74.460938 282.796875 73.65625 281.992188 73.65625 281 C 73.65625 280.007812 74.460938 279.203125 75.453125 279.203125 C 76.445312 279.203125 77.25 280.007812 77.25 281 C 77.25 281.992188 76.445312 282.796875 75.453125 282.796875 Z M 72.816406 286.109375 C 71.824219 286.109375 71.019531 285.304688 71.019531 284.3125 C 71.019531 283.324219 71.824219 282.519531 72.816406 282.519531 C 73.808594 282.519531 74.613281 283.324219 74.613281 284.3125 C 74.613281 285.304688 73.808594 286.109375 72.816406 286.109375 Z M 69.71875 288.742188 C 68.726562 288.742188 67.921875 287.9375 67.921875 286.945312 C 67.921875 286.25 68.328125 285.648438 68.910156 285.351562 C 67.988281 285.273438 67.265625 284.511719 67.265625 283.570312 C 67.265625 282.578125 68.070312 281.773438 69.0625 281.773438 C 70.054688 281.773438 70.859375 282.578125 70.859375 283.570312 C 70.859375 284.269531 70.453125 284.867188 69.871094 285.164062 C 70.789062 285.246094 71.515625 286.007812 71.515625 286.945312 C 71.515625 287.9375 70.710938 288.742188 69.71875 288.742188 Z M 66.101562 289.011719 C 65.109375 289.011719 64.304688 288.207031 64.304688 287.214844 C 64.304688 286.964844 64.359375 286.726562 64.449219 286.507812 C 64.222656 286.5 64.003906 286.457031 63.804688 286.371094 C 63.875 286.5625 63.917969 286.765625 63.917969 286.976562 C 63.917969 287.972656 63.113281 288.773438 62.121094 288.773438 C 61.128906 288.773438 60.324219 287.972656 60.324219 286.976562 C 60.324219 285.988281 61.128906 285.183594 62.121094 285.183594 C 62.371094 285.183594 62.605469 285.234375 62.824219 285.324219 C 62.753906 285.132812 62.710938 284.929688 62.710938 284.71875 C 62.710938 283.726562 63.511719 282.921875 64.503906 282.921875 C 65.496094 282.921875 66.300781 283.726562 66.300781 284.71875 C 66.300781 284.96875 66.25 285.207031 66.15625 285.425781 C 67.121094 285.453125 67.898438 286.242188 67.898438 287.214844 C 67.898438 288.207031 67.09375 289.011719 66.101562 289.011719 Z M 58.6875 287.363281 C 57.699219 287.363281 56.894531 286.554688 56.894531 285.566406 C 56.894531 285.464844 56.90625 285.367188 56.921875 285.273438 C 56.765625 285.316406 56.601562 285.347656 56.433594 285.347656 C 55.441406 285.347656 54.636719 284.542969 54.636719 283.550781 C 54.636719 282.558594 55.441406 281.753906 56.433594 281.753906 C 57.421875 281.753906 58.226562 282.558594 58.226562 283.550781 C 58.226562 283.652344 58.214844 283.75 58.199219 283.84375 C 58.355469 283.800781 58.519531 283.769531 58.6875 283.769531 C 58.824219 283.769531 58.953125 283.785156 59.082031 283.816406 C 58.910156 283.539062 58.808594 283.214844 58.808594 282.871094 C 58.808594 281.878906 59.613281 281.074219 60.601562 281.074219 C 61.59375 281.074219 62.398438 281.878906 62.398438 282.871094 C 62.398438 283.859375 61.59375 284.664062 60.601562 284.664062 C 60.46875 284.664062 60.335938 284.648438 60.210938 284.621094 C 60.382812 284.894531 60.484375 285.21875 60.484375 285.566406 C 60.484375 286.554688 59.683594 287.363281 58.6875 287.363281 Z M 52.210938 279.761719 C 52.210938 278.769531 53.015625 277.964844 54.003906 277.964844 C 54.996094 277.964844 55.800781 278.769531 55.800781 279.761719 C 55.800781 280.753906 54.996094 281.558594 54.003906 281.558594 C 53.015625 281.558594 52.210938 280.753906 52.210938 279.761719 Z M 51.585938 275.589844 C 51.585938 274.597656 52.386719 273.792969 53.382812 273.792969 C 54.371094 273.792969 55.175781 274.597656 55.175781 275.589844 C 55.175781 276.582031 54.371094 277.386719 53.382812 277.386719 C 52.386719 277.386719 51.585938 276.582031 51.585938 275.589844 Z M 54.453125 269.664062 C 55.445312 269.664062 56.25 270.46875 56.25 271.460938 C 56.25 272.453125 55.445312 273.257812 54.453125 273.257812 C 53.460938 273.257812 52.65625 272.453125 52.65625 271.460938 C 52.65625 270.46875 53.460938 269.664062 54.453125 269.664062 Z M 57.117188 266.546875 C 58.109375 266.546875 58.914062 267.351562 58.914062 268.34375 C 58.914062 269.332031 58.109375 270.140625 57.117188 270.140625 C 56.125 270.140625 55.320312 269.332031 55.320312 268.34375 C 55.320312 267.351562 56.125 266.546875 57.117188 266.546875 Z M 60.628906 263.78125 C 61.621094 263.78125 62.421875 264.585938 62.421875 265.578125 C 62.421875 266.566406 61.621094 267.371094 60.628906 267.371094 C 59.636719 267.371094 58.832031 266.566406 58.832031 265.578125 C 58.832031 264.585938 59.636719 263.78125 60.628906 263.78125 Z M 64.375 262.726562 C 65.367188 262.726562 66.171875 263.53125 66.171875 264.523438 C 66.171875 265.515625 65.367188 266.320312 64.375 266.320312 C 63.382812 266.320312 62.578125 265.515625 62.578125 264.523438 C 62.578125 263.53125 63.382812 262.726562 64.375 262.726562 Z M 68.246094 263.449219 C 69.238281 263.449219 70.042969 264.253906 70.042969 265.246094 C 70.042969 266.238281 69.238281 267.042969 68.246094 267.042969 C 67.253906 267.042969 66.449219 266.238281 66.449219 265.246094 C 66.449219 264.253906 67.253906 263.449219 68.246094 263.449219 Z M 72.078125 264.636719 C 73.066406 264.636719 73.871094 265.441406 73.871094 266.433594 C 73.871094 267.425781 73.066406 268.230469 72.078125 268.230469 C 71.085938 268.230469 70.28125 267.425781 70.28125 266.433594 C 70.28125 265.441406 71.085938 264.636719 72.078125 264.636719 Z M 76.597656 269.386719 C 76.597656 270.378906 75.792969 271.183594 74.800781 271.183594 C 73.808594 271.183594 73.007812 270.378906 73.007812 269.386719 C 73.007812 268.394531 73.808594 267.589844 74.800781 267.589844 C 75.792969 267.589844 76.597656 268.394531 76.597656 269.386719 Z M 71.230469 277.117188 C 71.230469 276.125 72.035156 275.324219 73.027344 275.324219 C 74.019531 275.324219 74.824219 276.125 74.824219 277.117188 C 74.824219 278.109375 74.019531 278.914062 73.027344 278.914062 C 72.035156 278.914062 71.230469 278.109375 71.230469 277.117188 Z M 71.019531 278.738281 C 72.011719 278.738281 72.816406 279.542969 72.816406 280.535156 C 72.816406 281.527344 72.011719 282.332031 71.019531 282.332031 C 70.027344 282.332031 69.222656 281.527344 69.222656 280.535156 C 69.222656 279.542969 70.027344 278.738281 71.019531 278.738281 Z M 67.390625 276.941406 C 67.390625 275.949219 68.195312 275.144531 69.1875 275.144531 C 70.179688 275.144531 70.984375 275.949219 70.984375 276.941406 C 70.984375 277.933594 70.179688 278.738281 69.1875 278.738281 C 68.195312 278.738281 67.390625 277.933594 67.390625 276.941406 Z M 66.800781 278.554688 C 67.792969 278.554688 68.597656 279.359375 68.597656 280.351562 C 68.597656 281.34375 67.792969 282.148438 66.800781 282.148438 C 65.808594 282.148438 65.003906 281.34375 65.003906 280.351562 C 65.003906 279.359375 65.808594 278.554688 66.800781 278.554688 Z M 63.671875 276.355469 C 63.671875 275.363281 64.476562 274.558594 65.46875 274.558594 C 66.460938 274.558594 67.265625 275.363281 67.265625 276.355469 C 67.265625 277.347656 66.460938 278.152344 65.46875 278.152344 C 64.476562 278.152344 63.671875 277.347656 63.671875 276.355469 Z M 62.703125 277.871094 C 63.691406 277.871094 64.496094 278.675781 64.496094 279.667969 C 64.496094 280.660156 63.691406 281.464844 62.703125 281.464844 C 61.710938 281.464844 60.90625 280.660156 60.90625 279.667969 C 60.90625 278.675781 61.710938 277.871094 62.703125 277.871094 Z M 59.503906 275.921875 C 59.503906 274.929688 60.308594 274.125 61.296875 274.125 C 62.292969 274.125 63.097656 274.929688 63.097656 275.921875 C 63.097656 276.914062 62.292969 277.71875 61.296875 277.71875 C 60.308594 277.71875 59.503906 276.914062 59.503906 275.921875 Z M 57.96875 278.046875 C 58.960938 278.046875 59.765625 278.851562 59.765625 279.84375 C 59.765625 280.835938 58.960938 281.640625 57.96875 281.640625 C 56.976562 281.640625 56.175781 280.835938 56.175781 279.84375 C 56.175781 278.851562 56.976562 278.046875 57.96875 278.046875 Z M 57.117188 274.351562 C 58.109375 274.351562 58.914062 275.15625 58.914062 276.148438 C 58.914062 277.140625 58.109375 277.945312 57.117188 277.945312 C 56.125 277.945312 55.320312 277.140625 55.320312 276.148438 C 55.320312 275.15625 56.125 274.351562 57.117188 274.351562 Z M 60.566406 271.875 C 60.566406 272.863281 59.761719 273.671875 58.769531 273.671875 C 57.777344 273.671875 56.972656 272.863281 56.972656 271.875 C 56.972656 270.882812 57.777344 270.078125 58.769531 270.078125 C 59.761719 270.078125 60.566406 270.882812 60.566406 271.875 Z M 61.855469 270.933594 C 60.863281 270.933594 60.058594 270.128906 60.058594 269.136719 C 60.058594 268.144531 60.863281 267.34375 61.855469 267.34375 C 62.847656 267.34375 63.652344 268.144531 63.652344 269.136719 C 63.652344 270.128906 62.847656 270.933594 61.855469 270.933594 Z M 65.542969 272.699219 C 65.542969 273.691406 64.738281 274.496094 63.746094 274.496094 C 62.753906 274.496094 61.949219 273.691406 61.949219 272.699219 C 61.949219 271.707031 62.753906 270.902344 63.746094 270.902344 C 64.738281 270.902344 65.542969 271.707031 65.542969 272.699219 Z M 65.957031 270.6875 C 64.960938 270.6875 64.15625 269.882812 64.15625 268.890625 C 64.15625 267.898438 64.960938 267.09375 65.957031 267.09375 C 66.949219 267.09375 67.753906 267.898438 67.753906 268.890625 C 67.753906 269.882812 66.949219 270.6875 65.957031 270.6875 Z M 69.804688 273.238281 C 69.804688 274.230469 69 275.03125 68.007812 275.03125 C 67.019531 275.03125 66.214844 274.230469 66.214844 273.238281 C 66.214844 272.242188 67.019531 271.441406 68.007812 271.441406 C 69 271.441406 69.804688 272.242188 69.804688 273.238281 Z M 72.4375 271.328125 C 73.429688 271.328125 74.234375 272.132812 74.234375 273.121094 C 74.234375 274.113281 73.429688 274.917969 72.4375 274.917969 C 71.449219 274.917969 70.644531 274.113281 70.644531 273.121094 C 70.644531 272.132812 71.449219 271.328125 72.4375 271.328125 Z M 69.949219 271.710938 C 68.957031 271.710938 68.152344 270.902344 68.152344 269.914062 C 68.152344 268.921875 68.957031 268.117188 69.949219 268.117188 C 70.941406 268.117188 71.746094 268.921875 71.746094 269.914062 C 71.746094 270.902344 70.941406 271.710938 69.949219 271.710938 Z M 78.332031 273.257812 C 78.332031 274.25 77.527344 275.054688 76.535156 275.054688 C 75.542969 275.054688 74.738281 274.25 74.738281 273.257812 C 74.738281 272.265625 75.542969 271.460938 76.535156 271.460938 C 77.527344 271.460938 78.332031 272.265625 78.332031 273.257812 Z M 65.066406 261.753906 C 57.199219 261.753906 50.820312 268.136719 50.820312 276.003906 C 50.820312 283.871094 57.199219 290.25 65.066406 290.25 C 72.9375 290.25 79.316406 283.871094 79.316406 276.003906 C 79.316406 268.136719 72.9375 261.753906 65.066406 261.753906 " fill-opacity="1" fill-rule="nonzero"/></g><path fill="#66b2b2" d="M 76.753906 279.152344 C 75.761719 279.152344 74.957031 278.347656 74.957031 277.355469 C 74.957031 276.363281 75.761719 275.558594 76.753906 275.558594 C 77.746094 275.558594 78.550781 276.363281 78.550781 277.355469 C 78.550781 278.347656 77.746094 279.152344 76.753906 279.152344 Z M 75.453125 282.796875 C 74.460938 282.796875 73.65625 281.992188 73.65625 281 C 73.65625 280.007812 74.460938 279.203125 75.453125 279.203125 C 76.445312 279.203125 77.25 280.007812 77.25 281 C 77.25 281.992188 76.445312 282.796875 75.453125 282.796875 Z M 72.816406 286.109375 C 71.824219 286.109375 71.019531 285.304688 71.019531 284.3125 C 71.019531 283.324219 71.824219 282.519531 72.816406 282.519531 C 73.808594 282.519531 74.613281 283.324219 74.613281 284.3125 C 74.613281 285.304688 73.808594 286.109375 72.816406 286.109375 Z M 69.71875 288.742188 C 68.726562 288.742188 67.921875 287.9375 67.921875 286.945312 C 67.921875 286.25 68.328125 285.648438 68.910156 285.351562 C 67.988281 285.273438 67.265625 284.511719 67.265625 283.570312 C 67.265625 282.578125 68.070312 281.773438 69.0625 281.773438 C 70.054688 281.773438 70.859375 282.578125 70.859375 283.570312 C 70.859375 284.269531 70.453125 284.867188 69.871094 285.164062 C 70.789062 285.246094 71.515625 286.007812 71.515625 286.945312 C 71.515625 287.9375 70.710938 288.742188 69.71875 288.742188 Z M 66.101562 289.011719 C 65.109375 289.011719 64.304688 288.207031 64.304688 287.214844 C 64.304688 286.964844 64.359375 286.726562 64.449219 286.507812 C 64.222656 286.5 64.003906 286.457031 63.804688 286.371094 C 63.875 286.5625 63.917969 286.765625 63.917969 286.976562 C 63.917969 287.972656 63.113281 288.773438 62.121094 288.773438 C 61.128906 288.773438 60.324219 287.972656 60.324219 286.976562 C 60.324219 285.988281 61.128906 285.183594 62.121094 285.183594 C 62.371094 285.183594 62.605469 285.234375 62.824219 285.324219 C 62.753906 285.132812 62.710938 284.929688 62.710938 284.71875 C 62.710938 283.726562 63.511719 282.921875 64.503906 282.921875 C 65.496094 282.921875 66.300781 283.726562 66.300781 284.71875 C 66.300781 284.96875 66.25 285.207031 66.15625 285.425781 C 67.121094 285.453125 67.898438 286.242188 67.898438 287.214844 C 67.898438 288.207031 67.09375 289.011719 66.101562 289.011719 Z M 58.6875 287.363281 C 57.699219 287.363281 56.894531 286.554688 56.894531 285.566406 C 56.894531 285.464844 56.90625 285.367188 56.921875 285.273438 C 56.765625 285.316406 56.601562 285.347656 56.433594 285.347656 C 55.441406 285.347656 54.636719 284.542969 54.636719 283.550781 C 54.636719 282.558594 55.441406 281.753906 56.433594 281.753906 C 57.421875 281.753906 58.226562 282.558594 58.226562 283.550781 C 58.226562 283.652344 58.214844 283.75 58.199219 283.84375 C 58.355469 283.800781 58.519531 283.769531 58.6875 283.769531 C 58.824219 283.769531 58.953125 283.785156 59.082031 283.816406 C 58.910156 283.539062 58.808594 283.214844 58.808594 282.871094 C 58.808594 281.878906 59.613281 281.074219 60.601562 281.074219 C 61.59375 281.074219 62.398438 281.878906 62.398438 282.871094 C 62.398438 283.859375 61.59375 284.664062 60.601562 284.664062 C 60.46875 284.664062 60.335938 284.648438 60.210938 284.621094 C 60.382812 284.894531 60.484375 285.21875 60.484375 285.566406 C 60.484375 286.554688 59.683594 287.363281 58.6875 287.363281 Z M 52.210938 279.761719 C 52.210938 278.769531 53.015625 277.964844 54.003906 277.964844 C 54.996094 277.964844 55.800781 278.769531 55.800781 279.761719 C 55.800781 280.753906 54.996094 281.558594 54.003906 281.558594 C 53.015625 281.558594 52.210938 280.753906 52.210938 279.761719 Z M 51.585938 275.589844 C 51.585938 274.597656 52.386719 273.792969 53.382812 273.792969 C 54.371094 273.792969 55.175781 274.597656 55.175781 275.589844 C 55.175781 276.582031 54.371094 277.386719 53.382812 277.386719 C 52.386719 277.386719 51.585938 276.582031 51.585938 275.589844 Z M 54.453125 269.664062 C 55.445312 269.664062 56.25 270.46875 56.25 271.460938 C 56.25 272.453125 55.445312 273.257812 54.453125 273.257812 C 53.460938 273.257812 52.65625 272.453125 52.65625 271.460938 C 52.65625 270.46875 53.460938 269.664062 54.453125 269.664062 Z M 57.117188 266.546875 C 58.109375 266.546875 58.914062 267.351562 58.914062 268.34375 C 58.914062 269.332031 58.109375 270.140625 57.117188 270.140625 C 56.125 270.140625 55.320312 269.332031 55.320312 268.34375 C 55.320312 267.351562 56.125 266.546875 57.117188 266.546875 Z M 60.628906 263.78125 C 61.621094 263.78125 62.421875 264.585938 62.421875 265.578125 C 62.421875 266.566406 61.621094 267.371094 60.628906 267.371094 C 59.636719 267.371094 58.832031 266.566406 58.832031 265.578125 C 58.832031 264.585938 59.636719 263.78125 60.628906 263.78125 Z M 64.375 262.726562 C 65.367188 262.726562 66.171875 263.53125 66.171875 264.523438 C 66.171875 265.515625 65.367188 266.320312 64.375 266.320312 C 63.382812 266.320312 62.578125 265.515625 62.578125 264.523438 C 62.578125 263.53125 63.382812 262.726562 64.375 262.726562 Z M 68.246094 263.449219 C 69.238281 263.449219 70.042969 264.253906 70.042969 265.246094 C 70.042969 266.238281 69.238281 267.042969 68.246094 267.042969 C 67.253906 267.042969 66.449219 266.238281 66.449219 265.246094 C 66.449219 264.253906 67.253906 263.449219 68.246094 263.449219 Z M 72.078125 264.636719 C 73.066406 264.636719 73.871094 265.441406 73.871094 266.433594 C 73.871094 267.425781 73.066406 268.230469 72.078125 268.230469 C 71.085938 268.230469 70.28125 267.425781 70.28125 266.433594 C 70.28125 265.441406 71.085938 264.636719 72.078125 264.636719 Z M 74.800781 267.589844 C 75.792969 267.589844 76.597656 268.394531 76.597656 269.386719 C 76.597656 270.378906 75.792969 271.183594 74.800781 271.183594 C 73.808594 271.183594 73.007812 270.378906 73.007812 269.386719 C 73.007812 268.394531 73.808594 267.589844 74.800781 267.589844 Z M 71.230469 277.117188 C 71.230469 276.125 72.035156 275.324219 73.027344 275.324219 C 74.019531 275.324219 74.824219 276.125 74.824219 277.117188 C 74.824219 278.109375 74.019531 278.914062 73.027344 278.914062 C 72.035156 278.914062 71.230469 278.109375 71.230469 277.117188 Z M 71.019531 278.738281 C 72.011719 278.738281 72.816406 279.542969 72.816406 280.535156 C 72.816406 281.527344 72.011719 282.332031 71.019531 282.332031 C 70.027344 282.332031 69.222656 281.527344 69.222656 280.535156 C 69.222656 279.542969 70.027344 278.738281 71.019531 278.738281 Z M 67.390625 276.941406 C 67.390625 275.949219 68.195312 275.144531 69.1875 275.144531 C 70.179688 275.144531 70.984375 275.949219 70.984375 276.941406 C 70.984375 277.933594 70.179688 278.738281 69.1875 278.738281 C 68.195312 278.738281 67.390625 277.933594 67.390625 276.941406 Z M 66.800781 278.554688 C 67.792969 278.554688 68.597656 279.359375 68.597656 280.351562 C 68.597656 281.34375 67.792969 282.148438 66.800781 282.148438 C 65.808594 282.148438 65.003906 281.34375 65.003906 280.351562 C 65.003906 279.359375 65.808594 278.554688 66.800781 278.554688 Z M 63.671875 276.355469 C 63.671875 275.363281 64.476562 274.558594 65.46875 274.558594 C 66.460938 274.558594 67.265625 275.363281 67.265625 276.355469 C 67.265625 277.347656 66.460938 278.152344 65.46875 278.152344 C 64.476562 278.152344 63.671875 277.347656 63.671875 276.355469 Z M 62.703125 277.871094 C 63.691406 277.871094 64.496094 278.675781 64.496094 279.667969 C 64.496094 280.660156 63.691406 281.464844 62.703125 281.464844 C 61.710938 281.464844 60.90625 280.660156 60.90625 279.667969 C 60.90625 278.675781 61.710938 277.871094 62.703125 277.871094 Z M 59.503906 275.921875 C 59.503906 274.929688 60.308594 274.125 61.296875 274.125 C 62.292969 274.125 63.097656 274.929688 63.097656 275.921875 C 63.097656 276.914062 62.292969 277.71875 61.296875 277.71875 C 60.308594 277.71875 59.503906 276.914062 59.503906 275.921875 Z M 57.96875 278.046875 C 58.960938 278.046875 59.765625 278.851562 59.765625 279.84375 C 59.765625 280.835938 58.960938 281.640625 57.96875 281.640625 C 56.976562 281.640625 56.175781 280.835938 56.175781 279.84375 C 56.175781 278.851562 56.976562 278.046875 57.96875 278.046875 Z M 57.117188 274.351562 C 58.109375 274.351562 58.914062 275.15625 58.914062 276.148438 C 58.914062 277.140625 58.109375 277.945312 57.117188 277.945312 C 56.125 277.945312 55.320312 277.140625 55.320312 276.148438 C 55.320312 275.15625 56.125 274.351562 57.117188 274.351562 Z M 60.566406 271.875 C 60.566406 272.863281 59.761719 273.671875 58.769531 273.671875 C 57.777344 273.671875 56.972656 272.863281 56.972656 271.875 C 56.972656 270.882812 57.777344 270.078125 58.769531 270.078125 C 59.761719 270.078125 60.566406 270.882812 60.566406 271.875 Z M 61.855469 270.933594 C 60.863281 270.933594 60.058594 270.128906 60.058594 269.136719 C 60.058594 268.144531 60.863281 267.34375 61.855469 267.34375 C 62.847656 267.34375 63.652344 268.144531 63.652344 269.136719 C 63.652344 270.128906 62.847656 270.933594 61.855469 270.933594 Z M 65.542969 272.699219 C 65.542969 273.691406 64.738281 274.496094 63.746094 274.496094 C 62.753906 274.496094 61.949219 273.691406 61.949219 272.699219 C 61.949219 271.707031 62.753906 270.902344 63.746094 270.902344 C 64.738281 270.902344 65.542969 271.707031 65.542969 272.699219 Z M 65.957031 270.6875 C 64.960938 270.6875 64.15625 269.882812 64.15625 268.890625 C 64.15625 267.898438 64.960938 267.09375 65.957031 267.09375 C 66.949219 267.09375 67.753906 267.898438 67.753906 268.890625 C 67.753906 269.882812 66.949219 270.6875 65.957031 270.6875 Z M 69.804688 273.238281 C 69.804688 274.230469 69 275.03125 68.007812 275.03125 C 67.019531 275.03125 66.214844 274.230469 66.214844 273.238281 C 66.214844 272.242188 67.019531 271.441406 68.007812 271.441406 C 69 271.441406 69.804688 272.242188 69.804688 273.238281 Z M 72.4375 271.328125 C 73.429688 271.328125 74.234375 272.132812 74.234375 273.121094 C 74.234375 274.113281 73.429688 274.917969 72.4375 274.917969 C 71.449219 274.917969 70.644531 274.113281 70.644531 273.121094 C 70.644531 272.132812 71.449219 271.328125 72.4375 271.328125 Z M 69.949219 271.710938 C 68.957031 271.710938 68.152344 270.902344 68.152344 269.914062 C 68.152344 268.921875 68.957031 268.117188 69.949219 268.117188 C 70.941406 268.117188 71.746094 268.921875 71.746094 269.914062 C 71.746094 270.902344 70.941406 271.710938 69.949219 271.710938 Z M 78.332031 273.257812 C 78.332031 274.25 77.527344 275.054688 76.535156 275.054688 C 75.542969 275.054688 74.738281 274.25 74.738281 273.257812 C 74.738281 272.265625 75.542969 271.460938 76.535156 271.460938 C 77.527344 271.460938 78.332031 272.265625 78.332031 273.257812 Z M 65.066406 262.292969 C 57.496094 262.292969 51.355469 268.429688 51.355469 276.003906 C 51.355469 283.574219 57.496094 289.714844 65.066406 289.714844 C 72.640625 289.714844 78.777344 283.574219 78.777344 276.003906 C 78.777344 268.429688 72.640625 262.292969 65.066406 262.292969 " fill-opacity="1" fill-rule="nonzero"/><path fill="#66b2b2" d="M 65.71875 224.15625 C 64.675781 224.15625 63.828125 223.308594 63.828125 222.265625 C 63.828125 221.222656 64.675781 220.375 65.71875 220.375 C 66.761719 220.375 67.605469 221.222656 67.605469 222.265625 C 67.605469 223.308594 66.761719 224.15625 65.71875 224.15625 Z M 65.71875 219.355469 C 64.109375 219.355469 62.808594 220.65625 62.808594 222.265625 C 62.808594 223.875 64.109375 225.175781 65.71875 225.175781 C 67.324219 225.175781 68.628906 223.875 68.628906 222.265625 C 68.628906 220.65625 67.324219 219.355469 65.71875 219.355469 " fill-opacity="1" fill-rule="nonzero"/><path fill="#66b2b2" d="M 65.71875 217.007812 C 64.675781 217.007812 63.828125 216.160156 63.828125 215.117188 C 63.828125 214.074219 64.675781 213.230469 65.71875 213.230469 C 66.761719 213.230469 67.605469 214.074219 67.605469 215.117188 C 67.605469 216.160156 66.761719 217.007812 65.71875 217.007812 Z M 65.71875 212.207031 C 64.109375 212.207031 62.808594 213.511719 62.808594 215.117188 C 62.808594 216.726562 64.109375 218.03125 65.71875 218.03125 C 67.324219 218.03125 68.628906 216.726562 68.628906 215.117188 C 68.628906 213.511719 67.324219 212.207031 65.71875 212.207031 " fill-opacity="1" fill-rule="nonzero"/><g clip-path="url(#ad55011ee0)"><path fill="#66b2b2" d="M 65.71875 211.519531 C 61.996094 211.519531 58.976562 208.5 58.976562 204.777344 C 58.976562 201.054688 61.996094 198.035156 65.71875 198.035156 C 69.441406 198.035156 72.460938 201.054688 72.460938 204.777344 C 72.460938 208.5 69.441406 211.519531 65.71875 211.519531 Z M 65.71875 196.671875 C 61.0625 196.671875 57.289062 200.445312 57.289062 205.101562 C 57.289062 209.757812 61.0625 213.53125 65.71875 213.53125 C 70.375 213.53125 74.148438 209.757812 74.148438 205.101562 C 74.148438 200.445312 70.375 196.671875 65.71875 196.671875 " fill-opacity="1" fill-rule="nonzero"/></g><path fill="#66b2b2" d="M 65.71875 224.09375 C 58.800781 224.09375 53.191406 230.054688 53.191406 237.410156 C 53.191406 244.765625 58.800781 250.730469 65.71875 250.730469 C 72.636719 250.730469 78.246094 244.765625 78.246094 237.410156 C 78.246094 230.054688 72.636719 224.09375 65.71875 224.09375 " fill-opacity="1" fill-rule="nonzero"/><path fill="#66b2b2" d="M 65.703125 214.925781 C 65.09375 214.925781 64.601562 216.570312 64.601562 218.59375 C 64.601562 218.929688 64.617188 219.253906 64.644531 219.558594 C 64.796875 219.492188 65.144531 219.410156 65.144531 219.410156 C 65.136719 219.152344 65.128906 218.878906 65.128906 218.59375 C 65.128906 216.910156 65.316406 215.542969 65.546875 215.542969 C 65.777344 215.542969 65.964844 216.910156 65.964844 218.59375 C 65.964844 220.28125 65.777344 221.648438 65.546875 221.648438 C 65.414062 221.648438 65.292969 221.175781 65.214844 220.445312 C 65.0625 220.480469 64.789062 220.621094 64.785156 220.625 C 64.984375 221.613281 65.320312 222.265625 65.703125 222.265625 C 66.308594 222.265625 66.800781 220.625 66.800781 218.59375 C 66.800781 216.570312 66.308594 214.925781 65.703125 214.925781 " fill-opacity="1" fill-rule="nonzero"/><g clip-path="url(#bade76c99d)"><path fill="#66b2b2" d="M 69.691406 204.433594 C 69.691406 204.703125 69.664062 204.972656 69.613281 205.238281 C 69.558594 205.503906 69.480469 205.761719 69.378906 206.011719 C 69.273438 206.261719 69.148438 206.5 68.996094 206.722656 C 68.847656 206.949219 68.675781 207.15625 68.484375 207.347656 C 68.292969 207.539062 68.085938 207.710938 67.859375 207.859375 C 67.632812 208.011719 67.398438 208.136719 67.148438 208.242188 C 66.898438 208.34375 66.640625 208.425781 66.375 208.476562 C 66.109375 208.53125 65.839844 208.554688 65.570312 208.554688 C 65.300781 208.554688 65.03125 208.53125 64.765625 208.476562 C 64.5 208.425781 64.242188 208.34375 63.992188 208.242188 C 63.742188 208.136719 63.503906 208.011719 63.28125 207.859375 C 63.054688 207.710938 62.847656 207.539062 62.65625 207.347656 C 62.464844 207.15625 62.292969 206.949219 62.140625 206.722656 C 61.992188 206.5 61.863281 206.261719 61.761719 206.011719 C 61.65625 205.761719 61.578125 205.503906 61.527344 205.238281 C 61.472656 204.972656 61.449219 204.703125 61.449219 204.433594 C 61.449219 204.164062 61.472656 203.894531 61.527344 203.628906 C 61.578125 203.363281 61.65625 203.105469 61.761719 202.855469 C 61.863281 202.605469 61.992188 202.367188 62.140625 202.144531 C 62.292969 201.917969 62.464844 201.710938 62.65625 201.519531 C 62.847656 201.328125 63.054688 201.15625 63.28125 201.007812 C 63.503906 200.855469 63.742188 200.730469 63.992188 200.625 C 64.242188 200.523438 64.5 200.445312 64.765625 200.390625 C 65.03125 200.339844 65.300781 200.3125 65.570312 200.3125 C 65.839844 200.3125 66.109375 200.339844 66.375 200.390625 C 66.640625 200.445312 66.898438 200.523438 67.148438 200.625 C 67.398438 200.730469 67.632812 200.855469 67.859375 201.007812 C 68.085938 201.15625 68.292969 201.328125 68.484375 201.519531 C 68.675781 201.710938 68.847656 201.917969 68.996094 202.144531 C 69.148438 202.367188 69.273438 202.605469 69.378906 202.855469 C 69.480469 203.105469 69.558594 203.363281 69.613281 203.628906 C 69.664062 203.894531 69.691406 204.164062 69.691406 204.433594 Z M 69.691406 204.433594 " fill-opacity="1" fill-rule="nonzero"/></g><g clip-path="url(#0a89ea1f13)"><path fill="#231f20" d="M 0.519531 45.050781 L 0.519531 0.449219 C 0.519531 0.230469 0.695312 0.0507812 0.917969 0.0507812 L 45.519531 0.0507812 L 45.519531 0.847656 L 1.316406 0.847656 L 1.316406 45.050781 Z M 0.519531 45.050781 " fill-opacity="1" fill-rule="nonzero"/></g><g clip-path="url(#f2f727d668)"><path fill="#ff3131" d="M 40.902344 14.800781 C 40.902344 15.273438 40.808594 15.730469 40.628906 16.171875 C 40.445312 16.609375 40.1875 16.996094 39.851562 17.332031 C 39.515625 17.667969 39.128906 17.925781 38.691406 18.109375 C 38.25 18.289062 37.796875 18.378906 37.320312 18.378906 C 36.84375 18.378906 36.390625 18.289062 35.949219 18.109375 C 35.511719 17.925781 35.125 17.667969 34.789062 17.332031 C 34.453125 16.996094 34.195312 16.609375 34.011719 16.171875 C 33.832031 15.730469 33.742188 15.273438 33.742188 14.800781 C 33.742188 14.324219 33.832031 13.867188 34.011719 13.429688 C 34.195312 12.992188 34.453125 12.605469 34.789062 12.269531 C 35.125 11.933594 35.511719 11.675781 35.949219 11.492188 C 36.390625 11.3125 36.84375 11.21875 37.320312 11.21875 C 37.796875 11.21875 38.25 11.3125 38.691406 11.492188 C 39.128906 11.675781 39.515625 11.933594 39.851562 12.269531 C 40.1875 12.605469 40.445312 12.992188 40.628906 13.429688 C 40.808594 13.867188 40.902344 14.324219 40.902344 14.800781 Z M 40.902344 14.800781 " fill-opacity="1" fill-rule="nonzero"/></g><g fill="#000000" fill-opacity="1"><g transform="translate(9.18353, 17.310777)"><g><path d="M 0.96875 0 L 0.96875 -7.46875 L 3.96875 -7.46875 C 4.738281 -7.46875 5.320312 -7.289062 5.71875 -6.9375 C 6.113281 -6.582031 6.3125 -6.09375 6.3125 -5.46875 C 6.3125 -5.007812 6.195312 -4.632812 5.96875 -4.34375 C 5.738281 -4.0625 5.394531 -3.84375 4.9375 -3.6875 L 4.9375 -3.578125 C 5.175781 -3.472656 5.363281 -3.320312 5.5 -3.125 C 5.644531 -2.925781 5.785156 -2.628906 5.921875 -2.234375 L 6.671875 0 L 5.140625 0 L 4.421875 -2.234375 C 4.335938 -2.460938 4.25 -2.632812 4.15625 -2.75 C 4.0625 -2.875 3.941406 -2.960938 3.796875 -3.015625 C 3.660156 -3.078125 3.472656 -3.109375 3.234375 -3.109375 L 2.453125 -3.109375 L 2.453125 0 Z M 3.796875 -4.28125 C 4.503906 -4.28125 4.859375 -4.613281 4.859375 -5.28125 C 4.859375 -5.957031 4.503906 -6.296875 3.796875 -6.296875 L 2.453125 -6.296875 L 2.453125 -4.28125 Z M 3.796875 -4.28125 "/></g></g></g><g fill="#000000" fill-opacity="1"><g transform="translate(16.167429, 17.310777)"><g><path d="M 2.453125 -3.28125 L 2.453125 -1.234375 L 6.015625 -1.234375 L 6.015625 0 L 0.96875 0 L 0.96875 -7.46875 L 5.9375 -7.46875 L 5.9375 -6.234375 L 2.453125 -6.234375 L 2.453125 -4.484375 L 5.5 -4.484375 L 5.5 -3.28125 Z M 2.453125 -3.28125 "/></g></g></g><g fill="#000000" fill-opacity="1"><g transform="translate(22.589346, 17.310777)"><g><path d="M 4.078125 0.109375 C 3.390625 0.109375 2.785156 -0.03125 2.265625 -0.3125 C 1.742188 -0.601562 1.332031 -1.035156 1.03125 -1.609375 C 0.738281 -2.179688 0.59375 -2.890625 0.59375 -3.734375 C 0.59375 -4.578125 0.738281 -5.285156 1.03125 -5.859375 C 1.332031 -6.429688 1.742188 -6.859375 2.265625 -7.140625 C 2.785156 -7.429688 3.390625 -7.578125 4.078125 -7.578125 C 4.796875 -7.578125 5.40625 -7.4375 5.90625 -7.15625 C 6.414062 -6.875 6.78125 -6.445312 7 -5.875 L 5.921875 -5.21875 L 5.78125 -5.21875 C 5.625 -5.601562 5.40625 -5.878906 5.125 -6.046875 C 4.851562 -6.222656 4.503906 -6.3125 4.078125 -6.3125 C 3.460938 -6.3125 2.976562 -6.101562 2.625 -5.6875 C 2.28125 -5.28125 2.109375 -4.628906 2.109375 -3.734375 C 2.109375 -2.847656 2.28125 -2.195312 2.625 -1.78125 C 2.976562 -1.375 3.460938 -1.171875 4.078125 -1.171875 C 5.054688 -1.171875 5.65625 -1.644531 5.875 -2.59375 L 6 -2.59375 L 7.078125 -2.015625 C 6.878906 -1.304688 6.53125 -0.773438 6.03125 -0.421875 C 5.539062 -0.0664062 4.890625 0.109375 4.078125 0.109375 Z M 4.078125 0.109375 "/></g></g></g></svg>