<svg xmlns="http://www.w3.org/2000/svg" xmlns:xlink="http://www.w3.org/1999/xlink" width="500" zoomAndPan="magnify" viewBox="0 0 375 374.999991" height="500" preserveAspectRatio="xMidYMid meet" version="1.0"><defs><clipPath id="f7af39d0b7"><path d="M 62 28 L 108 28 L 108 70.605469 L 62 70.605469 Z M 62 28 " clip-rule="nonzero"/></clipPath><clipPath id="2a78c4c041"><path d="M 114 28 L 159 28 L 159 70.605469 L 114 70.605469 Z M 114 28 " clip-rule="nonzero"/></clipPath><clipPath id="ebb2ea6771"><path d="M 166 28 L 211 28 L 211 70.605469 L 166 70.605469 Z M 166 28 " clip-rule="nonzero"/></clipPath><clipPath id="749257f5f4"><path d="M 216 28 L 261 28 L 261 70.605469 L 216 70.605469 Z M 216 28 " clip-rule="nonzero"/></clipPath><clipPath id="2c398b97dc"><path d="M 267 28 L 313 28 L 313 70.605469 L 267 70.605469 Z M 267 28 " clip-rule="nonzero"/></clipPath></defs><path fill="#66b2b2" d="M 371.597656 229.519531 L 318.542969 115.730469 C 315.859375 109.960938 308.929688 107.429688 303.15625 110.132812 L 270.511719 125.355469 C 265.761719 127.558594 263.40625 132.621094 264.136719 137.554688 C 250.855469 135.316406 229.933594 131.714844 216.617188 129.21875 C 206.109375 127.246094 195.625 128.976562 185.640625 134.074219 C 178.792969 130.3125 170.78125 129.648438 161.65625 129.140625 C 151.777344 128.558594 125.597656 137.335938 107.425781 143.953125 L 108.9375 140.738281 C 111.628906 134.96875 109.109375 128.046875 103.328125 125.355469 L 70.679688 110.132812 C 64.910156 107.429688 57.992188 109.960938 55.296875 115.730469 L 2.242188 229.519531 C -0.441406 235.277344 2.066406 242.21875 7.847656 244.890625 L 40.496094 260.132812 C 44.941406 262.199219 50.039062 261.132812 53.394531 257.882812 C 54.742188 261.65625 56.480469 265.277344 58.839844 268.203125 C 52.546875 276.351562 47.75 285.78125 49.632812 293.175781 C 51.816406 301.6875 62.996094 311.171875 74.824219 311.367188 C 74.292969 313.933594 74.222656 316.429688 74.824219 318.765625 C 77.160156 327.867188 89.871094 338.453125 102.734375 338.453125 C 105.164062 338.453125 107.449219 337.964844 109.65625 337.246094 C 109.679688 337.328125 109.667969 337.421875 109.691406 337.492188 C 111.964844 346.359375 123.820312 356.273438 136.265625 356.273438 C 137.972656 356.273438 139.632812 356.054688 141.246094 355.683594 C 141.304688 356.113281 141.316406 356.554688 141.433594 356.972656 C 143.488281 364.414062 153.914062 372.703125 164.800781 372.703125 C 170.597656 372.703125 175.726562 370.394531 179.652344 366.015625 C 181.496094 363.949219 183.042969 362.070312 184.480469 360.246094 C 194.882812 365.132812 202.871094 368.175781 207.945312 369.011719 C 210.175781 369.371094 212.355469 369.570312 214.480469 369.570312 C 226.519531 369.570312 236.855469 363.683594 243.367188 353.164062 C 254.871094 351.875 263.753906 344.480469 271.578125 329.828125 C 276.605469 328.273438 281.414062 325.324219 285 321.191406 C 288.84375 316.753906 291.039062 311.34375 291.476562 305.5625 C 299.011719 303.773438 306.039062 298.96875 309.902344 292.015625 C 314.234375 284.210938 313.199219 275.957031 307.777344 269.0625 C 312.886719 265.195312 316.347656 260.414062 318.84375 255.6875 C 321.90625 260.503906 328.039062 262.570312 333.34375 260.097656 L 365.992188 244.855469 C 371.773438 242.21875 374.292969 235.277344 371.597656 229.519531 Z M 30.917969 238.015625 C 24.195312 234.882812 21.304688 226.90625 24.425781 220.195312 C 27.574219 213.460938 35.539062 210.558594 42.261719 213.683594 C 48.980469 216.804688 51.894531 224.816406 48.773438 231.527344 C 45.625 238.25 37.652344 241.164062 30.917969 238.015625 Z M 75.207031 298.65625 C 69.183594 298.65625 62.75 292.941406 62.007812 290.019531 C 60.800781 285.292969 73.664062 268.109375 82.570312 262.582031 C 85.273438 260.886719 87.757812 260.027344 89.929688 260.027344 C 95.339844 260.027344 98.09375 265.765625 98.566406 268.539062 C 99.195312 272.125 93.507812 281.160156 81.699219 295.394531 C 79.839844 297.609375 77.785156 298.65625 75.207031 298.65625 Z M 110.621094 321.792969 C 108.425781 324.417969 105.835938 325.683594 102.734375 325.683594 C 95.375 325.683594 88.050781 318.949219 87.179688 315.570312 C 85.925781 310.695312 98.695312 293.871094 111.152344 283.980469 C 112.929688 282.574219 114.796875 281.890625 116.875 281.890625 C 122.914062 281.890625 129.03125 287.789062 129.683594 291.480469 C 130.785156 297.796875 115.601562 315.859375 110.621094 321.792969 Z M 143.359375 340.011719 C 141.363281 342.378906 139.050781 343.539062 136.265625 343.539062 C 129.777344 343.539062 122.855469 337.445312 122.042969 334.332031 C 120.894531 329.863281 132.816406 314.28125 144.425781 305.074219 C 145.808594 303.984375 147.085938 303.449219 148.375 303.449219 C 152.714844 303.449219 157.3125 309.535156 158 313.503906 C 158.613281 316.976562 155.144531 326.007812 143.359375 340.011719 Z M 170.144531 357.519531 C 165 363.195312 154.515625 356.136719 153.773438 353.757812 C 153.5625 350.15625 163.339844 338.628906 172.128906 332.125 C 173.136719 331.382812 174.078125 331 174.984375 331 C 178.164062 331 181.648438 335.226562 182.136719 337.910156 C 182.53125 339.988281 179.652344 346.917969 170.144531 357.519531 Z M 298.734375 285.851562 C 295.984375 290.808594 288.542969 295.042969 282.273438 293.292969 C 269.640625 289.679688 260.78125 280.519531 256.996094 276.597656 L 255.964844 275.527344 C 253.46875 273.03125 249.425781 273.042969 246.929688 275.539062 C 244.445312 278.046875 244.445312 282.078125 246.941406 284.574219 L 247.824219 285.464844 C 251.921875 289.703125 262.777344 300.941406 278.625 305.503906 C 278.253906 308.222656 277.210938 310.695312 275.351562 312.855469 C 272.054688 316.664062 267.433594 318.367188 264.460938 318.367188 C 260.675781 317.984375 245.363281 309 233.453125 300.859375 C 230.503906 298.851562 226.554688 299.617188 224.570312 302.53125 C 222.585938 305.445312 223.328125 309.417969 226.242188 311.414062 C 234.519531 317.058594 247.753906 325.613281 257.101562 329.304688 C 250.625 339.046875 244.851562 340.730469 239.535156 340.730469 C 234.277344 340.730469 220.34375 332.929688 212.578125 327.667969 C 209.628906 325.695312 205.679688 326.460938 203.707031 329.363281 C 201.722656 332.277344 202.488281 336.261719 205.402344 338.234375 C 208.109375 340.066406 218.90625 347.160156 228.867188 350.980469 C 224.046875 355.71875 217.652344 357.726562 210.035156 356.460938 C 207.816406 356.089844 202.605469 354.660156 191.609375 349.566406 C 195.71875 341.660156 195.023438 337.398438 194.6875 335.585938 C 193.128906 327.214844 184.839844 318.242188 174.972656 318.242188 C 173.347656 318.242188 171.792969 318.578125 170.234375 319.042969 C 170.851562 316.246094 170.980469 313.65625 170.574219 311.320312 C 168.878906 301.570312 159.324219 290.691406 148.363281 290.691406 C 146.296875 290.691406 144.277344 291.074219 142.324219 291.78125 C 142.3125 290.957031 142.394531 290.097656 142.257812 289.320312 C 140.585938 279.789062 129.378906 269.144531 116.867188 269.144531 C 114.9375 269.144531 113.09375 269.605469 111.257812 270.105469 C 111.363281 268.839844 111.339844 267.585938 111.128906 266.390625 C 109.527344 257.125 101.539062 247.28125 89.90625 247.28125 C 85.308594 247.28125 80.5625 248.800781 75.800781 251.773438 C 73.539062 253.179688 70.566406 255.570312 67.441406 258.554688 C 64.910156 254.234375 63.25 246.980469 62.460938 240.398438 L 99.695312 160.53125 C 120.941406 152.441406 152.761719 141.503906 160.925781 141.933594 C 165.917969 142.199219 169.609375 142.515625 172.675781 143.023438 C 167.113281 147.773438 161.785156 153.53125 156.804688 160.53125 C 151.859375 167.476562 146.203125 172.964844 141.210938 177.832031 C 132.96875 185.84375 125.179688 193.421875 130.691406 202.074219 C 134.5 208.050781 144.378906 215.226562 155.875 217.398438 C 158.335938 217.863281 160.808594 218.105469 163.28125 218.105469 C 172.140625 218.105469 180.871094 215.109375 188.894531 209.257812 C 199.238281 201.722656 208.886719 197.335938 217.175781 194.910156 C 217.394531 195.246094 217.523438 195.617188 217.8125 195.90625 C 220.65625 198.808594 287.636719 267.261719 296.332031 275.132812 C 300.082031 278.488281 300.859375 281.996094 298.734375 285.851562 Z M 298.746094 259.65625 C 283.199219 244.308594 246.1875 206.554688 232.371094 192.449219 C 236.238281 192.496094 239.257812 193.097656 240.917969 194.121094 C 243.9375 195.964844 247.859375 195.015625 249.707031 191.996094 C 251.539062 188.976562 250.589844 185.050781 247.582031 183.21875 C 235.773438 176.007812 208.582031 179.0625 181.382812 198.914062 C 173.953125 204.324219 166.148438 206.332031 158.265625 204.824219 C 149.988281 203.269531 144.03125 198.414062 141.964844 195.839844 C 143.070312 193.851562 147.109375 189.917969 150.140625 186.957031 C 155.246094 181.976562 161.621094 175.789062 167.242188 167.894531 C 181.589844 147.738281 197.832031 138.671875 214.273438 141.78125 C 230.792969 144.894531 259.015625 149.664062 269.917969 151.5 L 311.144531 239.886719 C 309.949219 245.25 306.839844 254.257812 298.746094 259.65625 Z M 342.933594 238.015625 C 336.199219 241.164062 328.210938 238.25 325.078125 231.527344 C 321.941406 224.816406 324.855469 216.804688 331.589844 213.683594 C 338.324219 210.558594 346.289062 213.449219 349.421875 220.195312 C 352.546875 226.90625 349.65625 234.894531 342.933594 238.015625 Z M 342.933594 238.015625 " fill-opacity="1" fill-rule="nonzero"/><g clip-path="url(#f7af39d0b7)"><path fill="#66b2b2" d="M 106.265625 43.304688 L 92.265625 41.269531 L 86 28.578125 C 85.632812 27.839844 84.414062 27.839844 84.054688 28.578125 L 77.785156 41.269531 L 63.789062 43.304688 C 63.378906 43.363281 63.035156 43.652344 62.910156 44.046875 C 62.78125 44.441406 62.886719 44.871094 63.1875 45.15625 L 73.316406 55.03125 L 70.925781 68.980469 C 70.851562 69.390625 71.019531 69.800781 71.355469 70.039062 C 71.691406 70.285156 72.136719 70.316406 72.503906 70.125 L 85.023438 63.539062 L 97.546875 70.125 C 97.703125 70.207031 97.878906 70.25 98.054688 70.25 C 98.277344 70.25 98.5 70.179688 98.691406 70.039062 C 99.023438 69.800781 99.191406 69.390625 99.117188 68.980469 L 96.730469 55.03125 L 106.863281 45.15625 C 107.164062 44.871094 107.265625 44.4375 107.140625 44.046875 C 107.011719 43.652344 106.675781 43.363281 106.265625 43.304688 Z M 106.265625 43.304688 " fill-opacity="1" fill-rule="nonzero"/></g><g clip-path="url(#2a78c4c041)"><path fill="#66b2b2" d="M 157.621094 43.304688 L 143.625 41.269531 L 137.355469 28.578125 C 136.996094 27.839844 135.773438 27.839844 135.414062 28.578125 L 129.140625 41.269531 L 115.144531 43.304688 C 114.738281 43.363281 114.398438 43.652344 114.269531 44.046875 C 114.136719 44.441406 114.246094 44.871094 114.546875 45.15625 L 124.675781 55.03125 L 122.28125 68.980469 C 122.21875 69.390625 122.378906 69.800781 122.710938 70.039062 C 123.050781 70.285156 123.496094 70.316406 123.855469 70.125 L 136.382812 63.539062 L 148.902344 70.125 C 149.058594 70.207031 149.234375 70.25 149.410156 70.25 C 149.636719 70.25 149.859375 70.179688 150.054688 70.039062 C 150.382812 69.800781 150.550781 69.390625 150.476562 68.980469 L 148.085938 55.03125 L 158.222656 45.15625 C 158.515625 44.871094 158.621094 44.4375 158.5 44.046875 C 158.371094 43.652344 158.035156 43.363281 157.621094 43.304688 Z M 157.621094 43.304688 " fill-opacity="1" fill-rule="nonzero"/></g><g clip-path="url(#ebb2ea6771)"><path fill="#66b2b2" d="M 209.507812 43.304688 L 195.511719 41.269531 L 189.246094 28.578125 C 188.882812 27.839844 187.660156 27.839844 187.300781 28.578125 L 181.035156 41.269531 L 167.035156 43.304688 C 166.625 43.363281 166.28125 43.652344 166.160156 44.046875 C 166.027344 44.441406 166.128906 44.871094 166.433594 45.15625 L 176.566406 55.03125 L 174.167969 68.980469 C 174.101562 69.390625 174.269531 69.800781 174.605469 70.039062 C 174.933594 70.285156 175.382812 70.316406 175.746094 70.125 L 188.273438 63.539062 L 200.796875 70.125 C 200.949219 70.207031 201.125 70.25 201.296875 70.25 C 201.523438 70.25 201.75 70.179688 201.9375 70.039062 C 202.265625 69.800781 202.441406 69.390625 202.367188 68.980469 L 199.976562 55.03125 L 210.109375 45.15625 C 210.40625 44.871094 210.511719 44.4375 210.386719 44.046875 C 210.261719 43.652344 209.921875 43.363281 209.507812 43.304688 Z M 209.507812 43.304688 " fill-opacity="1" fill-rule="nonzero"/></g><g clip-path="url(#749257f5f4)"><path fill="#66b2b2" d="M 259.839844 43.304688 L 245.839844 41.269531 L 239.574219 28.578125 C 239.203125 27.839844 237.984375 27.839844 237.628906 28.578125 L 231.363281 41.269531 L 217.359375 43.304688 C 216.945312 43.363281 216.613281 43.652344 216.480469 44.046875 C 216.351562 44.441406 216.457031 44.871094 216.753906 45.15625 L 226.890625 55.03125 L 224.496094 68.980469 C 224.425781 69.390625 224.589844 69.800781 224.925781 70.039062 C 225.261719 70.285156 225.707031 70.316406 226.074219 70.125 L 238.597656 63.539062 L 251.117188 70.125 C 251.277344 70.207031 251.449219 70.25 251.628906 70.25 C 251.847656 70.25 252.070312 70.179688 252.261719 70.039062 C 252.59375 69.800781 252.761719 69.390625 252.691406 68.980469 L 250.304688 55.03125 L 260.433594 45.15625 C 260.726562 44.871094 260.832031 44.4375 260.707031 44.046875 C 260.585938 43.652344 260.242188 43.363281 259.839844 43.304688 Z M 259.839844 43.304688 " fill-opacity="1" fill-rule="nonzero"/></g><g clip-path="url(#2c398b97dc)"><path fill="#66b2b2" d="M 312.0625 44.046875 C 311.933594 43.652344 311.589844 43.363281 311.183594 43.304688 L 297.183594 41.269531 L 290.917969 28.578125 C 290.554688 27.839844 289.335938 27.839844 288.96875 28.578125 L 282.710938 41.269531 L 268.707031 43.304688 C 268.296875 43.363281 267.957031 43.652344 267.832031 44.046875 C 267.699219 44.441406 267.804688 44.871094 268.105469 45.15625 L 278.238281 55.03125 L 275.847656 68.980469 C 275.777344 69.390625 275.941406 69.800781 276.28125 70.039062 C 276.613281 70.285156 277.058594 70.316406 277.421875 70.125 L 289.945312 63.539062 L 302.46875 70.125 C 302.625 70.207031 302.796875 70.25 302.972656 70.25 C 303.199219 70.25 303.421875 70.179688 303.617188 70.039062 C 303.941406 69.800781 304.113281 69.390625 304.039062 68.980469 L 301.652344 55.03125 L 311.785156 45.15625 C 312.085938 44.871094 312.1875 44.441406 312.0625 44.046875 Z M 312.0625 44.046875 " fill-opacity="1" fill-rule="nonzero"/></g></svg>