<svg xmlns="http://www.w3.org/2000/svg" xmlns:xlink="http://www.w3.org/1999/xlink" width="500" zoomAndPan="magnify" viewBox="0 0 375 374.999991" height="500" preserveAspectRatio="xMidYMid meet" version="1.0"><defs><clipPath id="42f0b17b18"><path d="M 133 143 L 242 143 L 242 344.4375 L 133 344.4375 Z M 133 143 " clip-rule="nonzero"/></clipPath><clipPath id="11a0a89450"><path d="M 185 30.9375 L 190 30.9375 L 190 64 L 185 64 Z M 185 30.9375 " clip-rule="nonzero"/></clipPath></defs><path fill="#66b2b2" d="M 53.222656 122.375 C 52.886719 114.25 46.191406 107.769531 37.984375 107.769531 L 16.664062 107.769531 C 8.457031 107.769531 1.761719 114.25 1.425781 122.375 L 1.410156 122.375 L 1.410156 150.097656 C 1.410156 153.84375 4.335938 156.90625 8.023438 157.125 L 8.023438 197.710938 C 8.023438 201.570312 11.152344 204.695312 15.011719 204.695312 C 18.867188 204.695312 21.992188 201.570312 21.992188 197.710938 L 21.992188 171.425781 C 21.992188 168.484375 24.378906 166.097656 27.324219 166.097656 C 30.269531 166.097656 32.65625 168.484375 32.65625 171.425781 L 32.65625 197.710938 C 32.65625 201.570312 35.78125 204.695312 39.636719 204.695312 C 43.496094 204.695312 46.625 201.570312 46.625 197.710938 L 46.625 157.125 C 50.3125 156.90625 53.238281 153.84375 53.238281 150.097656 L 53.238281 122.375 L 53.222656 122.375 " fill-opacity="1" fill-rule="nonzero"/><path fill="#66b2b2" d="M 27.324219 164.996094 C 30.871094 164.996094 33.757812 167.878906 33.757812 171.425781 L 33.757812 197.710938 C 33.757812 200.957031 36.394531 203.59375 39.636719 203.59375 C 42.882812 203.59375 45.523438 200.957031 45.523438 197.710938 L 45.523438 156.085938 L 46.558594 156.023438 C 49.683594 155.839844 52.136719 153.234375 52.136719 150.097656 L 52.121094 122.421875 C 51.808594 114.824219 45.597656 108.871094 37.984375 108.871094 L 16.664062 108.871094 C 9.050781 108.871094 2.839844 114.824219 2.527344 122.421875 L 2.511719 123.015625 L 2.511719 150.097656 C 2.511719 153.234375 4.964844 155.839844 8.089844 156.023438 L 9.125 156.085938 L 9.125 197.710938 C 9.125 200.957031 11.765625 203.59375 15.011719 203.59375 C 18.253906 203.59375 20.890625 200.957031 20.890625 197.710938 L 20.890625 171.425781 C 20.890625 167.878906 23.777344 164.996094 27.324219 164.996094 Z M 39.636719 205.796875 C 35.179688 205.796875 31.554688 202.171875 31.554688 197.710938 L 31.554688 171.425781 C 31.554688 169.09375 29.660156 167.199219 27.324219 167.199219 C 24.988281 167.199219 23.09375 169.09375 23.09375 171.425781 L 23.09375 197.710938 C 23.09375 202.171875 19.46875 205.796875 15.011719 205.796875 C 10.546875 205.796875 6.921875 202.171875 6.921875 197.710938 L 6.921875 158.097656 C 3.140625 157.375 0.308594 154.046875 0.308594 150.097656 L 0.308594 121.273438 L 0.402344 121.273438 C 1.273438 113.003906 8.222656 106.667969 16.664062 106.667969 L 37.984375 106.667969 C 46.425781 106.667969 53.375 113.003906 54.246094 121.273438 L 54.339844 121.273438 L 54.339844 150.097656 C 54.339844 154.046875 51.507812 157.375 47.726562 158.097656 L 47.726562 197.710938 C 47.726562 202.171875 44.101562 205.796875 39.636719 205.796875 " fill-opacity="1" fill-rule="nonzero"/><path fill="#66b2b2" d="M 42.25 90.175781 C 42.25 98.417969 35.570312 105.101562 27.324219 105.101562 C 19.078125 105.101562 12.398438 98.417969 12.398438 90.175781 C 12.398438 81.929688 19.078125 75.242188 27.324219 75.242188 C 35.570312 75.242188 42.25 81.929688 42.25 90.175781 " fill-opacity="1" fill-rule="nonzero"/><path fill="#66b2b2" d="M 27.324219 76.34375 C 19.699219 76.34375 13.5 82.550781 13.5 90.175781 C 13.5 97.796875 19.699219 104 27.324219 104 C 34.949219 104 41.148438 97.796875 41.148438 90.175781 C 41.148438 82.550781 34.949219 76.34375 27.324219 76.34375 Z M 27.324219 106.203125 C 18.484375 106.203125 11.296875 99.011719 11.296875 90.175781 C 11.296875 81.332031 18.484375 74.140625 27.324219 74.140625 C 36.164062 74.140625 43.351562 81.332031 43.351562 90.175781 C 43.351562 99.011719 36.164062 106.203125 27.324219 106.203125 " fill-opacity="1" fill-rule="nonzero"/><path fill="#66b2b2" d="M 103.035156 146.730469 C 102.617188 136.527344 94.210938 128.382812 83.902344 128.382812 L 57.113281 128.382812 C 46.804688 128.382812 38.402344 136.527344 37.980469 146.730469 L 37.960938 146.730469 L 37.960938 181.558594 C 37.960938 186.261719 41.632812 190.101562 46.265625 190.378906 L 46.265625 241.359375 C 46.265625 246.207031 50.191406 250.132812 55.035156 250.132812 C 59.882812 250.132812 63.8125 246.207031 63.8125 241.359375 L 63.8125 208.34375 C 63.8125 204.648438 66.808594 201.648438 70.507812 201.648438 C 74.207031 201.648438 77.203125 204.648438 77.203125 208.34375 L 77.203125 241.359375 C 77.203125 246.207031 81.132812 250.132812 85.980469 250.132812 C 90.824219 250.132812 94.75 246.207031 94.75 241.359375 L 94.75 190.378906 C 99.382812 190.101562 103.054688 186.261719 103.054688 181.558594 L 103.054688 146.730469 L 103.035156 146.730469 " fill-opacity="1" fill-rule="nonzero"/><path fill="#66b2b2" d="M 70.507812 200.546875 C 74.808594 200.546875 78.304688 204.042969 78.304688 208.34375 L 78.304688 241.359375 C 78.304688 245.589844 81.746094 249.03125 85.980469 249.03125 C 90.207031 249.03125 93.648438 245.589844 93.648438 241.359375 L 93.648438 189.339844 L 94.683594 189.277344 C 98.761719 189.035156 101.953125 185.644531 101.953125 181.558594 L 101.933594 146.78125 C 101.535156 137.082031 93.613281 129.484375 83.902344 129.484375 L 57.113281 129.484375 C 47.402344 129.484375 39.480469 137.082031 39.082031 146.78125 L 39.0625 147.539062 L 39.0625 181.558594 C 39.0625 185.644531 42.253906 189.035156 46.332031 189.277344 L 47.367188 189.339844 L 47.367188 241.359375 C 47.367188 245.589844 50.808594 249.03125 55.035156 249.03125 C 59.269531 249.03125 62.710938 245.589844 62.710938 241.359375 L 62.710938 208.34375 C 62.710938 204.042969 66.207031 200.546875 70.507812 200.546875 Z M 85.980469 251.234375 C 80.53125 251.234375 76.101562 246.804688 76.101562 241.359375 L 76.101562 208.34375 C 76.101562 205.257812 73.59375 202.75 70.507812 202.75 C 67.421875 202.75 64.914062 205.257812 64.914062 208.34375 L 64.914062 241.359375 C 64.914062 246.804688 60.484375 251.234375 55.035156 251.234375 C 49.59375 251.234375 45.164062 246.804688 45.164062 241.359375 L 45.164062 191.363281 C 40.429688 190.578125 36.859375 186.457031 36.859375 181.558594 L 36.859375 145.628906 L 36.949219 145.628906 C 37.910156 135.261719 46.570312 127.28125 57.113281 127.28125 L 83.902344 127.28125 C 94.445312 127.28125 103.105469 135.261719 104.066406 145.628906 L 104.15625 145.628906 L 104.15625 181.558594 C 104.15625 186.457031 100.585938 190.578125 95.851562 191.363281 L 95.851562 241.359375 C 95.851562 246.804688 91.421875 251.234375 85.980469 251.234375 " fill-opacity="1" fill-rule="nonzero"/><path fill="#66b2b2" d="M 89.257812 106.285156 C 89.257812 116.640625 80.863281 125.039062 70.507812 125.039062 C 60.152344 125.039062 51.757812 116.640625 51.757812 106.285156 C 51.757812 95.929688 60.152344 87.535156 70.507812 87.535156 C 80.863281 87.535156 89.257812 95.929688 89.257812 106.285156 " fill-opacity="1" fill-rule="nonzero"/><path fill="#66b2b2" d="M 70.507812 88.636719 C 60.777344 88.636719 52.859375 96.554688 52.859375 106.285156 C 52.859375 116.019531 60.777344 123.9375 70.507812 123.9375 C 80.238281 123.9375 88.15625 116.019531 88.15625 106.285156 C 88.15625 96.554688 80.238281 88.636719 70.507812 88.636719 Z M 70.507812 126.140625 C 59.558594 126.140625 50.65625 117.234375 50.65625 106.285156 C 50.65625 95.339844 59.558594 86.433594 70.507812 86.433594 C 81.457031 86.433594 90.359375 95.339844 90.359375 106.285156 C 90.359375 117.234375 81.457031 126.140625 70.507812 126.140625 " fill-opacity="1" fill-rule="nonzero"/><path fill="#66b2b2" d="M 162.570312 176.554688 C 162.035156 163.640625 151.402344 153.335938 138.355469 153.335938 L 104.453125 153.335938 C 91.402344 153.335938 80.769531 163.640625 80.238281 176.554688 L 80.210938 176.554688 L 80.210938 220.628906 C 80.210938 226.578125 84.859375 231.445312 90.722656 231.792969 L 90.722656 296.316406 C 90.722656 302.445312 95.695312 307.417969 101.824219 307.417969 C 107.957031 307.417969 112.925781 302.445312 112.925781 296.316406 L 112.925781 254.53125 C 112.925781 249.851562 116.722656 246.058594 121.402344 246.058594 C 126.085938 246.058594 129.878906 249.851562 129.878906 254.53125 L 129.878906 296.316406 C 129.878906 302.445312 134.847656 307.417969 140.980469 307.417969 C 147.113281 307.417969 152.082031 302.445312 152.082031 296.316406 L 152.082031 231.792969 C 157.945312 231.445312 162.59375 226.578125 162.59375 220.628906 L 162.59375 176.554688 L 162.570312 176.554688 " fill-opacity="1" fill-rule="nonzero"/><path fill="#66b2b2" d="M 121.402344 244.957031 C 126.683594 244.957031 130.980469 249.253906 130.980469 254.53125 L 130.980469 296.316406 C 130.980469 301.832031 135.464844 306.316406 140.980469 306.316406 C 146.496094 306.316406 150.980469 301.832031 150.980469 296.316406 L 150.980469 230.753906 L 152.015625 230.691406 C 157.328125 230.375 161.492188 225.957031 161.492188 220.628906 L 161.492188 176.953125 L 161.472656 176.605469 C 160.957031 164.171875 150.800781 154.4375 138.355469 154.4375 L 104.453125 154.4375 C 92.003906 154.4375 81.847656 164.171875 81.335938 176.605469 L 81.3125 177.574219 L 81.3125 220.628906 C 81.3125 225.957031 85.476562 230.375 90.789062 230.691406 L 91.824219 230.753906 L 91.824219 296.316406 C 91.824219 301.832031 96.308594 306.316406 101.824219 306.316406 C 107.339844 306.316406 111.824219 301.832031 111.824219 296.316406 L 111.824219 254.53125 C 111.824219 249.253906 116.121094 244.957031 121.402344 244.957031 Z M 140.980469 308.519531 C 134.25 308.519531 128.777344 303.046875 128.777344 296.316406 L 128.777344 254.53125 C 128.777344 250.464844 125.46875 247.160156 121.402344 247.160156 C 117.335938 247.160156 114.027344 250.464844 114.027344 254.53125 L 114.027344 296.316406 C 114.027344 303.046875 108.554688 308.519531 101.824219 308.519531 C 95.09375 308.519531 89.621094 303.046875 89.621094 296.316406 L 89.621094 232.789062 C 83.648438 231.921875 79.109375 226.769531 79.109375 220.628906 L 79.109375 175.453125 L 79.199219 175.453125 C 80.277344 162.347656 91.171875 152.234375 104.453125 152.234375 L 138.355469 152.234375 C 151.636719 152.234375 162.527344 162.347656 163.605469 175.453125 L 163.695312 175.453125 L 163.695312 220.628906 C 163.695312 226.769531 159.15625 231.921875 153.183594 232.789062 L 153.183594 296.316406 C 153.183594 303.046875 147.710938 308.519531 140.980469 308.519531 " fill-opacity="1" fill-rule="nonzero"/><path fill="#66b2b2" d="M 145.136719 125.363281 C 145.136719 138.46875 134.507812 149.097656 121.402344 149.097656 C 108.296875 149.097656 97.667969 138.46875 97.667969 125.363281 C 97.667969 112.257812 108.296875 101.636719 121.402344 101.636719 C 134.507812 101.636719 145.136719 112.257812 145.136719 125.363281 " fill-opacity="1" fill-rule="nonzero"/><path fill="#66b2b2" d="M 121.402344 102.738281 C 108.921875 102.738281 98.769531 112.886719 98.769531 125.363281 C 98.769531 137.84375 108.921875 147.996094 121.402344 147.996094 C 133.882812 147.996094 144.035156 137.84375 144.035156 125.363281 C 144.035156 112.886719 133.882812 102.738281 121.402344 102.738281 Z M 121.402344 150.199219 C 107.710938 150.199219 96.566406 139.058594 96.566406 125.363281 C 96.566406 111.671875 107.710938 100.53125 121.402344 100.53125 C 135.09375 100.53125 146.238281 111.671875 146.238281 125.363281 C 146.238281 139.058594 135.09375 150.199219 121.402344 150.199219 " fill-opacity="1" fill-rule="nonzero"/><path fill="#66b2b2" d="M 321.777344 122.375 C 322.113281 114.25 328.808594 107.769531 337.011719 107.769531 L 358.339844 107.769531 C 366.542969 107.769531 373.238281 114.25 373.574219 122.375 L 373.589844 122.375 L 373.589844 150.097656 C 373.589844 153.84375 370.664062 156.90625 366.976562 157.125 L 366.976562 197.710938 C 366.976562 201.570312 363.847656 204.695312 359.992188 204.695312 C 356.132812 204.695312 353.007812 201.570312 353.007812 197.710938 L 353.007812 171.425781 C 353.007812 168.484375 350.621094 166.097656 347.675781 166.097656 C 344.734375 166.097656 342.34375 168.484375 342.34375 171.425781 L 342.34375 197.710938 C 342.34375 201.570312 339.21875 204.695312 335.359375 204.695312 C 331.503906 204.695312 328.375 201.570312 328.375 197.710938 L 328.375 157.125 C 324.6875 156.90625 321.761719 153.84375 321.761719 150.097656 L 321.761719 122.375 L 321.777344 122.375 " fill-opacity="1" fill-rule="nonzero"/><path fill="#66b2b2" d="M 347.675781 164.996094 C 351.222656 164.996094 354.109375 167.878906 354.109375 171.425781 L 354.109375 197.710938 C 354.109375 200.957031 356.746094 203.59375 359.992188 203.59375 C 363.234375 203.59375 365.875 200.957031 365.875 197.710938 L 365.875 156.085938 L 366.910156 156.023438 C 370.035156 155.839844 372.488281 153.234375 372.488281 150.097656 L 372.472656 122.421875 C 372.160156 114.824219 365.949219 108.871094 358.339844 108.871094 L 337.011719 108.871094 C 329.402344 108.871094 323.191406 114.824219 322.878906 122.421875 L 322.867188 123.015625 L 322.867188 150.097656 C 322.867188 153.234375 325.316406 155.839844 328.441406 156.023438 L 329.476562 156.085938 L 329.476562 197.710938 C 329.476562 200.957031 332.117188 203.59375 335.359375 203.59375 C 338.605469 203.59375 341.242188 200.957031 341.242188 197.710938 L 341.242188 171.425781 C 341.242188 167.878906 344.128906 164.996094 347.675781 164.996094 Z M 359.992188 205.796875 C 355.53125 205.796875 351.90625 202.171875 351.90625 197.710938 L 351.90625 171.425781 C 351.90625 169.09375 350.007812 167.199219 347.675781 167.199219 C 345.34375 167.199219 343.445312 169.09375 343.445312 171.425781 L 343.445312 197.710938 C 343.445312 202.171875 339.820312 205.796875 335.359375 205.796875 C 330.902344 205.796875 327.273438 202.171875 327.273438 197.710938 L 327.273438 158.097656 C 323.496094 157.375 320.660156 154.046875 320.660156 150.097656 L 320.660156 121.273438 L 320.753906 121.273438 C 321.621094 113.003906 328.570312 106.667969 337.011719 106.667969 L 358.339844 106.667969 C 366.78125 106.667969 373.730469 113.003906 374.597656 121.273438 L 374.675781 121.273438 L 374.691406 123.015625 L 374.691406 150.097656 C 374.691406 154.046875 371.855469 157.375 368.078125 158.097656 L 368.078125 197.710938 C 368.078125 202.171875 364.449219 205.796875 359.992188 205.796875 " fill-opacity="1" fill-rule="nonzero"/><path fill="#66b2b2" d="M 332.75 90.175781 C 332.75 98.417969 339.429688 105.101562 347.675781 105.101562 C 355.921875 105.101562 362.601562 98.417969 362.601562 90.175781 C 362.601562 81.929688 355.921875 75.242188 347.675781 75.242188 C 339.429688 75.242188 332.75 81.929688 332.75 90.175781 " fill-opacity="1" fill-rule="nonzero"/><path fill="#66b2b2" d="M 347.675781 76.34375 C 340.050781 76.34375 333.851562 82.550781 333.851562 90.175781 C 333.851562 97.796875 340.050781 104 347.675781 104 C 355.300781 104 361.5 97.796875 361.5 90.175781 C 361.5 82.550781 355.300781 76.34375 347.675781 76.34375 Z M 347.675781 106.203125 C 338.839844 106.203125 331.648438 99.011719 331.648438 90.175781 C 331.648438 81.332031 338.839844 74.140625 347.675781 74.140625 C 356.511719 74.140625 363.703125 81.332031 363.703125 90.175781 C 363.703125 99.011719 356.511719 106.203125 347.675781 106.203125 " fill-opacity="1" fill-rule="nonzero"/><path fill="#66b2b2" d="M 271.964844 146.730469 C 272.382812 136.527344 280.789062 128.382812 291.101562 128.382812 L 317.882812 128.382812 C 328.195312 128.382812 336.601562 136.527344 337.019531 146.730469 L 337.039062 146.730469 L 337.039062 181.558594 C 337.039062 186.261719 333.367188 190.101562 328.734375 190.378906 L 328.734375 241.359375 C 328.734375 246.207031 324.808594 250.132812 319.964844 250.132812 C 315.117188 250.132812 311.1875 246.207031 311.1875 241.359375 L 311.1875 208.34375 C 311.1875 204.648438 308.191406 201.648438 304.492188 201.648438 C 300.796875 201.648438 297.796875 204.648438 297.796875 208.34375 L 297.796875 241.359375 C 297.796875 246.207031 293.867188 250.132812 289.019531 250.132812 C 284.175781 250.132812 280.25 246.207031 280.25 241.359375 L 280.25 190.378906 C 275.617188 190.101562 271.945312 186.261719 271.945312 181.558594 L 271.945312 146.730469 L 271.964844 146.730469 " fill-opacity="1" fill-rule="nonzero"/><path fill="#66b2b2" d="M 304.492188 200.546875 C 308.792969 200.546875 312.289062 204.042969 312.289062 208.34375 L 312.289062 241.359375 C 312.289062 245.589844 315.730469 249.03125 319.964844 249.03125 C 324.191406 249.03125 327.632812 245.589844 327.632812 241.359375 L 327.632812 189.339844 L 328.667969 189.277344 C 332.746094 189.035156 335.9375 185.644531 335.9375 181.558594 L 335.917969 146.777344 C 335.519531 137.082031 327.597656 129.484375 317.882812 129.484375 L 291.101562 129.484375 C 281.386719 129.484375 273.464844 137.082031 273.066406 146.777344 L 273.046875 147.539062 L 273.046875 181.558594 C 273.046875 185.644531 276.238281 189.035156 280.316406 189.277344 L 281.351562 189.339844 L 281.351562 241.359375 C 281.351562 245.589844 284.792969 249.03125 289.019531 249.03125 C 293.253906 249.03125 296.695312 245.589844 296.695312 241.359375 L 296.695312 208.34375 C 296.695312 204.042969 300.191406 200.546875 304.492188 200.546875 Z M 319.964844 251.234375 C 314.515625 251.234375 310.085938 246.804688 310.085938 241.359375 L 310.085938 208.34375 C 310.085938 205.257812 307.578125 202.75 304.492188 202.75 C 301.40625 202.75 298.898438 205.257812 298.898438 208.34375 L 298.898438 241.359375 C 298.898438 246.804688 294.46875 251.234375 289.019531 251.234375 C 283.578125 251.234375 279.148438 246.804688 279.148438 241.359375 L 279.148438 191.363281 C 274.414062 190.578125 270.84375 186.457031 270.84375 181.558594 L 270.84375 145.628906 L 270.933594 145.628906 C 271.894531 135.261719 280.554688 127.28125 291.101562 127.28125 L 317.882812 127.28125 C 328.429688 127.28125 337.089844 135.261719 338.050781 145.628906 L 338.121094 145.628906 L 338.140625 147.539062 L 338.140625 181.558594 C 338.140625 186.457031 334.570312 190.578125 329.835938 191.363281 L 329.835938 241.359375 C 329.835938 246.804688 325.40625 251.234375 319.964844 251.234375 " fill-opacity="1" fill-rule="nonzero"/><path fill="#66b2b2" d="M 285.742188 106.285156 C 285.742188 116.640625 294.136719 125.039062 304.492188 125.039062 C 314.847656 125.039062 323.242188 116.640625 323.242188 106.285156 C 323.242188 95.929688 314.847656 87.535156 304.492188 87.535156 C 294.136719 87.535156 285.742188 95.929688 285.742188 106.285156 " fill-opacity="1" fill-rule="nonzero"/><path fill="#66b2b2" d="M 304.492188 88.636719 C 294.761719 88.636719 286.84375 96.554688 286.84375 106.285156 C 286.84375 116.019531 294.761719 123.9375 304.492188 123.9375 C 314.222656 123.9375 322.140625 116.019531 322.140625 106.285156 C 322.140625 96.554688 314.222656 88.636719 304.492188 88.636719 Z M 304.492188 126.140625 C 293.542969 126.140625 284.640625 117.234375 284.640625 106.285156 C 284.640625 95.339844 293.542969 86.433594 304.492188 86.433594 C 315.441406 86.433594 324.34375 95.339844 324.34375 106.285156 C 324.34375 117.234375 315.441406 126.140625 304.492188 126.140625 " fill-opacity="1" fill-rule="nonzero"/><path fill="#66b2b2" d="M 212.425781 176.554688 C 212.964844 163.640625 223.601562 153.335938 236.644531 153.335938 L 270.546875 153.335938 C 283.59375 153.335938 294.230469 163.640625 294.765625 176.554688 L 294.789062 176.554688 L 294.789062 220.628906 C 294.789062 226.578125 290.140625 231.445312 284.277344 231.792969 L 284.277344 296.316406 C 284.277344 302.445312 279.304688 307.417969 273.175781 307.417969 C 267.042969 307.417969 262.074219 302.445312 262.074219 296.316406 L 262.074219 254.53125 C 262.074219 249.851562 258.277344 246.058594 253.597656 246.058594 C 248.914062 246.058594 245.121094 249.851562 245.121094 254.53125 L 245.121094 296.316406 C 245.121094 302.445312 240.152344 307.417969 234.019531 307.417969 C 227.886719 307.417969 222.917969 302.445312 222.917969 296.316406 L 222.917969 231.792969 C 217.054688 231.445312 212.40625 226.578125 212.40625 220.628906 L 212.40625 176.554688 L 212.425781 176.554688 " fill-opacity="1" fill-rule="nonzero"/><path fill="#66b2b2" d="M 253.597656 244.957031 C 258.878906 244.957031 263.175781 249.253906 263.175781 254.53125 L 263.175781 296.316406 C 263.175781 301.832031 267.660156 306.316406 273.175781 306.316406 C 278.691406 306.316406 283.175781 301.832031 283.175781 296.316406 L 283.175781 230.753906 L 284.210938 230.691406 C 289.523438 230.375 293.6875 225.957031 293.6875 220.628906 L 293.6875 176.945312 L 293.664062 176.605469 C 293.152344 164.171875 282.996094 154.4375 270.546875 154.4375 L 236.644531 154.4375 C 224.199219 154.4375 214.042969 164.171875 213.527344 176.605469 L 213.507812 177.574219 L 213.507812 220.628906 C 213.507812 225.957031 217.671875 230.375 222.984375 230.691406 L 224.019531 230.753906 L 224.019531 296.316406 C 224.019531 301.832031 228.503906 306.316406 234.019531 306.316406 C 239.535156 306.316406 244.019531 301.832031 244.019531 296.316406 L 244.019531 254.53125 C 244.019531 249.253906 248.316406 244.957031 253.597656 244.957031 Z M 273.175781 308.519531 C 266.445312 308.519531 260.972656 303.046875 260.972656 296.316406 L 260.972656 254.53125 C 260.972656 250.464844 257.664062 247.160156 253.597656 247.160156 C 249.53125 247.160156 246.222656 250.464844 246.222656 254.53125 L 246.222656 296.316406 C 246.222656 303.046875 240.75 308.519531 234.019531 308.519531 C 227.289062 308.519531 221.816406 303.046875 221.816406 296.316406 L 221.816406 232.789062 C 215.84375 231.921875 211.304688 226.769531 211.304688 220.628906 L 211.304688 175.453125 L 211.394531 175.453125 C 212.472656 162.347656 223.363281 152.234375 236.644531 152.234375 L 270.546875 152.234375 C 283.828125 152.234375 294.722656 162.347656 295.800781 175.453125 L 295.867188 175.453125 L 295.890625 177.574219 L 295.890625 220.628906 C 295.890625 226.769531 291.351562 231.921875 285.378906 232.789062 L 285.378906 296.316406 C 285.378906 303.046875 279.90625 308.519531 273.175781 308.519531 " fill-opacity="1" fill-rule="nonzero"/><path fill="#66b2b2" d="M 229.863281 125.363281 C 229.863281 138.46875 240.492188 149.097656 253.597656 149.097656 C 266.703125 149.097656 277.332031 138.46875 277.332031 125.363281 C 277.332031 112.257812 266.703125 101.636719 253.597656 101.636719 C 240.492188 101.636719 229.863281 112.257812 229.863281 125.363281 " fill-opacity="1" fill-rule="nonzero"/><path fill="#66b2b2" d="M 253.597656 102.738281 C 241.117188 102.738281 230.964844 112.886719 230.964844 125.363281 C 230.964844 137.84375 241.117188 147.996094 253.597656 147.996094 C 266.078125 147.996094 276.230469 137.84375 276.230469 125.363281 C 276.230469 112.886719 266.078125 102.738281 253.597656 102.738281 Z M 253.597656 150.199219 C 239.90625 150.199219 228.761719 139.058594 228.761719 125.363281 C 228.761719 111.671875 239.90625 100.53125 253.597656 100.53125 C 267.289062 100.53125 278.433594 111.671875 278.433594 125.363281 C 278.433594 139.058594 267.289062 150.199219 253.597656 150.199219 " fill-opacity="1" fill-rule="nonzero"/><g clip-path="url(#42f0b17b18)"><path fill="#66b2b2" d="M 241.011719 174.035156 C 240.316406 157.25 226.492188 143.851562 209.53125 143.851562 L 165.46875 143.851562 C 148.507812 143.851562 134.683594 157.25 133.992188 174.035156 L 133.960938 174.035156 L 133.960938 231.320312 C 133.960938 239.054688 140.003906 245.375 147.621094 245.832031 L 147.621094 329.695312 C 147.621094 337.664062 154.082031 344.125 162.050781 344.125 C 170.023438 344.125 176.484375 337.664062 176.484375 329.695312 L 176.484375 275.382812 C 176.484375 269.300781 181.417969 264.367188 187.5 264.367188 C 193.582031 264.367188 198.515625 269.300781 198.515625 275.382812 L 198.515625 329.695312 C 198.515625 337.664062 204.976562 344.125 212.949219 344.125 C 220.917969 344.125 227.378906 337.664062 227.378906 329.695312 L 227.378906 245.832031 C 234.996094 245.375 241.039062 239.054688 241.039062 231.320312 L 241.039062 174.035156 L 241.011719 174.035156 " fill-opacity="1" fill-rule="nonzero"/></g><path fill="#66b2b2" d="M 218.34375 107.496094 C 218.34375 124.535156 204.535156 138.34375 187.5 138.34375 C 170.464844 138.34375 156.65625 124.535156 156.65625 107.496094 C 156.65625 90.464844 170.464844 76.652344 187.5 76.652344 C 204.535156 76.652344 218.34375 90.464844 218.34375 107.496094 " fill-opacity="1" fill-rule="nonzero"/><g clip-path="url(#11a0a89450)"><path fill="#66b2b2" d="M 188.703125 63.597656 L 186.296875 63.597656 C 185.628906 63.597656 185.089844 63.0625 185.089844 62.394531 L 185.089844 32.167969 C 185.089844 31.503906 185.628906 30.960938 186.296875 30.960938 L 188.703125 30.960938 C 189.371094 30.960938 189.910156 31.503906 189.910156 32.167969 L 189.910156 62.394531 C 189.910156 63.0625 189.371094 63.597656 188.703125 63.597656 " fill-opacity="1" fill-rule="nonzero"/></g><path fill="#66b2b2" d="M 157.050781 75.867188 L 155.867188 77.046875 C 155.253906 77.664062 154.253906 77.664062 153.640625 77.046875 L 132.789062 56.195312 C 132.175781 55.582031 132.175781 54.585938 132.789062 53.96875 L 133.972656 52.789062 C 134.585938 52.171875 135.585938 52.171875 136.199219 52.789062 L 157.050781 73.640625 C 157.664062 74.253906 157.664062 75.25 157.050781 75.867188 " fill-opacity="1" fill-rule="nonzero"/><path fill="#66b2b2" d="M 217.949219 75.867188 L 219.132812 77.046875 C 219.746094 77.664062 220.746094 77.664062 221.359375 77.046875 L 242.210938 56.195312 C 242.824219 55.582031 242.824219 54.585938 242.210938 53.96875 L 241.027344 52.789062 C 240.414062 52.171875 239.414062 52.171875 238.800781 52.789062 L 217.949219 73.640625 C 217.335938 74.253906 217.335938 75.25 217.949219 75.867188 " fill-opacity="1" fill-rule="nonzero"/></svg>