<svg xmlns="http://www.w3.org/2000/svg" xmlns:xlink="http://www.w3.org/1999/xlink" width="500" zoomAndPan="magnify" viewBox="0 0 375 374.999991" height="500" preserveAspectRatio="xMidYMid meet" version="1.0"><defs><clipPath id="64efcd738a"><path d="M 86 200 L 194 200 L 194 374.976562 L 86 374.976562 Z M 86 200 " clip-rule="nonzero"/></clipPath><clipPath id="0fdd85d8be"><path d="M 178 200 L 285 200 L 285 374.976562 L 178 374.976562 Z M 178 200 " clip-rule="nonzero"/></clipPath><clipPath id="08e7e45d59"><path d="M 49.179688 118.476562 L 325.929688 118.476562 L 325.929688 288 L 49.179688 288 Z M 49.179688 118.476562 " clip-rule="nonzero"/></clipPath><clipPath id="4eb7c36763"><path d="M 68 16.6875 L 138 16.6875 L 138 82.6875 L 68 82.6875 Z M 68 16.6875 " clip-rule="nonzero"/></clipPath><clipPath id="3be5009ccd"><path d="M 152 16.6875 L 222 16.6875 L 222 82.6875 L 152 82.6875 Z M 152 16.6875 " clip-rule="nonzero"/></clipPath><clipPath id="908928223f"><path d="M 236 16.6875 L 306 16.6875 L 306 82.6875 L 236 82.6875 Z M 236 16.6875 " clip-rule="nonzero"/></clipPath></defs><g clip-path="url(#64efcd738a)"><path fill="#66b2b2" d="M 94.589844 200.207031 C 94.4375 200.207031 94.359375 200.207031 94.207031 200.207031 C 92.828125 200.285156 91.527344 200.742188 90.457031 201.433594 C 88.3125 202.808594 87.164062 205.183594 87.164062 208.015625 C 87.089844 230.4375 87.011719 252.78125 86.859375 275.207031 L 86.707031 308.800781 L 86.707031 310.027344 C 86.707031 310.636719 86.707031 311.25 86.707031 311.863281 L 86.707031 312.398438 C 86.707031 313.546875 86.707031 314.695312 87.089844 315.84375 C 87.703125 317.601562 88.847656 318.980469 90.6875 320.050781 L 93.289062 321.582031 L 98.949219 324.871094 L 104.613281 328.164062 C 110.507812 331.605469 116.398438 335.128906 122.292969 338.570312 L 126.347656 340.945312 L 155.199219 358.007812 L 169.664062 366.582031 L 181.832031 373.773438 C 182.824219 374.308594 183.898438 374.617188 185.046875 374.617188 C 185.65625 374.617188 186.191406 374.539062 186.804688 374.386719 C 188.257812 374.082031 189.636719 373.238281 190.632812 372.089844 C 190.9375 371.785156 191.167969 371.480469 191.398438 371.097656 C 191.472656 370.941406 191.625 370.714844 191.703125 370.558594 C 192.316406 369.414062 192.546875 368.109375 192.546875 366.808594 L 192.773438 316.53125 L 193.003906 266.023438 L 193.003906 264.796875 C 193.003906 264.1875 193.003906 263.574219 193.003906 262.960938 L 193.003906 262.425781 C 193.003906 261.277344 193.003906 260.128906 192.621094 258.980469 C 192.007812 257.222656 190.863281 255.84375 189.023438 254.773438 L 186.421875 253.242188 L 180.761719 249.953125 L 175.097656 246.660156 C 167.902344 242.375 160.632812 238.089844 153.4375 233.878906 L 124.511719 216.816406 L 110.046875 208.242188 L 97.878906 201.050781 C 96.960938 200.515625 95.8125 200.207031 94.589844 200.207031 Z M 94.589844 200.207031 " fill-opacity="1" fill-rule="nonzero"/></g><g clip-path="url(#0fdd85d8be)"><path fill="#66b2b2" d="M 276.648438 200.667969 C 275.425781 200.667969 274.355469 200.972656 273.359375 201.507812 L 261.191406 208.703125 L 246.726562 217.195312 L 217.800781 234.261719 C 210.605469 238.546875 203.335938 242.835938 196.140625 247.042969 L 190.480469 250.335938 L 184.816406 253.625 L 182.214844 255.15625 C 180.378906 256.226562 179.152344 257.605469 178.617188 259.363281 C 178.234375 260.511719 178.234375 261.660156 178.234375 262.808594 L 178.234375 263.34375 C 178.234375 263.957031 178.234375 264.566406 178.234375 265.179688 L 178.234375 266.40625 L 178.464844 316.914062 L 178.695312 367.191406 C 178.617188 368.492188 178.921875 369.796875 179.535156 370.941406 C 179.613281 371.097656 179.765625 371.324219 179.839844 371.480469 C 180.070312 371.859375 180.300781 372.167969 180.605469 372.472656 C 181.601562 373.621094 182.980469 374.386719 184.433594 374.769531 C 185.046875 374.921875 185.582031 375 186.195312 375 C 187.339844 375 188.414062 374.691406 189.40625 374.15625 L 201.574219 366.964844 L 216.039062 358.390625 L 244.96875 341.328125 L 249.023438 338.953125 C 254.914062 335.511719 260.808594 331.988281 266.625 328.546875 L 272.289062 325.253906 L 277.949219 321.964844 L 279.253906 321.199219 L 280.554688 320.433594 C 282.390625 319.363281 283.613281 317.984375 284.148438 316.226562 C 284.53125 315.078125 284.53125 313.929688 284.53125 312.78125 L 284.53125 312.246094 C 284.53125 311.632812 284.53125 311.019531 284.53125 310.410156 L 284.53125 309.183594 L 284.378906 275.589844 C 284.304688 253.164062 284.226562 230.820312 284.074219 208.394531 C 284.074219 205.566406 282.925781 203.269531 280.78125 201.816406 C 279.710938 201.125 278.332031 200.667969 277.03125 200.589844 C 276.878906 200.667969 276.726562 200.667969 276.648438 200.667969 Z M 276.648438 200.667969 " fill-opacity="1" fill-rule="nonzero"/></g><path fill="#ffffff" d="M 279.023438 208.320312 L 274.507812 210.921875 L 258.128906 220.335938 L 241.90625 229.671875 L 213.742188 245.894531 L 198.054688 254.847656 L 200.046875 255.921875 L 201.957031 257.070312 L 209.457031 261.355469 L 221.242188 268.164062 L 221.320312 268.242188 L 229.660156 272.988281 L 268.078125 250.105469 L 295.324219 233.878906 L 310.015625 225.078125 L 299.839844 219.1875 L 280.015625 207.785156 Z M 279.023438 208.320312 " fill-opacity="1" fill-rule="nonzero"/><path fill="#ffffff" d="M 75.304688 218.421875 L 65.046875 224.3125 L 65.277344 224.46875 L 75.839844 230.742188 L 106.832031 249.339844 L 142.496094 270.613281 L 145.402344 272.296875 L 153.746094 267.476562 L 153.820312 267.476562 L 159.792969 264.109375 L 165.683594 260.664062 L 171.960938 257.070312 L 175.785156 254.847656 L 175.707031 254.847656 L 175.554688 254.773438 L 133.160156 230.359375 L 117.011719 221.101562 L 100.558594 211.6875 L 95.199219 208.550781 L 93.898438 207.785156 Z M 75.304688 218.421875 " fill-opacity="1" fill-rule="nonzero"/><g clip-path="url(#08e7e45d59)"><path fill="#66b2b2" d="M 226.066406 119.316406 C 225.527344 119.46875 225.070312 119.625 224.609375 119.929688 L 205.632812 130.796875 L 186.882812 141.511719 L 168.667969 131.027344 L 150.53125 120.617188 C 150.070312 120.3125 149.535156 120.160156 149.078125 120.007812 C 148.160156 119.46875 147.164062 119.164062 146.09375 119.164062 C 145.097656 119.164062 144.179688 119.394531 143.335938 119.929688 L 130.328125 127.734375 L 97.265625 147.480469 L 56.554688 171.738281 C 56.25 171.890625 55.941406 172.121094 55.710938 172.351562 L 55.558594 172.429688 C 55.40625 172.582031 55.328125 172.65625 55.253906 172.8125 C 55.101562 172.964844 54.945312 173.117188 54.71875 173.347656 C 54.488281 173.652344 54.257812 173.957031 54.027344 174.1875 C 53.800781 174.496094 53.644531 174.875 53.492188 175.183594 C 53.339844 175.488281 53.1875 175.871094 53.035156 176.179688 C 52.878906 176.5625 52.804688 176.941406 52.726562 177.324219 C 52.652344 177.707031 52.574219 178.089844 52.574219 178.472656 C 52.574219 178.855469 52.574219 179.238281 52.574219 179.546875 C 52.574219 179.929688 52.652344 180.308594 52.726562 180.691406 C 52.804688 181.074219 52.878906 181.457031 53.035156 181.765625 C 53.1875 182.148438 53.261719 182.453125 53.417969 182.757812 C 53.570312 183.140625 53.800781 183.449219 54.027344 183.753906 C 54.257812 184.058594 54.488281 184.367188 54.71875 184.671875 C 55.175781 185.132812 55.636719 185.589844 56.171875 185.972656 L 56.25 186.050781 L 56.476562 186.203125 C 56.476562 186.203125 56.554688 186.28125 56.554688 186.355469 L 59.460938 188.117188 L 62.445312 189.800781 L 65.96875 191.867188 C 71.554688 195.082031 77.0625 198.292969 82.648438 201.433594 L 67.34375 210.15625 L 52.34375 218.804688 C 51.121094 219.492188 50.203125 220.71875 49.820312 222.171875 C 49.4375 223.625 49.589844 225.15625 50.355469 226.457031 C 50.738281 227.070312 51.195312 227.679688 51.808594 228.0625 C 52.269531 229.210938 53.109375 230.128906 54.105469 230.742188 L 57.855469 232.960938 L 61.527344 235.179688 L 62.675781 235.871094 L 63.824219 236.558594 L 70.636719 240.613281 L 88.082031 251.023438 L 148.160156 286.839844 C 149 287.296875 149.917969 287.601562 150.914062 287.601562 C 152.902344 287.601562 154.816406 286.53125 155.734375 284.847656 C 156.730469 283.164062 156.730469 280.945312 155.660156 279.183594 L 180.453125 264.949219 C 180.53125 262.195312 183.054688 259.824219 186.039062 259.824219 C 188.566406 259.824219 190.785156 261.507812 191.398438 263.726562 L 196.679688 266.789062 L 219.332031 279.796875 L 219.40625 279.796875 C 219.484375 279.875 219.558594 279.875 219.558594 279.949219 L 219.710938 280.257812 C 219.789062 280.484375 219.941406 280.714844 220.019531 280.867188 C 220.171875 281.097656 220.25 281.25 220.324219 281.40625 C 220.476562 281.632812 220.632812 281.863281 220.785156 282.09375 C 220.9375 282.324219 221.167969 282.550781 221.320312 282.78125 C 221.625 283.089844 221.855469 283.316406 222.160156 283.625 C 222.46875 283.929688 222.851562 284.160156 223.234375 284.390625 C 223.617188 284.617188 223.921875 284.773438 224.304688 284.925781 C 224.609375 285.078125 224.992188 285.230469 225.375 285.308594 C 225.683594 285.382812 226.066406 285.535156 226.449219 285.535156 C 226.828125 285.613281 227.136719 285.613281 227.519531 285.691406 L 227.976562 285.691406 C 228.207031 285.691406 228.511719 285.691406 228.742188 285.691406 C 229.125 285.691406 229.507812 285.613281 229.890625 285.535156 C 230.121094 285.460938 230.351562 285.460938 230.578125 285.382812 L 230.65625 285.382812 L 286.292969 252.171875 L 286.980469 251.710938 L 296.242188 246.203125 L 311.164062 237.246094 L 313.460938 235.871094 L 320.882812 231.429688 C 321.878906 230.820312 322.71875 229.902344 323.179688 228.753906 C 323.792969 228.292969 324.25 227.757812 324.632812 227.144531 C 325.398438 225.921875 325.550781 224.3125 325.167969 222.9375 C 324.785156 221.484375 323.867188 220.257812 322.644531 219.570312 L 291.421875 201.660156 L 291.039062 201.433594 L 312.464844 189.109375 L 314.300781 188.039062 L 319.351562 185.132812 L 319.429688 185.054688 L 319.507812 184.980469 L 319.8125 184.75 C 320.042969 184.597656 320.269531 184.441406 320.425781 184.289062 C 320.652344 184.058594 320.882812 183.832031 321.113281 183.601562 C 321.34375 183.371094 321.496094 183.066406 321.726562 182.835938 C 321.878906 182.683594 321.953125 182.453125 322.109375 182.222656 C 322.335938 181.839844 322.492188 181.457031 322.644531 181 C 322.796875 180.617188 322.875 180.308594 322.949219 180.003906 C 323.027344 179.699219 323.027344 179.316406 323.101562 179.007812 C 323.101562 178.78125 323.101562 178.398438 323.101562 178.015625 C 323.101562 177.632812 323.027344 177.324219 322.949219 177.019531 C 322.875 176.636719 322.796875 176.332031 322.644531 175.949219 C 322.492188 175.566406 322.335938 175.257812 322.183594 174.953125 C 322.03125 174.570312 321.878906 174.339844 321.648438 174.113281 C 321.417969 173.804688 321.265625 173.574219 321.035156 173.269531 C 320.882812 173.039062 320.652344 172.886719 320.5 172.734375 C 320.269531 172.582031 320.117188 172.429688 319.886719 172.199219 C 319.8125 172.199219 319.8125 172.121094 319.8125 172.046875 L 319.582031 172.199219 C 319.199219 171.738281 318.742188 171.355469 318.28125 171.128906 L 317.976562 170.972656 C 304.582031 162.9375 291.113281 154.902344 277.722656 146.945312 L 245.042969 127.429688 L 231.804688 119.242188 C 230.960938 118.78125 230.042969 118.476562 229.050781 118.476562 C 227.976562 118.476562 226.984375 118.78125 226.066406 119.316406 Z M 160.9375 233.574219 L 135.992188 219.339844 L 116.398438 208.089844 L 110.660156 204.800781 L 107.214844 202.808594 L 104.921875 201.507812 L 106.222656 200.742188 L 110.046875 198.601562 L 117.929688 194.085938 C 138.441406 182.300781 159.027344 170.4375 179.613281 158.652344 L 182.289062 157.121094 L 186.882812 154.445312 L 191.167969 156.738281 L 195.453125 159.1875 L 238.234375 183.753906 L 258.28125 195.308594 L 260.65625 196.6875 C 263.027344 198.066406 265.476562 199.441406 267.847656 200.820312 C 268.15625 200.972656 268.460938 201.203125 268.84375 201.355469 L 260.503906 206.175781 L 238.996094 218.5 L 214.050781 232.734375 L 194.996094 243.828125 L 186.957031 248.421875 Z M 221.320312 268.242188 L 209.457031 261.429688 L 201.957031 257.070312 L 200.046875 255.996094 L 198.132812 254.925781 L 241.984375 229.746094 L 258.207031 220.410156 L 274.582031 211 L 279.097656 208.394531 L 280.09375 207.859375 L 299.914062 219.261719 L 310.09375 225.15625 L 268.078125 250.105469 L 229.738281 272.988281 Z M 106.832031 249.339844 L 75.761719 230.820312 L 65.203125 224.542969 L 64.972656 224.390625 L 93.824219 207.859375 L 95.125 208.625 L 100.480469 211.6875 L 116.859375 221.101562 L 133.082031 230.4375 L 175.480469 254.773438 L 175.632812 254.847656 L 175.707031 254.847656 L 165.605469 260.664062 L 159.714844 264.03125 L 153.820312 267.398438 L 153.746094 267.476562 L 145.402344 272.296875 Z M 106.832031 249.339844 " fill-opacity="1" fill-rule="nonzero"/></g><path fill="#ffffff" d="M 186.957031 154.289062 L 182.367188 156.96875 L 179.6875 158.5 C 159.101562 170.285156 138.59375 182.070312 118.007812 193.933594 L 110.125 198.449219 L 106.296875 200.589844 L 104.996094 201.355469 L 110.734375 204.648438 L 116.476562 207.9375 L 136.066406 219.1875 L 148.542969 226.304688 L 161.015625 233.421875 L 187.035156 248.34375 L 195.070312 243.753906 L 214.28125 232.734375 L 239.226562 218.5 L 260.730469 206.175781 L 269.074219 201.355469 C 266.320312 199.75 263.640625 198.21875 260.886719 196.609375 L 258.511719 195.234375 L 238.460938 183.679688 L 195.683594 159.113281 L 191.167969 156.738281 Z M 186.957031 154.289062 " fill-opacity="1" fill-rule="nonzero"/><path fill="#ffffff" d="M 186.039062 259.898438 C 183.054688 259.898438 180.453125 262.347656 180.453125 265.179688 L 180.453125 363.824219 C 180.453125 366.65625 182.980469 369.105469 186.039062 369.105469 C 189.101562 369.105469 191.625 366.65625 191.625 363.824219 L 191.625 265.179688 C 191.550781 262.347656 189.023438 259.898438 186.039062 259.898438 Z M 186.039062 259.898438 " fill-opacity="1" fill-rule="nonzero"/><g clip-path="url(#4eb7c36763)"><path fill="#66b2b2" d="M 102.785156 71.964844 L 82.382812 82.683594 C 81.917969 82.929688 81.386719 82.542969 81.464844 82.023438 L 85.359375 59.304688 C 85.398438 59.097656 85.335938 58.890625 85.179688 58.746094 L 68.675781 42.65625 C 68.300781 42.28125 68.507812 41.648438 69.023438 41.582031 L 91.832031 38.269531 C 92.042969 38.230469 92.222656 38.097656 92.3125 37.917969 L 102.515625 17.246094 C 102.746094 16.777344 103.421875 16.777344 103.652344 17.246094 L 113.855469 37.917969 C 113.945312 38.097656 114.125 38.230469 114.332031 38.269531 L 137.144531 41.582031 C 137.660156 41.648438 137.867188 42.28125 137.492188 42.65625 L 120.988281 58.746094 C 120.832031 58.890625 120.765625 59.097656 120.804688 59.304688 L 124.703125 82.023438 C 124.78125 82.542969 124.25 82.929688 123.785156 82.683594 L 103.382812 71.964844 C 103.1875 71.875 102.96875 71.875 102.785156 71.964844 " fill-opacity="1" fill-rule="nonzero"/></g><g clip-path="url(#3be5009ccd)"><path fill="#66b2b2" d="M 186.648438 71.964844 L 166.246094 82.683594 C 165.777344 82.929688 165.25 82.542969 165.324219 82.023438 L 169.222656 59.304688 C 169.261719 59.097656 169.195312 58.890625 169.042969 58.746094 L 152.535156 42.65625 C 152.160156 42.28125 152.367188 41.648438 152.886719 41.582031 L 175.695312 38.269531 C 175.902344 38.230469 176.082031 38.097656 176.175781 37.917969 L 186.375 17.246094 C 186.609375 16.777344 187.28125 16.777344 187.515625 17.246094 L 197.714844 37.917969 C 197.804688 38.097656 197.988281 38.230469 198.195312 38.269531 L 221.003906 41.582031 C 221.523438 41.648438 221.730469 42.28125 221.355469 42.65625 L 204.847656 58.746094 C 204.691406 58.890625 204.628906 59.097656 204.667969 59.304688 L 208.5625 82.023438 C 208.640625 82.542969 208.109375 82.929688 207.644531 82.683594 L 187.242188 71.964844 C 187.046875 71.875 186.839844 71.875 186.648438 71.964844 " fill-opacity="1" fill-rule="nonzero"/></g><g clip-path="url(#908928223f)"><path fill="#66b2b2" d="M 270.507812 71.964844 L 250.105469 82.683594 C 249.640625 82.929688 249.109375 82.542969 249.1875 82.023438 L 253.082031 59.304688 C 253.121094 59.097656 253.058594 58.890625 252.902344 58.746094 L 236.398438 42.65625 C 236.023438 42.28125 236.230469 41.648438 236.746094 41.582031 L 259.554688 38.269531 C 259.761719 38.230469 259.945312 38.097656 260.035156 37.917969 L 270.238281 17.246094 C 270.46875 16.777344 271.144531 16.777344 271.375 17.246094 L 281.578125 37.917969 C 281.667969 38.097656 281.847656 38.230469 282.054688 38.269531 L 304.867188 41.582031 C 305.382812 41.648438 305.589844 42.28125 305.214844 42.65625 L 288.710938 58.746094 C 288.554688 58.890625 288.488281 59.097656 288.527344 59.304688 L 292.425781 82.023438 C 292.503906 82.542969 291.972656 82.929688 291.507812 82.683594 L 271.105469 71.964844 C 270.921875 71.875 270.703125 71.875 270.507812 71.964844 " fill-opacity="1" fill-rule="nonzero"/></g></svg>