<svg xmlns="http://www.w3.org/2000/svg" xmlns:xlink="http://www.w3.org/1999/xlink" width="410" zoomAndPan="magnify" viewBox="0 0 307.5 277.499997" height="370" preserveAspectRatio="xMidYMid meet" version="1.0"><defs><clipPath id="a467509dfe"><path d="M 2 0 L 305 0 L 305 277 L 2 277 Z M 2 0 " clip-rule="nonzero"/></clipPath><clipPath id="c6dfb26cf2"><path d="M 119.128906 112.632812 C 127.179688 110.808594 133.667969 126.28125 142.414062 117.296875 C 145.667969 113.957031 145.820312 99.722656 152.9375 102.109375 C 155.886719 103.085938 153.957031 107.664062 158.121094 106.730469 C 161.117188 106.058594 161.484375 100.960938 162.070312 98.746094 C 163.15625 94.710938 162.070312 80.019531 166.691406 78.566406 C 175.894531 75.746094 168.449219 93.039062 168.734375 96.273438 C 173.375 97.164062 177.152344 94.101562 181.554688 93.667969 C 186.003906 93.414062 190.34375 93.984375 194.574219 95.382812 C 202.34375 97.703125 209.761719 102.5 213.386719 109.984375 C 217.726562 118.839844 214.320312 126.519531 208.789062 133.855469 C 204.449219 139.539062 193.792969 147.742188 195.769531 155.746094 C 197.113281 155.746094 198.199219 156.703125 199.609375 156.660156 C 201.777344 160.5 196.703125 160.78125 197.4375 165.097656 C 198.066406 168.636719 203.515625 171.609375 205.035156 174.992188 C 207.332031 180.113281 205.859375 181.503906 212.367188 183.128906 C 215.578125 183.867188 222.371094 182.046875 224.28125 185.472656 C 226.796875 189.964844 220.136719 191.441406 220.742188 195.605469 C 227.816406 198.710938 234.023438 207.953125 235.5625 215.308594 C 237.734375 225.527344 231.679688 228.132812 224.234375 232.667969 C 219.179688 235.726562 221.21875 234.097656 220.894531 240.042969 C 220.484375 248.332031 215.558594 252.171875 208.070312 244.621094 C 203.253906 239.761719 201.5625 227.589844 194.921875 224.769531 C 183.789062 220.167969 195.183594 234.230469 191.839844 238.046875 C 187.5 242.953125 184.246094 230.148438 182.53125 228.023438 C 178.777344 223.359375 173.851562 222.902344 168.644531 220.167969 C 165.175781 218.390625 160.421875 212.335938 157.796875 219.539062 C 155.085938 227.132812 162.351562 226.050781 153.328125 228.914062 C 148.183594 230.496094 148.097656 230.585938 146.101562 235.117188 C 145.191406 237.136719 146.273438 239.023438 144.90625 241.390625 C 143.734375 243.386719 141.023438 244.339844 139.546875 246.097656 C 137.160156 248.917969 136.207031 252.367188 134.167969 255.429688 C 130.21875 261.417969 124.46875 264.996094 117.132812 262.828125 C 106.285156 259.617188 111.753906 248.136719 114.660156 241.128906 C 116.15625 237.503906 118.761719 232.820312 115.484375 229.21875 C 112.207031 225.613281 108.976562 227.222656 106.804688 230.84375 C 104.179688 235.488281 107.175781 240.957031 102.464844 245.144531 C 98.429688 248.703125 90.664062 248.898438 87.949219 243.644531 C 84.21875 236.378906 92.421875 228.457031 96.628906 223.445312 C 98.539062 221.125 102.25 218.695312 100.816406 215.242188 C 100.101562 213.507812 93.722656 210.902344 92.941406 213.246094 C 94.503906 208.605469 98.257812 202.179688 93.417969 199.578125 C 91.878906 198.753906 88.253906 200.554688 86.148438 199.773438 C 84.042969 198.992188 83.414062 195.800781 81.007812 195.214844 C 76.863281 194.195312 71.113281 198.425781 66.578125 198.644531 C 61.304688 198.863281 51.996094 198.492188 48.046875 194.5 C 35.808594 182.132812 66.578125 171.390625 74.085938 168.070312 C 77.796875 166.445312 85.757812 163.320312 82.222656 158.828125 C 79.402344 155.25 70.59375 159.242188 76.363281 150.863281 C 78.640625 147.546875 89.644531 147.046875 89.882812 143.574219 C 90.164062 139.234375 83.070312 140.082031 83.371094 134.894531 C 83.675781 129.710938 91.640625 129.492188 87.972656 123.722656 C 86.519531 121.550781 74.953125 118.058594 80.769531 112.675781 C 84.5 109.160156 89.144531 117.296875 93.613281 117.167969 C 97.496094 116.996094 89.535156 102.5 88.90625 101.503906 C 84.933594 95.40625 80.464844 89.71875 81.027344 81.972656 C 81.59375 74.226562 85.976562 73.292969 91.726562 78.023438 C 101.859375 86.488281 98.429688 115.996094 116.289062 113.285156 C 117.480469 112.957031 118.328125 112.828125 119.128906 112.632812 Z M 133.472656 97.226562 C 133.472656 100.871094 133.082031 104.929688 137.8125 105.015625 C 134.492188 105.015625 154.867188 50.597656 128.527344 55.003906 C 107.566406 58.519531 131.476562 85.378906 133.34375 94.882812 C 133.457031 95.660156 133.5 96.441406 133.472656 97.226562 Z M 43.707031 127.972656 C 32.859375 131.054688 24.179688 149.84375 30.6875 159.632812 C 36.65625 168.308594 46.160156 164.816406 50.390625 157.199219 C 52.429688 153.511719 53.582031 147.546875 57.246094 145.09375 C 59.894531 143.335938 66.144531 145.09375 67.816406 142.382812 C 72.199219 135.132812 48.222656 126.648438 43.707031 127.972656 Z M 181.792969 241.109375 C 180.160156 240.539062 178.597656 239.816406 177.109375 238.9375 C 173.746094 236.769531 170.859375 234.121094 166.691406 233.6875 C 162.527344 233.253906 162.917969 237.484375 162.679688 240.476562 C 161.980469 246.890625 162.382812 253.234375 163.894531 259.507812 C 166.734375 269.554688 173.441406 273.761719 183.964844 271.375 C 189.433594 270.140625 199.152344 266.625 200.019531 260.289062 C 201.039062 253.300781 197.375 245.101562 189.976562 243.539062 C 187.15625 242.925781 184.390625 242.113281 181.6875 241.109375 Z M 232.914062 159.371094 C 233.480469 159.589844 234.070312 159.703125 234.675781 159.714844 C 235.285156 159.726562 235.875 159.632812 236.449219 159.433594 C 237.023438 159.234375 237.542969 158.941406 238.015625 158.558594 C 238.484375 158.175781 238.875 157.722656 239.1875 157.199219 C 240.335938 155.878906 239.878906 154.164062 241.726562 152.863281 C 243.570312 151.558594 245.695312 151.929688 247.777344 151.40625 C 248.714844 151.28125 249.613281 151.027344 250.476562 150.648438 C 251.34375 150.273438 252.136719 149.785156 252.867188 149.183594 C 253.59375 148.582031 254.226562 147.894531 254.761719 147.121094 C 255.300781 146.34375 255.71875 145.507812 256.023438 144.617188 C 258.757812 137.457031 255.308594 128.449219 247.605469 126.390625 C 237.992188 123.808594 233.695312 134.808594 228.273438 140.363281 C 224.613281 144.085938 220.6875 147.5 216.488281 150.605469 C 214.839844 151.820312 201.867188 161.257812 211.566406 160.953125 C 215.773438 160.824219 218.074219 158.785156 221.804688 157.960938 C 222.890625 157.796875 223.976562 157.796875 225.0625 157.960938 C 227.597656 157.9375 230.3125 158.9375 232.808594 159.371094 Z M 63.234375 212.488281 C 55.640625 208.691406 42.578125 211.335938 40.257812 216.023438 C 37.9375 220.710938 42.1875 227.566406 49.785156 231.363281 C 57.378906 235.164062 65.40625 234.46875 67.792969 229.757812 C 70.179688 225.050781 70.851562 216.261719 63.234375 212.488281 Z M 84.347656 212.988281 C 84 210.558594 79.226562 208.171875 76.449219 208.648438 C 76.121094 208.628906 75.792969 208.644531 75.464844 208.699219 C 75.136719 208.75 74.820312 208.839844 74.515625 208.964844 C 74.207031 209.085938 73.917969 209.242188 73.644531 209.429688 C 73.375 209.617188 73.125 209.832031 72.902344 210.078125 C 72.675781 210.320312 72.480469 210.585938 72.316406 210.871094 C 72.148438 211.15625 72.019531 211.457031 71.917969 211.773438 C 71.820312 212.089844 71.757812 212.414062 71.730469 212.742188 C 71.703125 213.074219 71.710938 213.402344 71.757812 213.730469 C 71.804688 214.054688 71.886719 214.375 72 214.683594 C 72.117188 214.996094 72.269531 215.289062 72.449219 215.5625 C 72.632812 215.839844 72.839844 216.09375 73.078125 216.324219 C 73.316406 216.554688 73.578125 216.753906 73.859375 216.925781 C 74.140625 217.097656 74.441406 217.238281 74.753906 217.34375 C 75.066406 217.449219 75.386719 217.519531 75.71875 217.554688 C 76.046875 217.589844 76.375 217.585938 76.703125 217.546875 C 77.03125 217.511719 77.351562 217.4375 77.664062 217.328125 C 80.464844 216.957031 84.695312 215.417969 84.371094 212.988281 Z M 177.085938 75.398438 C 177.65625 75.855469 178.277344 76.214844 178.957031 76.480469 C 179.636719 76.746094 180.339844 76.902344 181.066406 76.953125 C 181.792969 77.003906 182.511719 76.945312 183.21875 76.777344 C 183.929688 76.605469 184.597656 76.335938 185.222656 75.964844 C 194.335938 71.90625 192.058594 48.144531 178.714844 58.429688 C 173.289062 62.75 173.050781 71.730469 177.085938 75.398438 Z M 223.519531 74.703125 C 225.257812 71.125 221.503906 69.019531 221.847656 65.699219 C 222.21875 62.03125 237.992188 51.117188 225.539062 49.753906 C 215.839844 48.667969 214.972656 64.484375 210.347656 69.84375 C 208.007812 72.558594 197.980469 81.476562 198.589844 85.511719 C 199.480469 91.347656 208.265625 82.277344 210.609375 81.171875 C 214.082031 79.523438 221.632812 78.566406 223.519531 74.703125 Z M 239.1875 58.386719 C 235.886719 57.453125 236.34375 57.628906 233.632812 59.472656 C 230.917969 61.316406 221.894531 67.847656 229.640625 68.890625 C 232.503906 69.28125 234.238281 67.003906 236.648438 66.046875 C 239.054688 65.09375 243.589844 66.046875 245.175781 64.484375 C 248.972656 60.882812 241.769531 59.105469 239.1875 58.386719 Z M 22.011719 120.835938 C 17.429688 122.289062 5.628906 127.777344 2.871094 120.597656 C 0.3125 113.828125 12.289062 114.890625 15.628906 114.609375 C 25.632812 113.78125 14.9375 107.296875 19.96875 103.304688 C 22.550781 101.261719 25.328125 103.304688 25.15625 98.746094 C 25.15625 97.402344 24.332031 95.882812 25.308594 94.667969 C 26.285156 93.453125 29.410156 93.582031 30.863281 93.605469 C 36.484375 93.605469 39.085938 96.621094 41.300781 101.394531 C 42.058594 103 42.472656 106.320312 44.359375 107.011719 C 46.246094 107.707031 46.527344 105.839844 47.789062 104.84375 C 48.15625 104.570312 48.554688 104.351562 48.984375 104.191406 C 49.414062 104.027344 49.855469 103.925781 50.3125 103.882812 C 50.769531 103.839844 51.226562 103.859375 51.675781 103.941406 C 52.128906 104.023438 52.558594 104.164062 52.972656 104.367188 C 56.011719 106.535156 51.910156 110.703125 52.472656 113.175781 C 53.148438 116.277344 56.921875 113.652344 58.460938 112.9375 C 60.804688 111.851562 66.101562 110.765625 63.648438 115.105469 C 62.800781 116.292969 61.734375 117.234375 60.449219 117.925781 C 59.164062 118.621094 57.792969 118.996094 56.335938 119.054688 C 54.925781 119.230469 53.386719 119.054688 51.996094 119.230469 C 50.109375 119.597656 50.21875 120.011719 48.894531 121.574219 C 46.179688 124.785156 41.082031 121.574219 38.175781 120.53125 C 35.53125 119.730469 32.832031 119.355469 30.070312 119.40625 C 27.308594 119.453125 24.625 119.921875 22.011719 120.8125 Z M 276.3125 204.957031 C 280 205.175781 290.632812 204.394531 287.160156 210.902344 C 283.972656 217.023438 277.742188 212.574219 275.597656 211.792969 C 269.238281 209.449219 270.953125 217.78125 265.265625 219.429688 C 262.359375 220.277344 262.097656 217.890625 259.105469 221.472656 C 258.195312 222.554688 257.585938 223.988281 256.199219 224.660156 C 254.808594 225.332031 253.050781 224.292969 252.226562 223.835938 C 249.039062 222.078125 249.558594 218.976562 251.574219 214.550781 C 252.269531 213.050781 254.308594 210.210938 253.746094 209.191406 C 253.179688 208.171875 251.683594 209.472656 250.273438 209.863281 C 248.863281 210.253906 247.039062 209.863281 246.933594 208.667969 C 246.738281 206.042969 252.011719 204.089844 253.375 201.921875 C 255.132812 199.253906 251.207031 200.207031 249.730469 200.316406 C 247.5625 200.46875 243.875 199.664062 248.257812 197.015625 C 249.292969 196.363281 250.421875 195.957031 251.640625 195.796875 C 252.855469 195.640625 254.050781 195.742188 255.222656 196.105469 C 256.175781 196.367188 256.890625 197.039062 257.867188 197.234375 C 259.191406 197.539062 259.429688 197.234375 261.273438 196.324219 C 265.070312 194.609375 265.851562 198.621094 266.765625 200.359375 C 268.328125 203.265625 272.40625 204.699219 276.289062 205.003906 Z M 68.792969 98.289062 C 68.03125 103.628906 60.652344 102.042969 61.628906 96.46875 C 61.761719 95.648438 62.101562 94.921875 62.652344 94.296875 C 62.09375 94.59375 61.5 94.726562 60.867188 94.695312 C 60.238281 94.664062 59.660156 94.476562 59.136719 94.125 C 57.3125 92.953125 57.855469 91.457031 58.289062 89.785156 C 58.453125 89.457031 58.5625 89.113281 58.617188 88.753906 C 58.671875 88.394531 58.671875 88.03125 58.613281 87.671875 C 58.554688 87.3125 58.441406 86.96875 58.277344 86.644531 C 58.109375 86.320312 57.898438 86.027344 57.636719 85.769531 C 55.8125 84.496094 54.480469 82.824219 53.644531 80.757812 C 53.363281 79.652344 53.234375 77.285156 54.96875 77.589844 C 56.335938 77.851562 56.835938 80.605469 57.3125 81.605469 C 57.746094 82.769531 58.519531 83.621094 59.632812 84.164062 C 60.890625 84.84375 61.957031 85.75 62.824219 86.886719 C 63.695312 88.019531 64.296875 89.285156 64.625 90.675781 C 64.710938 91.738281 64.386719 92.65625 63.648438 93.429688 C 63.992188 93.335938 64.339844 93.289062 64.695312 93.285156 C 65.050781 93.28125 65.402344 93.324219 65.746094 93.410156 C 66.089844 93.496094 66.417969 93.625 66.730469 93.796875 C 67.039062 93.964844 67.324219 94.171875 67.582031 94.417969 C 67.84375 94.660156 68.066406 94.933594 68.253906 95.234375 C 68.441406 95.535156 68.589844 95.855469 68.695312 96.195312 C 68.800781 96.535156 68.859375 96.882812 68.878906 97.238281 C 68.894531 97.59375 68.863281 97.941406 68.792969 98.289062 Z M 69.355469 257.75 C 69.8125 258.832031 70.449219 259.800781 71.265625 260.648438 C 72.082031 261.496094 73.019531 262.171875 74.085938 262.675781 C 79.855469 264.84375 84.304688 252.519531 75.0625 245.792969 C 68.597656 241.257812 66.230469 251.609375 69.355469 257.75 Z M 56.011719 258.703125 C 54.382812 257.792969 51.824219 259.660156 54.125 261.828125 C 56.726562 264.347656 55.535156 258.445312 56.011719 258.703125 Z M 61.066406 244.230469 C 59.660156 246.707031 57.882812 248.878906 55.730469 250.742188 C 55.078125 251.328125 50.042969 255.277344 52.320312 256.796875 C 55.535156 258.964844 60.632812 248.59375 62.109375 246.902344 C 64.152344 244.867188 65.597656 242.472656 66.449219 239.71875 C 64.105469 238.808594 62.128906 242.519531 61.066406 244.230469 Z M 43.230469 245.578125 C 46.917969 246.53125 46.917969 240.109375 42.449219 238.808594 C 37.980469 237.503906 39.195312 244.535156 43.316406 245.578125 Z M 19.210938 261.675781 C 19.851562 262.382812 20.644531 262.746094 21.597656 262.761719 C 23.398438 262.761719 24.570312 260.308594 24.832031 258.421875 C 24.800781 257.976562 24.890625 257.558594 25.101562 257.167969 C 25.3125 256.773438 25.613281 256.46875 26.003906 256.253906 C 26.589844 255.863281 28.453125 255.515625 28.171875 254.234375 C 28.113281 253.949219 27.996094 253.6875 27.820312 253.453125 C 27.644531 253.21875 27.429688 253.03125 27.171875 252.890625 C 26.917969 252.753906 26.640625 252.671875 26.351562 252.652344 C 26.058594 252.632812 25.777344 252.675781 25.503906 252.78125 C 24.050781 253.214844 23.617188 254.949219 23.007812 256.316406 C 22.402344 257.683594 21.378906 257.164062 20.273438 256.730469 C 19.167969 256.296875 17.757812 255.601562 17.453125 257.292969 C 17.296875 258.527344 17.59375 259.640625 18.34375 260.636719 C 17.78125 260.117188 17.128906 259.753906 16.390625 259.550781 C 12.050781 258.269531 13.046875 265.28125 17.171875 266.320312 C 19.839844 267.015625 20.621094 263.957031 19.210938 261.675781 Z M 27.890625 242.324219 C 27.890625 244.125 26.414062 244.492188 26.046875 245.988281 C 26.023438 246.15625 26.023438 246.324219 26.046875 246.488281 C 26.046875 248.660156 28.691406 249.960938 30.101562 250.675781 C 32.578125 251.957031 38.238281 253.78125 39.304688 251.566406 C 39.933594 250.242188 38.304688 247.226562 37.242188 245.75 C 35.3125 242.972656 31.773438 239.066406 29.234375 238.785156 C 27.195312 238.546875 27.78125 240.476562 27.867188 242.324219 Z M 161.464844 20.222656 C 172.660156 20.914062 158.101562 11.542969 159.683594 11.214844 C 154.152344 11.976562 151.9375 19.65625 161.464844 20.222656 Z M 165 7.332031 C 173.898438 6.921875 164.523438 -1.695312 157.339844 -2.042969 C 147.207031 -2.496094 157.863281 7.65625 165 7.332031 Z M 114.984375 80.0625 C 117.570312 75.984375 108.476562 74.097656 108.476562 73.25 C 108.066406 76.179688 112.773438 83.535156 114.984375 80.0625 Z M 107 67.78125 C 108.433594 63.746094 100.882812 60.425781 99.277344 63.140625 C 97.042969 66.9375 105.875 71.039062 107 67.78125 Z M 156.105469 63.660156 C 155.085938 55.523438 159.183594 49.46875 160.683594 41.960938 C 161.226562 39.292969 162.15625 24.605469 154.171875 26.992188 C 145.210938 29.617188 151.199219 43.394531 152.371094 48.925781 C 155.085938 61.730469 149.246094 72.316406 148.316406 84.230469 C 160.402344 80.238281 157.144531 71.882812 156.105469 63.660156 Z M 247.453125 182.738281 C 241.703125 181.328125 220.484375 178.03125 219.441406 170.742188 C 222 170.175781 224.800781 172.238281 227.402344 172.78125 C 232.644531 173.503906 237.910156 173.902344 243.199219 173.972656 C 248.726562 174.457031 254.070312 175.707031 259.238281 177.722656 C 264.402344 179.738281 269.183594 182.4375 273.578125 185.820312 C 277.050781 188.445312 286.597656 198.1875 275.898438 194.5 C 266.179688 191.070312 257.738281 185.277344 247.453125 182.738281 Z M 266.808594 171.066406 C 264.636719 173.582031 252.183594 171.71875 251.164062 168.765625 C 249.773438 164.730469 261.730469 163.949219 264.421875 164.425781 C 265.148438 164.539062 265.796875 164.828125 266.363281 165.296875 C 266.933594 165.761719 267.339844 166.34375 267.589844 167.035156 C 267.839844 167.730469 267.894531 168.4375 267.753906 169.160156 C 267.613281 169.882812 267.296875 170.515625 266.808594 171.066406 Z M 292.128906 187.816406 C 289.960938 188.683594 280.152344 186.515625 279.285156 184.476562 C 277.441406 180.136719 287.335938 182.109375 289.15625 182.847656 C 290.980469 183.585938 295.578125 186.339844 292.128906 187.816406 Z M 301.785156 195.605469 C 295.144531 194.933594 296.339844 184.953125 302.371094 189.097656 C 304.996094 191.070312 306.710938 196.105469 301.785156 195.605469 Z M 293.105469 194.304688 C 288.027344 193.804688 288.941406 186.144531 293.5625 189.359375 C 295.558594 190.769531 296.859375 194.695312 293.085938 194.304688 Z M 135.75 268.230469 C 136.621094 271.507812 132.191406 278.796875 129.242188 276.910156 C 123.125 272.980469 127.265625 265.410156 128.546875 264.542969 C 129.828125 263.671875 134.296875 262.675781 135.75 268.230469 Z M 147.773438 268.773438 C 145.863281 274.71875 132.582031 260.09375 139.09375 259.484375 C 142.023438 259.246094 149.183594 264.367188 147.859375 268.773438 Z M 144.710938 276 C 143.238281 280.53125 133.039062 269.292969 138.203125 268.882812 C 140.308594 268.6875 145.796875 272.613281 144.710938 276 Z M 226.492188 106.449219 C 226.089844 106.691406 225.722656 106.984375 225.402344 107.324219 C 225.078125 107.667969 224.804688 108.046875 224.585938 108.464844 C 224.371094 108.882812 224.210938 109.320312 224.117188 109.78125 C 224.019531 110.242188 223.988281 110.710938 224.019531 111.179688 C 224.800781 117.101562 238.167969 121.875 240.054688 112.4375 C 241.378906 105.839844 230.703125 103.214844 226.492188 106.449219 Z M 252.640625 100.332031 C 255.675781 102.761719 260.34375 99.136719 256.804688 95.992188 C 253.269531 92.84375 249.234375 97.507812 252.640625 100.222656 Z M 239.402344 90.542969 C 238.1875 91.609375 236.257812 91.085938 234.890625 91.671875 C 234.734375 91.738281 234.589844 91.824219 234.457031 91.933594 C 232.828125 93.105469 234.585938 95.253906 235.476562 96.382812 C 237.039062 98.378906 241.441406 102.304688 244.15625 101.609375 C 245.761719 101.175781 246.324219 98.679688 246.324219 97.269531 C 246.324219 94.710938 245.675781 90.761719 243.332031 89.222656 C 241.484375 87.960938 240.683594 89.351562 239.402344 90.4375 Z M 239.402344 90.542969 " clip-rule="nonzero"/></clipPath><linearGradient x1="69.690002" gradientTransform="matrix(2.169811, 0, 0, 2.169811, 2.481622, -2.041332)" y1="0.940788" x2="69.690002" gradientUnits="userSpaceOnUse" y2="128.602088" id="113f24b9c4"><stop stop-opacity="1" stop-color="rgb(26.272583%, 41.957092%, 41.957092%)" offset="0"/><stop stop-opacity="1" stop-color="rgb(26.329041%, 42.073059%, 42.073059%)" offset="0.0078125"/><stop stop-opacity="1" stop-color="rgb(26.445007%, 42.304993%, 42.304993%)" offset="0.015625"/><stop stop-opacity="1" stop-color="rgb(26.559448%, 42.538452%, 42.538452%)" offset="0.0234375"/><stop stop-opacity="1" stop-color="rgb(26.673889%, 42.771912%, 42.771912%)" offset="0.03125"/><stop stop-opacity="1" stop-color="rgb(26.78833%, 43.005371%, 43.005371%)" offset="0.0390625"/><stop stop-opacity="1" stop-color="rgb(26.904297%, 43.237305%, 43.237305%)" offset="0.046875"/><stop stop-opacity="1" stop-color="rgb(27.018738%, 43.470764%, 43.470764%)" offset="0.0546875"/><stop stop-opacity="1" stop-color="rgb(27.133179%, 43.704224%, 43.704224%)" offset="0.0625"/><stop stop-opacity="1" stop-color="rgb(27.249146%, 43.936157%, 43.936157%)" offset="0.0703125"/><stop stop-opacity="1" stop-color="rgb(27.363586%, 44.169617%, 44.169617%)" offset="0.078125"/><stop stop-opacity="1" stop-color="rgb(27.478027%, 44.403076%, 44.403076%)" offset="0.0859375"/><stop stop-opacity="1" stop-color="rgb(27.593994%, 44.636536%, 44.636536%)" offset="0.09375"/><stop stop-opacity="1" stop-color="rgb(27.708435%, 44.868469%, 44.868469%)" offset="0.101562"/><stop stop-opacity="1" stop-color="rgb(27.822876%, 45.101929%, 45.101929%)" offset="0.109375"/><stop stop-opacity="1" stop-color="rgb(27.937317%, 45.335388%, 45.335388%)" offset="0.117187"/><stop stop-opacity="1" stop-color="rgb(28.053284%, 45.567322%, 45.567322%)" offset="0.125"/><stop stop-opacity="1" stop-color="rgb(28.167725%, 45.800781%, 45.800781%)" offset="0.132812"/><stop stop-opacity="1" stop-color="rgb(28.282166%, 46.034241%, 46.034241%)" offset="0.140625"/><stop stop-opacity="1" stop-color="rgb(28.398132%, 46.2677%, 46.2677%)" offset="0.148437"/><stop stop-opacity="1" stop-color="rgb(28.512573%, 46.499634%, 46.499634%)" offset="0.15625"/><stop stop-opacity="1" stop-color="rgb(28.627014%, 46.733093%, 46.733093%)" offset="0.164062"/><stop stop-opacity="1" stop-color="rgb(28.741455%, 46.966553%, 46.966553%)" offset="0.171875"/><stop stop-opacity="1" stop-color="rgb(28.857422%, 47.200012%, 47.200012%)" offset="0.179687"/><stop stop-opacity="1" stop-color="rgb(28.971863%, 47.431946%, 47.431946%)" offset="0.1875"/><stop stop-opacity="1" stop-color="rgb(29.086304%, 47.665405%, 47.665405%)" offset="0.195312"/><stop stop-opacity="1" stop-color="rgb(29.202271%, 47.898865%, 47.898865%)" offset="0.203125"/><stop stop-opacity="1" stop-color="rgb(29.316711%, 48.130798%, 48.130798%)" offset="0.210937"/><stop stop-opacity="1" stop-color="rgb(29.431152%, 48.364258%, 48.364258%)" offset="0.21875"/><stop stop-opacity="1" stop-color="rgb(29.547119%, 48.597717%, 48.597717%)" offset="0.226562"/><stop stop-opacity="1" stop-color="rgb(29.66156%, 48.831177%, 48.831177%)" offset="0.234375"/><stop stop-opacity="1" stop-color="rgb(29.776001%, 49.06311%, 49.06311%)" offset="0.242187"/><stop stop-opacity="1" stop-color="rgb(29.890442%, 49.29657%, 49.29657%)" offset="0.25"/><stop stop-opacity="1" stop-color="rgb(30.006409%, 49.530029%, 49.530029%)" offset="0.257812"/><stop stop-opacity="1" stop-color="rgb(30.12085%, 49.763489%, 49.763489%)" offset="0.265625"/><stop stop-opacity="1" stop-color="rgb(30.235291%, 49.995422%, 49.995422%)" offset="0.273437"/><stop stop-opacity="1" stop-color="rgb(30.351257%, 50.228882%, 50.228882%)" offset="0.28125"/><stop stop-opacity="1" stop-color="rgb(30.465698%, 50.462341%, 50.462341%)" offset="0.289062"/><stop stop-opacity="1" stop-color="rgb(30.580139%, 50.694275%, 50.694275%)" offset="0.296875"/><stop stop-opacity="1" stop-color="rgb(30.69458%, 50.927734%, 50.927734%)" offset="0.304688"/><stop stop-opacity="1" stop-color="rgb(30.810547%, 51.161194%, 51.161194%)" offset="0.3125"/><stop stop-opacity="1" stop-color="rgb(30.924988%, 51.394653%, 51.394653%)" offset="0.320312"/><stop stop-opacity="1" stop-color="rgb(31.039429%, 51.626587%, 51.626587%)" offset="0.328125"/><stop stop-opacity="1" stop-color="rgb(31.155396%, 51.860046%, 51.860046%)" offset="0.335938"/><stop stop-opacity="1" stop-color="rgb(31.269836%, 52.093506%, 52.093506%)" offset="0.34375"/><stop stop-opacity="1" stop-color="rgb(31.384277%, 52.326965%, 52.326965%)" offset="0.351562"/><stop stop-opacity="1" stop-color="rgb(31.500244%, 52.558899%, 52.558899%)" offset="0.359375"/><stop stop-opacity="1" stop-color="rgb(31.614685%, 52.792358%, 52.792358%)" offset="0.367188"/><stop stop-opacity="1" stop-color="rgb(31.729126%, 53.025818%, 53.025818%)" offset="0.375"/><stop stop-opacity="1" stop-color="rgb(31.843567%, 53.257751%, 53.257751%)" offset="0.382812"/><stop stop-opacity="1" stop-color="rgb(31.959534%, 53.491211%, 53.491211%)" offset="0.390625"/><stop stop-opacity="1" stop-color="rgb(32.073975%, 53.72467%, 53.72467%)" offset="0.398438"/><stop stop-opacity="1" stop-color="rgb(32.188416%, 53.95813%, 53.95813%)" offset="0.40625"/><stop stop-opacity="1" stop-color="rgb(32.304382%, 54.190063%, 54.190063%)" offset="0.414062"/><stop stop-opacity="1" stop-color="rgb(32.418823%, 54.423523%, 54.423523%)" offset="0.421875"/><stop stop-opacity="1" stop-color="rgb(32.533264%, 54.656982%, 54.656982%)" offset="0.429688"/><stop stop-opacity="1" stop-color="rgb(32.649231%, 54.890442%, 54.890442%)" offset="0.4375"/><stop stop-opacity="1" stop-color="rgb(32.763672%, 55.122375%, 55.122375%)" offset="0.445312"/><stop stop-opacity="1" stop-color="rgb(32.878113%, 55.355835%, 55.355835%)" offset="0.453125"/><stop stop-opacity="1" stop-color="rgb(32.992554%, 55.589294%, 55.589294%)" offset="0.460938"/><stop stop-opacity="1" stop-color="rgb(33.108521%, 55.821228%, 55.821228%)" offset="0.46875"/><stop stop-opacity="1" stop-color="rgb(33.222961%, 56.054688%, 56.054688%)" offset="0.476562"/><stop stop-opacity="1" stop-color="rgb(33.337402%, 56.288147%, 56.288147%)" offset="0.484375"/><stop stop-opacity="1" stop-color="rgb(33.453369%, 56.521606%, 56.521606%)" offset="0.492187"/><stop stop-opacity="1" stop-color="rgb(33.56781%, 56.75354%, 56.75354%)" offset="0.5"/><stop stop-opacity="1" stop-color="rgb(33.682251%, 56.987%, 56.987%)" offset="0.507813"/><stop stop-opacity="1" stop-color="rgb(33.796692%, 57.220459%, 57.220459%)" offset="0.515625"/><stop stop-opacity="1" stop-color="rgb(33.912659%, 57.453918%, 57.453918%)" offset="0.523438"/><stop stop-opacity="1" stop-color="rgb(34.0271%, 57.685852%, 57.685852%)" offset="0.53125"/><stop stop-opacity="1" stop-color="rgb(34.141541%, 57.919312%, 57.919312%)" offset="0.539062"/><stop stop-opacity="1" stop-color="rgb(34.257507%, 58.152771%, 58.152771%)" offset="0.546875"/><stop stop-opacity="1" stop-color="rgb(34.371948%, 58.384705%, 58.384705%)" offset="0.554688"/><stop stop-opacity="1" stop-color="rgb(34.486389%, 58.618164%, 58.618164%)" offset="0.5625"/><stop stop-opacity="1" stop-color="rgb(34.602356%, 58.851624%, 58.851624%)" offset="0.570313"/><stop stop-opacity="1" stop-color="rgb(34.716797%, 59.085083%, 59.085083%)" offset="0.578125"/><stop stop-opacity="1" stop-color="rgb(34.831238%, 59.317017%, 59.317017%)" offset="0.585938"/><stop stop-opacity="1" stop-color="rgb(34.945679%, 59.550476%, 59.550476%)" offset="0.59375"/><stop stop-opacity="1" stop-color="rgb(35.061646%, 59.783936%, 59.783936%)" offset="0.601563"/><stop stop-opacity="1" stop-color="rgb(35.176086%, 60.017395%, 60.017395%)" offset="0.609375"/><stop stop-opacity="1" stop-color="rgb(35.290527%, 60.249329%, 60.249329%)" offset="0.617188"/><stop stop-opacity="1" stop-color="rgb(35.406494%, 60.482788%, 60.482788%)" offset="0.625"/><stop stop-opacity="1" stop-color="rgb(35.520935%, 60.716248%, 60.716248%)" offset="0.632812"/><stop stop-opacity="1" stop-color="rgb(35.635376%, 60.948181%, 60.948181%)" offset="0.640625"/><stop stop-opacity="1" stop-color="rgb(35.749817%, 61.181641%, 61.181641%)" offset="0.648438"/><stop stop-opacity="1" stop-color="rgb(35.865784%, 61.4151%, 61.4151%)" offset="0.65625"/><stop stop-opacity="1" stop-color="rgb(35.980225%, 61.64856%, 61.64856%)" offset="0.664063"/><stop stop-opacity="1" stop-color="rgb(36.094666%, 61.880493%, 61.880493%)" offset="0.671875"/><stop stop-opacity="1" stop-color="rgb(36.210632%, 62.113953%, 62.113953%)" offset="0.679688"/><stop stop-opacity="1" stop-color="rgb(36.325073%, 62.347412%, 62.347412%)" offset="0.6875"/><stop stop-opacity="1" stop-color="rgb(36.439514%, 62.580872%, 62.580872%)" offset="0.695312"/><stop stop-opacity="1" stop-color="rgb(36.555481%, 62.812805%, 62.812805%)" offset="0.703125"/><stop stop-opacity="1" stop-color="rgb(36.669922%, 63.046265%, 63.046265%)" offset="0.710938"/><stop stop-opacity="1" stop-color="rgb(36.784363%, 63.279724%, 63.279724%)" offset="0.71875"/><stop stop-opacity="1" stop-color="rgb(36.898804%, 63.511658%, 63.511658%)" offset="0.726563"/><stop stop-opacity="1" stop-color="rgb(37.014771%, 63.745117%, 63.745117%)" offset="0.734375"/><stop stop-opacity="1" stop-color="rgb(37.129211%, 63.978577%, 63.978577%)" offset="0.742188"/><stop stop-opacity="1" stop-color="rgb(37.243652%, 64.212036%, 64.212036%)" offset="0.75"/><stop stop-opacity="1" stop-color="rgb(37.359619%, 64.44397%, 64.44397%)" offset="0.757812"/><stop stop-opacity="1" stop-color="rgb(37.47406%, 64.677429%, 64.677429%)" offset="0.765625"/><stop stop-opacity="1" stop-color="rgb(37.588501%, 64.910889%, 64.910889%)" offset="0.773438"/><stop stop-opacity="1" stop-color="rgb(37.704468%, 65.144348%, 65.144348%)" offset="0.78125"/><stop stop-opacity="1" stop-color="rgb(37.818909%, 65.376282%, 65.376282%)" offset="0.789063"/><stop stop-opacity="1" stop-color="rgb(37.93335%, 65.609741%, 65.609741%)" offset="0.796875"/><stop stop-opacity="1" stop-color="rgb(38.047791%, 65.843201%, 65.843201%)" offset="0.804688"/><stop stop-opacity="1" stop-color="rgb(38.163757%, 66.075134%, 66.075134%)" offset="0.8125"/><stop stop-opacity="1" stop-color="rgb(38.278198%, 66.308594%, 66.308594%)" offset="0.820312"/><stop stop-opacity="1" stop-color="rgb(38.392639%, 66.542053%, 66.542053%)" offset="0.828125"/><stop stop-opacity="1" stop-color="rgb(38.508606%, 66.775513%, 66.775513%)" offset="0.835938"/><stop stop-opacity="1" stop-color="rgb(38.623047%, 67.007446%, 67.007446%)" offset="0.84375"/><stop stop-opacity="1" stop-color="rgb(38.737488%, 67.240906%, 67.240906%)" offset="0.851563"/><stop stop-opacity="1" stop-color="rgb(38.851929%, 67.474365%, 67.474365%)" offset="0.859375"/><stop stop-opacity="1" stop-color="rgb(38.967896%, 67.706299%, 67.706299%)" offset="0.867188"/><stop stop-opacity="1" stop-color="rgb(39.082336%, 67.939758%, 67.939758%)" offset="0.875"/><stop stop-opacity="1" stop-color="rgb(39.196777%, 68.173218%, 68.173218%)" offset="0.882812"/><stop stop-opacity="1" stop-color="rgb(39.312744%, 68.406677%, 68.406677%)" offset="0.890625"/><stop stop-opacity="1" stop-color="rgb(39.427185%, 68.638611%, 68.638611%)" offset="0.898437"/><stop stop-opacity="1" stop-color="rgb(39.541626%, 68.87207%, 68.87207%)" offset="0.90625"/><stop stop-opacity="1" stop-color="rgb(39.657593%, 69.10553%, 69.10553%)" offset="0.914063"/><stop stop-opacity="1" stop-color="rgb(39.772034%, 69.338989%, 69.338989%)" offset="0.921875"/><stop stop-opacity="1" stop-color="rgb(39.91394%, 69.62738%, 69.62738%)" offset="0.9375"/><stop stop-opacity="1" stop-color="rgb(39.99939%, 69.799805%, 69.799805%)" offset="1"/></linearGradient></defs><g clip-path="url(#a467509dfe)"><g clip-path="url(#c6dfb26cf2)"><path fill="url(#113f24b9c4)" d="M 0.3125 0 L 0.3125 277 L 306.710938 277 L 306.710938 0 Z M 0.3125 0 " fill-rule="nonzero"/></g></g></svg>